<svg width="87" height="80" viewBox="0 0 87 80" fill="none" xmlns="http://www.w3.org/2000/svg">
<g clip-path="url(#clip0_4_50572)">
<rect width="87" height="80" fill="#26262E"/>
<path d="M29.3688 42.5002C30.3114 42.7108 30.7147 43.4569 31.0354 44.2669C31.248 44.8038 31.7315 45.2094 32.3088 45.2251C32.8541 45.2399 33.3779 45.1492 33.6949 44.68C33.8401 44.469 33.9712 44.2491 34.0875 44.0218C34.4435 43.3264 34.0136 42.5333 33.2865 42.2476C32.3067 41.8626 31.3297 41.4733 30.3383 41.16C30.0634 41.0724 29.7875 40.9884 29.5106 40.9073C29.2401 40.828 28.9474 40.9226 28.7684 41.1403C28.3721 41.6226 28.7519 42.4045 29.3688 42.5002Z" fill="#FF8E0A"/>
<path d="M36.3119 49.8501C36.3065 49.8288 36.2981 49.8084 36.2894 49.7882C36.2861 49.7805 36.2831 49.7727 36.2804 49.7648C36.2027 49.546 36.1418 49.3125 36.0824 49.0871C36.0142 48.8 35.9277 48.5178 35.8232 48.2423C35.7772 48.1293 35.6218 48.1173 35.5592 48.222C35.2631 48.72 34.9356 49.2433 34.5582 49.8232C34.5135 49.8925 34.5339 49.9853 34.6033 50.0301C35.1167 50.356 35.6687 50.6153 36.2464 50.8038C37.5462 51.0622 38.8714 51.1708 40.1962 51.1272C41.0967 51.1152 41.9972 51.1524 42.8938 51.2386C42.9603 51.2462 43.0236 51.208 43.0478 51.1457L43.1417 50.9044C43.252 50.6221 43.3623 50.3391 43.4697 50.0578C43.5018 49.9743 43.4526 49.8811 43.3653 49.8613C43.014 49.7809 42.6036 49.6852 42.2084 49.5743C42.1541 49.5626 42.1076 49.5258 42.0841 49.4747C42.0814 49.4674 42.079 49.46 42.077 49.4525C42.0461 49.337 42.1141 49.22 42.1458 49.1048L42.1985 48.9132C42.6351 47.3088 43.0869 45.6501 43.0438 43.9521C43.0416 43.88 42.9876 43.8196 42.9161 43.81C42.7272 43.7849 42.5386 43.7627 42.3496 43.7429C42.2689 43.7352 42.197 43.7945 42.1886 43.8752C42.0017 45.4249 41.7251 46.962 41.3603 48.4796C41.2477 48.9888 41.1358 49.5008 41.0294 50.013C41.0237 50.0884 40.9605 50.1465 40.8848 50.1463C40.8522 50.1479 40.8209 50.1609 40.7965 50.1827C40.7605 50.2132 40.714 50.2277 40.6672 50.2246C40.2751 50.2217 39.8791 50.2355 39.4944 50.2492C38.4788 50.3369 37.4558 50.2698 36.4603 50.0504C36.3905 50.0364 36.3371 49.9819 36.3234 49.9138C36.3191 49.8927 36.3173 49.871 36.3119 49.8501Z" fill="#FF8E0A"/>
<path d="M18.9615 47.3965C19.1906 47.6943 18.9267 47.603 19.346 47.5141C20.3212 47.3108 21.0775 46.6548 21.9033 46.1339C21.9606 46.0984 22.0229 46.0685 22.0865 46.0458C22.2105 46.0015 22.3524 46.0291 22.4518 46.124C22.4817 46.1511 22.5117 46.1781 22.5417 46.205C22.8955 46.5213 23.4385 46.456 23.733 46.0838C23.8638 45.9184 23.9953 45.7535 24.1273 45.5889C24.3675 45.2898 24.1927 44.8392 23.8141 44.7777C23.6274 44.7453 23.4474 44.7131 23.2726 44.6831C23.095 44.6699 22.9216 44.6592 22.7533 44.6511C22.4479 44.6408 22.1433 44.6042 21.8442 44.5414C21.6351 44.4941 21.4362 44.4113 21.2555 44.2957C21.1397 44.2076 21.0828 44.1491 21.0956 44.123C21.1084 44.097 21.1908 44.111 21.3274 44.1567C21.5119 44.2066 21.6999 44.2418 21.89 44.2616C22.1344 44.2808 22.4263 44.2848 22.7632 44.2824C22.932 44.2789 23.1098 44.2826 23.2994 44.2912L23.3162 44.2915L23.3515 44.2968L23.3847 44.3L23.4534 44.3109L23.593 44.3328C23.6851 44.3491 23.7796 44.3655 23.8767 44.3781C24.2043 44.4345 24.5195 44.4928 24.8102 44.5479C24.8968 44.5643 24.9852 44.5332 25.0415 44.4654C25.1635 44.3185 25.0756 44.0943 24.8861 44.0713C23.9972 43.9635 23.1043 43.8961 22.2092 43.8692C22.1091 43.8714 22.0175 43.8277 21.9559 43.7562C21.8776 43.6653 21.8331 43.5421 21.8225 43.4226C21.8187 43.3902 21.8148 43.3579 21.8107 43.3256C21.7173 42.5834 20.811 42.3426 20.2391 42.8248C19.5999 43.3569 18.6981 44.01 18.2987 44.8223C18.252 44.9172 18.2693 45.0289 18.2671 45.1347C18.2743 45.2128 18.2772 45.2911 18.2759 45.3691C18.2665 45.9227 18.2767 46.5145 18.6158 46.952C18.7307 47.1002 18.8462 47.2478 18.9615 47.3965Z" fill="#FF8E0A"/>
<path d="M25.7789 45.0622C25.6324 45.05 25.4875 45.1027 25.3944 45.2164C25.1828 45.4748 24.9711 45.7334 24.7598 45.9927C24.2149 46.6616 24.3406 47.6437 25.0453 48.1413C25.1495 48.2148 25.2537 48.2882 25.3581 48.3616C25.7158 48.6132 26.1639 48.703 26.5869 48.5919C27.1307 48.4491 27.6711 48.2957 28.2225 48.1848C28.6116 48.1066 28.975 47.9127 29.2073 47.5908C29.2267 47.5638 29.246 47.5368 29.2652 47.5097C29.5531 47.1035 29.5821 46.5769 29.407 46.1108C29.3378 45.9267 29.2716 45.7414 29.2084 45.5551C28.9933 44.9206 28.4251 44.4629 27.7577 44.4035C27.2992 44.3627 26.8417 44.3115 26.3848 44.2564C26.2747 44.2431 26.1653 44.2868 26.0949 44.3725C25.9994 44.4886 25.904 44.6046 25.8085 44.7196C25.7904 44.7414 25.8011 44.7746 25.8285 44.7817C26.3244 44.9102 26.6261 45.0177 26.6155 45.0737C26.6048 45.1297 26.2875 45.1207 25.7789 45.0622Z" fill="#FF8E0A"/>
<path d="M16.0848 50.8729C16.4334 50.4921 16.7781 50.1079 17.1234 49.7249C17.5301 49.2737 17.5384 48.5621 17.1638 48.0841C16.8413 47.6727 16.2624 47.6403 15.8648 47.9797C15.5386 48.2582 15.2303 48.5578 14.9419 48.8767C14.8486 48.9833 14.7555 49.089 14.6623 49.1939C14.0303 49.9055 14.0621 51.3073 15.0103 51.3896C15.3515 51.4193 15.7046 51.2879 16.0848 50.8729Z" fill="#FF8E0A"/>
<path d="M23.134 42.5269C23.1019 42.1369 23.0372 41.7505 22.9408 41.3715C22.8636 41.061 22.8058 40.746 22.7669 40.4283C22.754 40.3036 22.6013 40.2506 22.5142 40.3408C22.3238 40.5374 22.1365 40.7366 21.9527 40.9362C21.9185 40.9727 21.9053 41.024 21.9176 41.0725L21.9179 41.0739C22.1054 41.7682 22.2506 42.4736 22.3534 43.1859C22.3625 43.2571 22.4224 43.3117 22.4942 43.3132C23.6451 43.3517 24.8154 43.4961 25.8484 43.6235C25.8972 43.6293 25.9461 43.61 25.978 43.5725C26.072 43.4623 26.1668 43.3494 26.2853 43.2086C26.3636 43.1154 26.3019 42.9728 26.1804 42.9661L25.6527 42.9371C24.9211 42.8961 24.1642 42.8535 23.4168 42.8319C23.3557 42.8341 23.2984 42.8061 23.2631 42.7581C23.2497 42.74 23.2384 42.7204 23.2241 42.703C23.213 42.6895 23.2002 42.6774 23.1883 42.6646C23.154 42.6273 23.1344 42.5782 23.134 42.5269Z" fill="#FF8E0A"/>
<path d="M36.4961 48.0852C36.4314 48.0953 36.3913 48.1599 36.4126 48.2219C36.5114 48.5094 36.5855 48.8053 36.6665 49.0994C36.7436 49.3795 36.9718 49.5921 37.2592 49.6347C37.9412 49.7357 38.6361 49.7191 39.3295 49.6924C40.0345 49.6651 40.6497 49.1761 40.8027 48.4874C41.0709 47.2812 41.2977 46.0663 41.4829 44.8446C41.5663 44.2948 41.1571 43.7968 40.6012 43.7824C40.0562 43.7683 39.6235 44.2256 39.5202 44.7609C39.2183 46.3265 38.116 47.8204 36.4961 48.0852ZM40.2999 46.9065C40.2999 46.9059 40.2999 46.9053 40.3 46.9048C40.4139 46.2122 40.4885 45.5948 40.6073 45.6023C40.7091 45.609 40.8178 46.1998 40.6963 46.9716C40.563 47.714 40.3433 48.2765 40.238 48.255C40.1327 48.2334 40.1709 47.6269 40.2997 46.9084C40.2998 46.9077 40.2998 46.9071 40.2999 46.9065Z" fill="#FF8E0A"/>
<path d="M21.7799 48.341C21.7326 48.3203 21.678 48.3279 21.6373 48.3596C20.2681 49.4286 19.0698 50.6927 17.7777 51.8543C17.4278 52.1688 17.4492 52.7299 17.8361 52.9975C18.1722 53.2298 18.6368 53.1311 18.85 52.7826C19.0491 52.4572 19.2516 52.1326 19.4603 51.8125C20.1957 50.6818 21.0129 49.6173 21.8318 48.554C21.8872 48.4821 21.863 48.3774 21.7799 48.341Z" fill="#FF8E0A"/>
<path d="M23.6263 49.678C23.0125 49.1835 22.1455 49.2689 21.6732 49.9C20.949 50.8675 20.266 51.8657 19.6262 52.8918C19.3125 53.4165 19.4635 54.0997 19.987 54.4154C20.8863 54.9577 21.8186 55.4367 22.7932 55.7709C23.6783 56.0744 24.5013 55.3504 24.4559 54.4158C24.4048 53.3648 24.3451 52.3144 24.3898 51.2647C24.4158 50.6516 24.1042 50.063 23.6263 49.678ZM23.0669 55.0524C22.5515 54.7486 22.018 54.4777 21.469 54.2403C21.0499 54.0716 20.7954 53.9711 20.809 53.9239C20.8192 53.8848 21.0895 53.9038 21.5358 54.0084C21.8023 54.0832 22.0645 54.172 22.3213 54.2745C22.6121 54.3904 22.9421 54.1765 22.93 53.8637C22.8656 53.0096 22.8899 52.1514 23.0026 51.3024C23.0368 51.1412 23.0658 50.9942 23.0927 50.8637C23.1282 50.738 23.1687 50.6292 23.1988 50.542C23.2616 50.3694 23.3112 50.2777 23.3373 50.2852C23.3634 50.2928 23.3682 50.3976 23.3501 50.5782C23.3412 50.6662 23.3295 50.7745 23.3149 50.9042C23.3002 51.0339 23.2948 51.1754 23.2841 51.3343C23.2554 52.1717 23.2714 53.0101 23.3313 53.8458C23.3475 54.2059 23.3521 54.5545 23.3522 54.8852L23.3522 54.8896C23.3534 55.0367 23.1929 55.1283 23.0669 55.0524Z" fill="#FF8E0A"/>
<path d="M17.8286 54.4573C17.8954 54.4973 17.9822 54.4771 18.0253 54.4123C18.09 54.3125 18.1545 54.2098 18.2169 54.1078C18.2577 54.0408 18.2394 53.9525 18.1745 53.9084C17.8099 53.6646 17.4489 53.4143 17.092 53.1675L16.4261 52.7102C16.366 52.6734 16.3303 52.6066 16.3328 52.536C16.3363 52.4535 16.3792 52.3778 16.4477 52.3325C16.4807 52.3129 16.505 52.2808 16.5147 52.2437C16.5267 52.2077 16.549 52.1759 16.5789 52.1529C17.3275 51.5355 18.0385 50.8583 18.7255 50.2033C19.5858 49.3517 20.4947 48.5501 21.4469 47.8029C21.4723 47.783 21.504 47.7729 21.5362 47.7743C21.5853 47.7764 21.6317 47.7517 21.6575 47.7099L21.66 47.7058C21.6734 47.6838 21.7143 47.6762 21.7352 47.6914C21.7539 47.7051 21.7716 47.7202 21.7882 47.7366L21.8208 47.7647C21.8325 47.7748 21.8451 47.7838 21.8583 47.7918C21.8695 47.7984 21.881 47.8042 21.893 47.8091C21.9352 47.826 21.9771 47.8414 22.0185 47.8567C22.1151 47.8897 22.2088 47.9313 22.2978 47.9806C22.3623 48.0192 22.4463 48.0021 22.4918 47.9422C22.6032 47.7927 22.7169 47.644 22.8476 47.4718L22.8873 47.4186C22.9346 47.3551 22.9235 47.2656 22.8621 47.2156C22.6586 47.0504 22.4588 46.8786 22.2625 46.7066L22.2607 46.705C22.2114 46.662 22.1397 46.6567 22.0846 46.692C21.9298 46.7906 21.7765 46.8924 21.6234 46.9943C20.7854 47.5505 19.9928 48.0756 19.0033 48.1635C18.8571 48.1741 18.7856 48.09 18.6606 47.9237C18.6276 47.8801 18.5942 47.8362 18.5593 47.7951C18.2309 47.4091 17.9392 47.0094 17.6729 46.6352C17.6256 46.5691 17.5336 46.5539 17.4675 46.6013L17.0653 46.8901C16.9906 46.9437 16.9822 47.0516 17.0477 47.1161C17.2632 47.3389 17.4645 47.5743 17.6516 47.821C17.8842 48.1343 18.1442 48.4261 18.4288 48.6925C18.4849 48.744 18.5304 48.8133 18.5418 48.8886C18.5514 48.9522 18.5319 49.0191 18.484 49.0678C18.1415 49.4359 17.8063 49.8097 17.4707 50.1836C17.223 50.4602 16.9749 50.7371 16.7237 51.0112C16.6639 51.0763 16.6032 51.1471 16.5397 51.2203C16.3055 51.553 15.9855 51.8158 15.6144 51.9809C14.8151 52.209 14.1735 51.7504 13.4928 51.2646C13.329 51.1477 13.1668 51.0315 13.0027 50.9265C12.9446 50.8892 12.8684 50.8974 12.8195 50.9462C12.7287 51.0371 12.6354 51.1265 12.5422 51.2159L12.4509 51.3036C12.376 51.3756 12.3971 51.5004 12.4915 51.5437C14.3209 52.4186 16.1027 53.3912 17.8286 54.4573Z" fill="#FF8E0A"/>
<path d="M23.3238 39.751C23.3093 39.7651 23.3055 39.7862 23.3103 39.8058C23.3198 39.844 23.3229 39.8834 23.3197 39.9224C23.2943 40.2854 23.3435 40.6406 23.4143 40.9939C23.5623 41.7331 24.2248 42.2956 24.9776 42.3371C25.3722 42.3589 25.7666 42.3823 26.1614 42.4037C26.5305 42.4236 26.8871 42.2671 27.1255 41.9845C27.6823 41.3244 27.3622 40.3185 26.5147 40.1525C25.4748 39.9488 24.4228 39.8099 23.3647 39.7365C23.3496 39.7354 23.3347 39.7405 23.3238 39.751Z" fill="#FF8E0A"/>
<path d="M45.207 68.0917C46.006 68.4916 46.9506 68.0619 47.1598 67.1933C47.4289 66.0763 47.6345 64.9313 47.9168 63.8387C48.0803 63.2032 47.7494 62.5353 47.1652 62.2365C46.394 61.8422 45.6279 61.441 44.7472 61.4522C44.7357 61.4525 44.7242 61.4522 44.7129 61.4515C44.6577 61.4476 44.6016 61.445 44.5463 61.448C44.2628 61.4653 43.9801 61.4878 43.6981 61.5149C43.1266 61.5699 42.9739 62.2386 43.5145 62.432C43.612 62.4622 43.6874 62.5337 43.7255 62.623C43.7676 62.7219 43.7936 62.8334 43.8029 62.9405C43.8742 64.0836 43.8875 65.2295 43.8427 66.3736C43.8197 66.9584 44.1105 67.5174 44.6271 67.7923C44.8191 67.8946 45.0124 67.9943 45.207 68.0917ZM44.4795 65.5224C44.4798 65.4938 44.4804 65.4651 44.4814 65.4365C44.5035 64.7742 44.7506 64.7847 44.7544 65.4474C44.7546 65.4752 44.7547 65.5034 44.7549 65.5321C44.7568 65.7257 44.7685 65.9192 44.7903 66.1118C44.8005 66.2118 44.8212 66.3103 44.8528 66.4058C44.8559 66.4158 44.8593 66.4256 44.8631 66.4354C44.8824 66.486 44.8982 66.5593 44.9513 66.5699C44.9631 66.5726 44.9654 66.5796 44.99 66.5942C45.1984 66.7082 45.4188 66.7989 45.6464 66.8655C45.8261 66.9245 46.0016 66.9948 46.1721 67.0761C46.2033 67.091 46.2426 67.0776 46.2547 67.0452C46.374 66.781 46.4513 66.5012 46.5398 66.2388C46.6116 65.9684 46.6909 65.7107 46.746 65.4561C46.8706 64.9538 46.9706 64.4935 47.0711 64.1098C47.2725 63.3372 47.4788 62.8844 47.5279 62.8995C47.5842 62.92 47.4783 63.3939 47.349 64.1681C47.2841 64.5574 47.2134 65.0205 47.1067 65.5375C47.062 65.7959 46.9888 66.0659 46.9189 66.3459C46.8382 66.6362 46.7408 66.9212 46.6268 67.1999C46.5856 67.2967 46.5472 67.3911 46.507 67.488C46.4583 67.6061 46.3098 67.6443 46.2102 67.5642L46.1995 67.5556C45.9882 67.4159 45.7583 67.3064 45.5169 67.2304C45.2578 67.1477 45.0099 67.0328 44.779 66.8889C44.7424 66.8631 44.7087 66.8336 44.6786 66.8007C44.6553 66.7763 44.6345 66.7495 44.6162 66.7207C44.5741 66.6551 44.5431 66.5828 44.5237 66.5072C44.4912 66.3878 44.472 66.2647 44.4669 66.1413C44.4583 65.9349 44.4623 65.728 44.4795 65.5224Z" fill="#FF8E0A"/>
<path d="M42.3161 66.5471C42.3074 66.6078 42.337 66.6677 42.3905 66.6977L42.392 66.6986C42.5543 66.7899 42.7152 66.8821 42.8764 66.9751C43.039 67.068 43.2422 66.9551 43.2492 66.768L43.265 66.3448C43.3327 65.2388 43.3275 64.1294 43.2499 63.0242C43.2448 62.9689 43.2088 62.9211 43.1572 62.9007C42.4685 62.6153 41.8403 62.2016 41.3057 61.6813C41.2678 61.6503 41.2453 61.6045 41.2446 61.5556C41.2404 61.5236 41.2302 61.4926 41.2246 61.4607C41.2209 61.4394 41.2204 61.4176 41.2232 61.3962C41.2289 61.3515 41.2522 61.3085 41.2907 61.2852C41.3118 61.2724 41.3359 61.2646 41.3611 61.2629C42.4363 61.0827 43.4163 60.9638 44.3579 60.8989C44.4265 60.8942 44.4825 60.8412 44.4918 60.7731C44.5681 60.3249 44.69 59.8855 44.8558 59.4621L44.956 59.1736C45.1155 58.6453 45.2176 58.1019 45.2603 57.5518C45.2853 57.3289 45.3089 57.1049 45.3444 56.8815C45.3535 56.8212 45.3247 56.7613 45.2719 56.731C44.7527 56.3975 44.2814 55.9955 43.8698 55.535C43.4367 55.0495 42.9368 54.6283 42.3855 54.284C42.3089 54.2407 42.2116 54.2743 42.1781 54.3557L41.859 55.1322C41.8396 55.1792 41.8456 55.2328 41.8749 55.2743C42.2856 55.7741 42.791 56.1877 43.3616 56.4914C43.6594 56.668 43.9463 56.8634 44.2194 57.0768C44.2451 57.0925 44.2741 57.1023 44.3 57.1175C44.3275 57.1337 44.3499 57.158 44.3638 57.1877C44.3843 57.231 44.3843 57.2816 44.3641 57.3251C44.2437 57.6746 44.1479 58.032 44.078 58.3953C43.8678 59.3673 43.6871 60.2065 42.5451 60.4312C41.751 60.5502 40.9399 60.4851 40.1745 60.2413C40.0977 60.2213 40.0189 60.2657 39.9963 60.3416L39.9458 60.5109C39.8855 60.7138 39.8241 60.9174 39.7673 61.1256C39.7248 61.2821 39.6823 61.4355 39.6399 61.5909L39.6161 61.6764C39.5985 61.7395 39.625 61.8067 39.6808 61.8409C40.4877 62.3367 41.3331 62.8987 42.2663 63.5591C42.3008 63.5827 42.3278 63.6163 42.3431 63.6556L42.3433 63.6563C42.3525 63.6795 42.3674 63.7002 42.3866 63.7162C42.4303 63.754 42.4536 63.8104 42.4496 63.8683C42.4462 64.0316 42.4463 64.1943 42.4453 64.3569C42.4611 65.0891 42.4181 65.8215 42.3161 66.5471Z" fill="#FF8E0A"/>
<path d="M41.8929 64.5696C41.8951 64.1981 41.7081 63.8525 41.4024 63.6413C41.2351 63.5256 41.0672 63.411 40.8987 63.2975C40.2294 62.8466 39.3274 63.1914 39.0333 63.9429C38.8316 64.458 38.9678 65.058 39.4668 65.2967C39.7205 65.4181 39.9898 65.5252 40.2632 65.6271C41.0218 65.9095 41.8882 65.379 41.8929 64.5696Z" fill="#FF8E0A"/>
<path d="M49.64 51.5317C50.3909 51.9754 51.3834 51.6304 51.6718 50.8073C51.871 50.2389 52.0448 49.6644 52.1448 49.0757C52.2349 48.5457 51.8561 48.0774 51.342 47.9198C50.462 47.6499 49.3815 48.3757 49.1878 49.2756C49.1405 49.4958 49.0855 49.7149 49.0259 49.9324C48.8572 50.5474 49.0909 51.2072 49.64 51.5317Z" fill="#FF8E0A"/>
<path d="M18.7726 56.1856C18.7114 56.2762 18.7379 56.4014 18.8334 56.4548C20.1487 57.1894 21.447 57.9609 22.7429 58.7195C22.9811 58.859 23.216 59.0081 23.4497 59.1622C23.9029 59.4612 24.4689 59.1392 24.3997 58.6007C24.3686 58.3582 24.2107 58.149 23.9811 58.0652C22.3233 57.4598 20.4751 57.1821 19.0457 56.1374C18.958 56.0733 18.8334 56.0956 18.7726 56.1856Z" fill="#FF8E0A"/>
<path d="M26.1865 58.1581C26.9665 58.445 27.7795 58.6314 28.6062 58.7127C28.6684 58.7197 28.7282 58.6867 28.7555 58.6304L28.8484 58.4388C28.9747 58.1783 28.8086 57.8705 28.5214 57.8332C28.0193 57.7805 27.5208 57.697 27.0287 57.5834L26.9744 57.5696C26.8421 57.5524 26.7153 57.5092 26.601 57.4427C26.5001 57.3839 26.4183 57.2961 26.3669 57.1912C26.1956 56.842 26.2115 56.3806 26.2279 55.9331C26.235 55.7266 26.2423 55.5314 26.2311 55.3475C26.2032 54.8725 26.1739 54.3983 26.1433 53.9244C26.0766 52.8945 26.0075 51.8299 25.9738 50.7818C25.9728 50.7471 25.9592 50.7137 25.9359 50.6879C25.8989 50.6506 25.8782 50.6003 25.8793 50.5476C25.8858 50.5027 25.9115 50.4632 25.9495 50.4387C26.5787 49.9372 27.4449 49.8759 28.2826 49.8162C28.5807 49.795 28.8886 49.7727 29.1702 49.7326C29.2141 49.7232 29.2559 49.7049 29.3 49.6963C29.3449 49.6876 29.3919 49.6922 29.4351 49.7104C29.4825 49.7359 29.5155 49.7827 29.5235 49.8362C29.7021 50.451 30.0328 51.0109 30.4845 51.4635C30.5874 51.5837 30.6898 51.7063 30.7905 51.8311C30.9965 52.1088 31.173 52.4072 31.317 52.7216C31.3704 52.8284 31.4246 52.936 31.4825 53.0455C31.4977 53.0725 31.5129 53.0967 31.5278 53.1213L31.5536 53.1642C31.6091 53.2569 31.7423 53.2599 31.802 53.1699C31.9684 52.9165 32.1372 52.6653 32.3087 52.4145C32.3854 52.3005 32.4641 52.187 32.555 52.0567C32.5983 51.9942 32.587 51.909 32.5291 51.8598C30.7526 50.3469 30.0803 48.9495 30.5339 47.7064C30.8082 46.9479 31.7467 46.6563 32.501 46.4223C32.6011 46.3914 32.6983 46.3608 32.7907 46.3307C34.4841 45.779 35.5768 44.6693 35.8689 43.1975C35.8718 43.1825 35.8727 43.167 35.8716 43.1517C35.8666 43.0815 35.8199 43.0211 35.7532 42.9984L35.7398 42.9938C35.5896 42.9443 35.439 42.8951 35.2885 42.8431C35.2069 42.8152 35.1183 42.8634 35.0983 42.9474C34.9116 43.8879 34.4481 44.7517 33.7687 45.4264C33.2401 45.8876 32.4165 45.8085 31.6875 45.7394C31.4879 45.7201 31.2961 45.702 31.1166 45.6948C31.0435 45.6954 30.9789 45.6541 30.9475 45.5919C30.9297 45.5567 30.9214 45.5173 30.9054 45.4813C30.8307 45.3033 30.7674 45.1179 30.702 44.9314C30.5764 44.524 30.405 44.1318 30.1907 43.7637C29.7161 43.0183 29.094 43.0323 28.4358 43.0456C28.2964 43.0483 28.1549 43.0527 28.0044 43.0471C27.7038 43.0383 27.4058 43.025 27.1077 43.0114C27.0623 43.0105 27.0187 43.0302 26.9893 43.0648C26.9089 43.1594 26.8284 43.2554 26.7505 43.3507L26.6363 43.4873C26.5605 43.578 26.6159 43.7167 26.7334 43.7302C27.4191 43.8082 28.2314 43.8923 29.055 43.9222C29.0718 43.9226 29.0882 43.9254 29.1038 43.9303C29.124 43.9362 29.1452 43.9378 29.1661 43.9348L29.1664 43.9347C29.2122 43.9241 29.261 43.9332 29.3 43.96C29.339 43.9868 29.3647 44.0288 29.3714 44.0757C29.5589 44.8867 29.8165 45.6795 30.1415 46.4452L30.266 46.7635C30.2913 46.828 30.3362 46.8943 30.3169 46.9608C30.3071 46.9951 30.2838 47.0234 30.2526 47.0392L30.2412 47.0459C30.2146 47.0616 30.1957 47.0876 30.1891 47.1178C30.1869 47.1275 30.1836 47.1368 30.1789 47.1456C30.0358 47.4159 29.8633 47.6695 29.6645 47.9014C29.5 48.1 29.3492 48.3098 29.2133 48.529C29.1913 48.5772 29.1492 48.6108 29.1008 48.623C29.0467 48.6368 28.989 48.6248 28.9332 48.6285C28.2836 48.7175 27.6423 48.8601 27.0157 49.0535C26.6416 49.1581 26.2553 49.2663 25.8722 49.3486C25.7972 49.3681 25.7176 49.3408 25.6709 49.2787C25.6427 49.2434 25.6092 49.2126 25.5717 49.1873L25.1256 48.8871C24.5669 48.4938 23.9897 48.087 23.4377 47.6659C23.4275 47.6582 23.4165 47.6516 23.4049 47.6464C23.3356 47.6152 23.254 47.635 23.2067 47.6944L23.1976 47.7058C23.0767 47.8606 22.9559 48.0099 22.8351 48.1634C22.7851 48.2276 22.7965 48.3202 22.8605 48.3705C23.022 48.4986 23.1785 48.6326 23.335 48.7669C23.7738 49.1823 24.2732 49.5273 24.816 49.7909C24.8483 49.8042 24.8769 49.8256 24.8991 49.8531C24.9171 49.8755 24.9415 49.8921 24.9688 49.9009C25.003 49.9104 25.0312 49.9335 25.0484 49.9648C25.0818 50.0261 25.0548 50.1015 25.048 50.171C24.9163 51.5058 24.9042 52.85 25.0113 54.1873C25.0485 54.9386 25.0875 55.7149 25.081 56.4747C25.0802 56.4993 25.0758 56.5234 25.0683 56.5468C25.0627 56.5622 25.0604 56.5786 25.0616 56.595L25.0617 56.5966C25.0681 56.6554 25.0494 56.7144 25.0096 56.7581C24.9729 56.7908 24.9232 56.8055 24.8747 56.7971C22.5416 56.5855 20.4809 55.4183 18.7729 54.3042C18.704 54.2594 18.6111 54.2802 18.5667 54.3494C18.2172 54.9053 17.9158 55.3551 17.619 55.7652C17.5667 55.8375 17.5898 55.9393 17.6683 55.9818L17.7916 56.0485C17.8467 56.0796 17.9024 56.1106 17.9599 56.141C18.0229 56.1741 18.1007 56.1573 18.1442 56.1009C18.2788 55.9259 18.3993 55.7405 18.5039 55.5459C18.5231 55.5126 18.5531 55.4872 18.5891 55.4739C18.6149 55.4632 18.6371 55.4453 18.653 55.4223L18.6535 55.4215C18.6951 55.3616 18.7593 55.3218 18.8312 55.3117C18.892 55.3042 18.9525 55.3255 18.9949 55.3696C20.0113 56.3105 21.3753 56.6992 22.6941 57.0757C23.3986 57.2588 24.0899 57.4893 24.763 57.767C24.8646 57.8127 24.9211 57.9235 24.8985 58.033L24.8985 58.0333C24.8968 58.0459 24.8966 58.0586 24.8977 58.0712C24.919 58.2744 24.9449 58.4766 24.9707 58.6792C25.0534 59.1971 25.0897 59.7214 25.079 60.2461C25.0786 60.2633 25.0758 60.2805 25.0706 60.2969C25.0534 60.3597 25.0792 60.4271 25.1344 60.4616C25.3175 60.5768 25.5025 60.6868 25.6905 60.7881C25.7849 60.8398 25.9011 60.7753 25.9081 60.6679C25.9434 60.1177 25.951 59.5568 25.9577 59.0162L25.9682 58.5148C25.9686 58.4967 25.9673 58.4786 25.9644 58.4608C25.962 58.446 25.9581 58.4315 25.9547 58.4169C25.9352 58.3335 25.9582 58.2449 26.0169 58.1815C26.063 58.1386 26.1307 58.1295 26.1865 58.1581Z" fill="#FF8E0A"/>
<path d="M38.1667 59.6388C38.0612 59.6089 37.9611 59.7005 37.9816 59.8082L37.9821 59.8106C38.0564 60.1569 38.1019 60.5092 38.1172 60.8633C38.1187 60.9165 38.1484 60.9651 38.1951 60.9904C38.4822 61.1433 38.7674 61.3007 39.0479 61.4633C39.1308 61.5115 39.2368 61.4685 39.2627 61.3762L39.4015 60.8815C39.4625 60.6628 39.5238 60.4435 39.5861 60.2252C39.6083 60.1476 39.5643 60.0663 39.487 60.0428C39.3078 59.9888 39.1301 59.9335 38.9544 59.8785C38.6855 59.7927 38.4236 59.7106 38.1667 59.6388Z" fill="#FF8E0A"/>
<path d="M12.3201 53.3521C12.119 53.3243 11.8846 53.2836 11.6292 53.2568C11.5673 53.2509 11.5033 53.2471 11.4393 53.2429C11.4185 53.2416 11.3974 53.2411 11.3769 53.2412C11.3 53.2413 11.2234 53.251 11.1473 53.2622C11.1128 53.2672 11.0786 53.2726 11.0471 53.2793C10.9875 53.2999 10.9288 53.3127 10.8656 53.3353C10.6226 53.4267 10.6421 53.7722 10.8889 53.8528C12.7949 54.4748 14.7491 54.9362 16.6628 55.5387C16.8683 55.6033 17.0933 55.5329 17.2186 55.3577C17.3841 55.1264 17.3147 54.8052 17.0718 54.6572C15.4371 53.6615 13.7489 52.7556 12.0159 51.9434C12.0139 51.9424 12.012 51.9412 12.0102 51.9399C12.001 51.9328 11.9882 51.9347 11.9796 51.9426C11.6476 52.2427 11.3087 52.5329 10.9562 52.8151C10.9233 52.8415 10.9501 52.8958 10.991 52.8853C11.0697 52.8701 11.1409 52.8646 11.2125 52.8566C11.3699 52.85 11.5275 52.8611 11.6824 52.89C11.9199 52.9371 12.1546 52.9993 12.3844 53.0765C12.771 53.2086 12.9992 53.3111 12.9907 53.3647C12.9826 53.4183 12.7201 53.4117 12.3201 53.3521Z" fill="#FF8E0A"/>
<path d="M35.6346 55.7613C35.6466 55.7143 35.6491 55.6643 35.6676 55.6194C35.678 55.5941 35.6936 55.5711 35.7137 55.552C35.752 55.5155 35.8028 55.4962 35.8549 55.498C36.9405 55.474 38.0231 55.3766 39.0957 55.2061C39.8506 55.1039 40.6294 54.9966 41.4022 54.9467C41.4571 54.9431 41.5054 54.9091 41.5273 54.8587C41.559 54.7859 41.5885 54.7127 41.6276 54.6173C41.6744 54.5086 41.7197 54.4 41.7651 54.2909L41.8574 54.0702C41.8656 54.0505 41.8715 54.0299 41.8749 54.0088L41.8773 53.9941C41.8803 53.9757 41.8804 53.9569 41.8775 53.9384L41.8742 53.9167C41.8627 53.8417 41.7979 53.7866 41.7221 53.7873C41.4773 53.7906 41.2335 53.809 40.9909 53.8425C38.0709 54.2497 35.6746 54.1956 33.4827 52.6079C33.3527 52.5134 33.2165 52.4115 33.0742 52.3017C33.0075 52.2502 32.911 52.2656 32.8634 52.3352C32.5788 52.7519 32.299 53.1691 32.0242 53.5871C31.9842 53.6479 31.9942 53.7291 32.0482 53.778C32.6994 54.3654 33.5424 54.4713 34.4346 54.5831C34.5886 54.6025 34.7444 54.6219 34.9039 54.6446C34.9731 54.654 35.0318 54.6929 35.0682 54.7474C35.122 54.8279 35.1329 54.9477 35.0688 55.0201C35.0512 55.04 35.0286 55.0558 35.0023 55.0654C34.9489 55.077 34.9062 55.1175 34.8922 55.1703C34.7191 55.894 34.6217 56.634 34.6008 57.3777C34.575 57.7935 34.5481 58.2237 34.4927 58.6439C34.491 58.6674 34.486 58.6903 34.4781 58.712C34.4493 58.7912 34.3726 58.8482 34.2887 58.8562C34.2606 58.8589 34.2321 58.8571 34.2041 58.8508C33.3052 58.7044 32.3964 58.5276 31.5169 58.357C30.8941 58.2361 30.2713 58.1148 29.6475 58.003C29.5825 57.9914 29.5178 58.0245 29.4891 58.084L29.2524 58.574C29.2071 58.6677 29.27 58.7776 29.3737 58.786C29.6803 58.8107 29.9876 58.8312 30.2946 58.8514C31.5349 58.8823 32.766 59.0652 33.9614 59.3969C33.9768 59.4022 33.9914 59.4088 34.0053 59.4167C34.0172 59.4236 34.029 59.4307 34.0414 59.4366C34.0585 59.4446 34.0767 59.4502 34.0944 59.4568C34.1381 59.4731 34.1755 59.5037 34.2003 59.5442C34.2297 59.593 34.2383 59.6515 34.2238 59.7067C34.0597 60.4566 33.9781 61.2226 33.9799 61.9903C33.9732 62.6089 33.9207 63.2262 33.8228 63.8372C33.8086 63.913 33.8554 63.9871 33.9299 64.0067C34.2364 64.0873 34.5457 64.1609 34.8577 64.2275L34.8715 64.2306C34.9546 64.2492 35.034 64.1871 35.0357 64.1019C35.0359 64.093 35.037 64.0842 35.0389 64.0756C35.3543 62.6444 35.4703 61.1766 35.3844 59.7137C35.3179 58.3909 35.4018 57.0649 35.6346 55.7613Z" fill="#FF8E0A"/>
<path d="M48.5105 46.7387C48.507 46.7274 48.5013 46.7161 48.4906 46.7112C48.3086 46.6288 48.1284 46.5473 47.951 46.4694C47.9441 46.4658 47.9358 46.4696 47.9345 46.4773C47.7171 47.7334 48.0027 49.804 46.8838 50.6085C46.4789 50.9004 46.0235 50.6593 45.594 50.5386C45.2124 50.4318 44.8279 50.3401 44.4428 50.2523C44.1951 50.1958 43.9437 50.3306 43.8524 50.5677C43.7319 50.8804 43.9356 51.2251 44.2645 51.2892C45.2791 51.487 46.2606 51.8317 47.1783 52.3135C48.0492 52.799 48.7611 53.5097 49.5575 54.094C49.9641 54.3924 50.5112 54.1581 50.6582 53.6757C50.766 53.3219 50.6231 52.9393 50.304 52.7522C49.5646 52.3187 48.8205 51.8926 48.0988 51.4302C47.9609 51.3451 47.8972 51.1775 47.9435 51.0218C48.3852 49.6636 48.9101 48.1665 48.5105 46.7387Z" fill="#FF8E0A"/>
<path d="M36.6215 47.3187C37.3261 47.0436 37.9254 46.5513 38.3334 45.9127C38.6303 45.448 38.8148 44.9233 38.8759 44.3802C38.9147 44.0361 38.6207 43.765 38.2744 43.763C37.9879 43.7614 37.7344 43.9441 37.6387 44.2143C37.2954 45.1836 36.8808 46.1263 36.3982 47.0341C36.3125 47.1953 36.4494 47.3797 36.6215 47.3187Z" fill="#FF8E0A"/>
<path d="M29.5204 40.3114C29.8465 40.4082 30.1735 40.5081 30.498 40.6144C31.374 40.9005 32.2613 41.2483 33.1188 41.585C34.4718 42.1527 35.8631 42.6245 37.2821 42.9962C37.3586 43.0144 37.4361 42.968 37.4573 42.8923C37.4785 42.8141 37.4973 42.7358 37.5158 42.6574L37.5496 42.519C37.5701 42.4356 37.5157 42.3522 37.4311 42.3373C37.4021 42.3322 37.3743 42.3221 37.3494 42.3065C36.2742 41.6842 35.1042 41.2433 33.8865 41.0017C32.5172 40.6515 31.224 40.3208 30.1361 39.4548C30.0721 39.4043 29.9791 39.4157 29.9286 39.4796C29.8272 39.6067 29.7244 39.7335 29.622 39.8596L29.4467 40.0785C29.3812 40.1602 29.4198 40.2822 29.5204 40.3114Z" fill="#FF8E0A"/>
<path d="M38.955 43.1995C41.1285 43.2078 43.3759 43.2173 45.4277 43.9883C45.5068 44.0182 45.5947 43.9752 45.6197 43.8944L45.8111 43.2756C45.839 43.1855 45.776 43.0928 45.6819 43.0854C44.7693 42.996 43.8625 42.8543 42.9663 42.6609C41.3923 42.3525 39.7638 42.0316 38.1229 42.3068C38.0646 42.3166 38.0177 42.3609 38.004 42.4185C37.9574 42.6185 37.9113 42.8143 37.8599 43.0096C37.8353 43.1027 37.9044 43.1943 38.0006 43.1963C38.3175 43.1966 38.635 43.1998 38.955 43.1995Z" fill="#FF8E0A"/>
<path d="M50.0037 56.06C50.1166 55.6229 49.9106 55.1668 49.5392 54.9102C48.6112 54.269 47.8291 53.4327 46.807 52.9223C45.8846 52.4686 44.9055 52.145 43.897 51.959C43.5702 51.8988 43.2528 52.0867 43.1295 52.3953C42.9533 52.8362 43.2431 53.3249 43.6944 53.472C43.8518 53.5234 44.0068 53.5826 44.1587 53.6495C45.2346 54.1021 46.2511 54.6842 47.1868 55.3833C47.6457 55.7389 48.0757 56.1285 48.5052 56.5188C49.0236 56.99 49.8285 56.7382 50.0037 56.06Z" fill="#FF8E0A"/>
<path d="M44.4123 49.1134C44.3401 49.3061 44.4565 49.5192 44.6572 49.5648C45.0475 49.6516 46.4033 50.2826 46.6637 49.759C47.126 48.8353 47.0551 47.7455 47.1807 46.7192C47.2225 46.3783 47.0617 46.0382 46.7732 45.8518C46.3043 45.5487 45.6234 45.7164 45.4423 46.2447C45.113 47.2056 44.7686 48.1618 44.4123 49.1134Z" fill="#FF8E0A"/>
<path d="M26.8443 61.7554C25.8671 61.3878 24.947 60.8826 24.1114 60.2554C23.6885 59.9683 23.251 59.6714 22.8017 59.4083C22.4205 59.186 22.0393 58.9626 21.6582 58.7382C20.2853 57.9325 18.8659 57.0992 17.4424 56.3347C17.4096 56.3171 17.3712 56.3126 17.3352 56.3223C17.3172 56.3272 17.2986 56.3289 17.2801 56.3274C17.2312 56.3238 17.1835 56.3445 17.1529 56.3828C17.0497 56.512 16.942 56.6394 16.835 56.7668L16.8097 56.7965C16.7588 56.8564 16.7639 56.9458 16.8213 56.9995C19.5916 59.5919 23.0672 61.1545 26.3923 62.5326C26.4551 62.5585 26.5274 62.5381 26.5674 62.4833C26.6885 62.3175 26.8097 62.1493 26.9236 61.9792C26.9779 61.8975 26.9376 61.7859 26.8443 61.7554Z" fill="#FF8E0A"/>
<path d="M26.8098 61.1418C27.0376 61.2227 27.2868 61.1226 27.4078 60.9133C27.5679 60.6363 27.7217 60.3559 27.8711 60.0729C28.0846 59.6683 27.8185 59.1796 27.3705 59.0867C26.9421 58.9978 26.5214 59.3078 26.5111 59.7451C26.5044 60.034 26.4943 60.323 26.4766 60.6121C26.4624 60.8438 26.591 61.0642 26.8098 61.1418Z" fill="#FF8E0A"/>
<path d="M16.5792 56.1065C15.6495 55.8115 14.6954 55.5466 13.7728 55.2912C12.2168 54.8882 10.6824 54.4056 9.17561 53.8463C9.09356 53.8186 9.03414 53.7464 9.02265 53.66C9.01637 53.5756 9.05902 53.4953 9.13204 53.4529C10.9925 52.2264 12.6608 50.7287 14.0824 49.0094C14.6818 48.2789 15.354 47.612 16.0881 47.0188C16.2578 46.8885 16.4344 46.7671 16.6167 46.655C16.9905 46.4633 17.3074 46.1765 17.5361 45.8233C17.556 45.7857 17.5588 45.7414 17.5439 45.7015C17.5356 45.6799 17.5315 45.657 17.532 45.6338C17.5324 44.4765 18.4927 43.5651 19.3933 42.8001C20.123 42.1805 20.7897 41.4939 21.4345 40.8296C21.9161 40.3346 22.4145 39.8201 22.9342 39.3396C22.9476 39.3273 22.9596 39.3136 22.97 39.2988C22.9864 39.2755 22.9971 39.2486 23.012 39.2244C23.0453 39.1705 23.1095 39.1406 23.1746 39.1529C25.0725 39.2629 26.9527 39.5796 28.7826 40.0968C28.8379 40.1119 28.8974 40.0928 28.9342 40.0487C29.0588 39.8981 29.1835 39.7455 29.3058 39.592C29.3816 39.4977 29.3176 39.357 29.1967 39.3526C27.0932 39.3253 25.006 38.9752 23.008 38.3149C22.9496 38.2941 22.8841 38.3127 22.8449 38.3607C22.5487 38.7237 21.8228 39.4509 20.9833 40.2935C17.6846 43.6019 16.2829 45.1589 16.6943 45.6433C16.7641 45.721 16.7669 45.8381 16.7011 45.9189C16.6537 45.9945 16.5622 46.0291 16.4773 46.0042L16.4386 45.9968C16.4147 45.9923 16.3902 45.9931 16.3667 45.9993C16.3574 46.0017 16.3477 46.0033 16.3382 46.0042C15.2113 46.1007 14.5383 46.8733 13.8873 47.6241L13.6595 47.8839C13.3616 48.2188 13.0601 48.5505 12.7587 48.8822C12.4286 49.245 12.0992 49.6077 11.7737 49.9743C10.5649 51.346 9.35258 52.6554 7.81768 53.6032C7.72039 53.6632 7.72746 53.8072 7.82911 53.8595C10.2478 55.1157 12.9887 56.5389 16.2051 56.6563C16.2264 56.6578 16.247 56.6617 16.2675 56.6681L16.2696 56.6687C16.317 56.681 16.3675 56.6688 16.404 56.6362L16.4363 56.6004C16.4808 56.5507 16.5228 56.4992 16.5655 56.4478L16.6482 56.3501C16.7182 56.2674 16.6822 56.1402 16.5792 56.1065Z" fill="#FF8E0A"/>
<path d="M27.7637 62.0256C27.7422 62.0164 27.7228 62.0026 27.7068 61.9851C27.6797 61.9518 27.6393 61.932 27.5964 61.9311L27.5503 61.9302C27.4942 61.9232 27.439 61.9489 27.4082 61.9964C27.2993 62.1652 27.1854 62.335 27.0671 62.5008C27.0038 62.5887 27.0529 62.7126 27.1592 62.7332C28.1891 62.9769 29.1826 63.3543 30.1157 63.8552C30.6981 64.1366 31.3012 64.4272 31.9131 64.6515C33.6709 65.2994 35.5106 65.697 37.3786 65.8318C37.4328 65.8357 37.4848 65.8093 37.5138 65.7633C37.6188 65.5958 37.7169 65.4264 37.809 65.2579C37.8607 65.1634 37.7972 65.0462 37.6897 65.0397C34.5405 64.8363 31.4776 63.9095 27.7637 62.0256Z" fill="#FF8E0A"/>
<path d="M49.3758 58.4392C49.408 58.3268 49.3664 58.2052 49.2747 58.1327C48.7773 57.7397 48.2877 57.3198 47.7943 56.9013C47.4416 56.6022 46.9318 56.613 46.5198 56.8229C46.1536 57.0096 45.8743 57.3523 45.828 57.7608C45.7912 58.0848 45.7399 58.4071 45.6741 58.7267C45.6589 58.8005 45.6373 58.8728 45.6112 58.9436C45.6011 58.971 45.591 58.9984 45.581 59.0259C45.2586 59.9148 45.9202 60.8699 46.7739 61.2764C46.8004 61.289 46.8269 61.3017 46.8534 61.3145C47.6715 61.7102 48.5929 61.2734 48.833 60.3968C49.0119 59.7436 49.1929 59.0911 49.3758 58.4392Z" fill="#FF8E0A"/>
<path d="M43.9698 55.1066C44.4641 55.6572 45.0457 56.1214 45.6913 56.4812C45.6968 56.4842 45.7018 56.4881 45.7063 56.4925C45.7185 56.5048 45.735 56.5118 45.7523 56.5122L45.7863 56.5129C45.8004 56.5132 45.8145 56.5114 45.828 56.5075C46.1403 56.4061 46.4328 56.251 46.692 56.0488C46.7728 55.9922 46.7762 55.8729 46.698 55.8128C45.6466 54.9215 44.4105 54.2761 43.0796 53.924C42.9252 53.8902 42.8338 54.0905 42.9596 54.186C43.3164 54.4704 43.6539 54.7774 43.9698 55.1066Z" fill="#FF8E0A"/>
<path d="M35.0287 48.2999C35.0932 48.1931 35.0041 48.0592 34.8807 48.078C34.569 48.1139 34.2689 48.2162 33.9994 48.3775C33.8525 48.4565 33.7418 48.5869 33.6869 48.7414C33.6584 48.8216 33.6537 48.9085 33.6668 48.9926C33.7031 49.2252 33.8272 49.4367 34.0162 49.5812C34.0828 49.6453 34.1912 49.6328 34.2415 49.5554C34.509 49.14 34.7744 48.7226 35.0287 48.2999Z" fill="#FF8E0A"/>
<path d="M38.557 63.1707C38.7908 62.5118 38.4989 61.7879 37.8818 61.4594C37.8296 61.4316 37.7773 61.404 37.7249 61.3766C37.6073 61.3231 37.5394 61.2016 37.5506 61.0773C37.5545 61.0332 37.5586 60.9886 37.556 60.9444C37.5302 60.4259 37.4527 59.911 37.3246 59.408C37.3029 59.2884 37.3409 59.1655 37.4257 59.0788C37.477 59.0263 37.5416 58.9909 37.6112 58.9755C37.7026 58.9551 37.8005 58.9579 37.8917 58.9793C37.993 59.0033 38.0943 59.0289 38.1956 59.0556C39.0079 59.2703 39.8465 58.8355 40.1264 58.0432C40.1464 57.9864 40.1666 57.9296 40.1869 57.8729C40.5734 56.7931 39.7388 55.6852 38.6017 55.8344C38.1925 55.8881 37.7831 55.9387 37.3726 55.9782C36.6605 56.0467 36.0428 56.5513 35.9791 57.2638C35.817 59.0764 36.0367 60.9143 35.8488 62.7242C35.7646 63.5355 36.2737 64.3409 37.0859 64.4175C37.6558 64.4713 38.1904 64.1413 38.3958 63.607C38.4514 63.4623 38.5051 63.3168 38.557 63.1707Z" fill="#FF8E0A"/>
<path d="M43.1914 49.2372C43.4198 49.2914 43.6511 49.1649 43.7329 48.9449C44.1884 47.7203 44.6234 46.4892 45.0318 45.2484C45.1637 44.8477 44.9546 44.4122 44.5495 44.2946C44.0696 44.1552 43.6161 44.5381 43.5753 45.0362C43.475 46.2621 43.1744 47.4702 42.8529 48.66C42.7842 48.9142 42.9352 49.1765 43.1914 49.2372Z" fill="#FF8E0A"/>
<path d="M53.4224 47.3435C52.7159 47.0557 51.9939 46.8094 51.2589 46.606C49.3681 46.0379 47.2255 45.3943 46.3372 43.8097C46.2739 43.6969 46.1063 43.7149 46.0685 43.8386L46.0537 43.887C46.015 44.012 45.9766 44.1373 45.937 44.2598C45.9216 44.3071 45.9313 44.3593 45.9624 44.3981C46.7362 45.3665 47.9254 45.8812 48.9789 46.2874C49.3596 46.4334 49.7431 46.6094 50.1142 46.7799C50.8832 47.1755 51.7017 47.4649 52.5481 47.6418C52.5732 47.6447 52.5972 47.6539 52.6183 47.668C52.6318 47.6771 52.6445 47.6875 52.6583 47.6963C52.6703 47.7039 52.683 47.7104 52.6953 47.7175C52.7573 47.7536 52.7967 47.8201 52.7971 47.8934C52.8384 49.2263 52.401 50.4205 51.9375 51.6848C51.845 51.9362 51.7525 52.1886 51.6642 52.4422C51.227 53.6923 50.8845 54.9943 50.5538 56.2554C50.3868 56.891 50.2201 57.5259 50.0434 58.1553C49.6001 59.7257 49.2401 61.0347 48.9101 62.2765C48.8988 62.3192 48.907 62.3648 48.9327 62.4007C48.9632 62.4484 48.9714 62.5062 48.9556 62.5607C48.9416 62.6271 48.9001 62.6849 48.8413 62.7188C48.8049 62.7382 48.7783 62.7719 48.7679 62.8118L48.67 63.1868C48.5985 63.4607 48.5265 63.7347 48.4567 64.0087C48.303 64.6116 48.169 65.2409 48.0396 65.8495C47.8242 66.9907 47.531 68.1159 47.1616 69.2171C47.1512 69.2501 47.1323 69.2796 47.1072 69.3029C47.0926 69.3165 47.0771 69.3291 47.0637 69.3438C47.0459 69.3636 47.0327 69.3872 47.016 69.4079C46.9987 69.4295 46.9758 69.446 46.9493 69.4555C46.9102 69.4697 46.8668 69.4667 46.8297 69.448C45.5056 68.895 44.2222 68.2469 42.9905 67.5096C42.497 67.2301 42.0026 66.9499 41.5009 66.6801C41.0685 66.462 40.6203 66.2765 40.1606 66.1249C39.5518 65.94 38.9709 65.6731 38.4332 65.3312C38.3613 65.2798 38.2603 65.3032 38.2186 65.3812C38.1734 65.4659 38.1233 65.5492 38.074 65.6318L38.0325 65.702C37.9936 65.7676 38.0101 65.8519 38.0708 65.8981C38.0903 65.9123 38.1072 65.93 38.121 65.9497C38.1276 65.9592 38.1346 65.9684 38.1429 65.9763L38.1772 66.0092C38.1782 66.0101 38.1796 66.0107 38.1809 66.0107C38.182 66.0107 38.1831 66.0111 38.184 66.0117C39.1185 66.6609 40.0949 67.2475 41.1066 67.7677C41.7883 68.1362 42.4932 68.5178 43.1606 68.9369C43.4059 69.0907 43.6515 69.2508 43.8989 69.4106C45.1864 70.2453 46.5177 71.1088 48.0481 71.3953C48.1345 71.4113 48.2157 71.3484 48.2222 71.2608C48.3456 69.949 48.5539 68.6466 48.8459 67.3619C48.9224 66.9869 48.9985 66.6136 49.07 66.2416C49.4794 64.1364 49.8922 62.0815 50.4457 60.0812C50.7469 58.9923 51.0831 57.8993 51.4082 56.8419C52.3302 53.8455 53.2831 50.7478 53.5083 47.4909L53.5084 47.4897C53.5128 47.4279 53.4786 47.3697 53.4224 47.3435Z" fill="#FF8E0A"/>
<path d="M34.9712 50.9576C34.5797 50.7579 34.0717 50.8268 33.8255 51.1909C33.6077 51.5131 33.6681 51.9547 33.9881 52.1756C34.5848 52.5877 35.227 52.9307 35.9025 53.1973C37.6035 53.7189 39.1055 53.5048 40.8357 53.2982C41.0723 53.2678 41.3098 53.2463 41.5479 53.2334C41.8546 53.2168 42.1316 53.0334 42.2476 52.749C42.4408 52.2754 42.1167 51.7499 41.6053 51.7428C41.56 51.7421 41.5146 51.7418 41.4691 51.7416C39.3562 51.7356 36.929 51.9037 34.9712 50.9576Z" fill="#FF8E0A"/>
<path d="M36.7631 43.4519C36.5719 43.4021 36.3775 43.5234 36.3243 43.7137C35.7791 45.6647 34.0946 46.4329 32.283 47.0864C30.2495 47.8186 30.8852 49.3328 32.1967 50.6791C32.5451 51.0367 33.1274 50.9574 33.4071 50.5438C33.6207 50.2279 33.5761 49.8162 33.3821 49.4879C32.9905 48.8255 32.9768 48.1277 33.9822 47.7685C34.1395 47.7193 34.299 47.6781 34.46 47.645C34.979 47.5384 35.471 47.2705 35.7196 46.8027C36.2186 45.8641 36.6459 44.8884 36.9975 43.8844C37.0622 43.6998 36.9525 43.5013 36.7631 43.4519Z" fill="#FF8E0A"/>
<path d="M41.6646 59.8804C42.5264 59.929 43.2577 59.7493 43.4524 58.7837C43.4935 58.5795 43.5295 58.3747 43.5687 58.1709C43.6576 57.7086 43.5107 57.2236 43.1157 56.9674C42.4195 56.5159 41.3503 56.7885 41.0646 57.5675C40.9628 57.845 40.8635 58.1233 40.7668 58.4025C40.5296 59.0882 40.9407 59.8325 41.6646 59.8804Z" fill="#FF8E0A"/>
<path d="M28.0695 61.5481C29.2306 62.1524 30.4288 62.6808 31.6565 63.1305C32.5161 63.4454 33.4045 62.8831 33.4378 61.9682C33.4462 61.735 33.4535 61.5017 33.4643 61.2686C33.5011 60.478 33.0295 59.7058 32.2467 59.5894C31.5385 59.484 30.8218 59.4364 30.1051 59.3895C29.4726 59.348 28.8767 59.6915 28.5836 60.2536C28.3686 60.6658 28.1447 61.0727 27.9055 61.473C27.9007 61.481 27.902 61.4911 27.9074 61.4988C27.9116 61.5045 27.9181 61.5084 27.9252 61.5088C27.9755 61.5114 28.0247 61.5247 28.0695 61.5481Z" fill="#FF8E0A"/>
<path d="M27.7566 53.6001C27.8753 54.4017 27.9434 55.2104 27.9601 56.0204C27.9614 56.0827 28.0047 56.1379 28.0662 56.1483C28.2242 56.1814 28.3795 56.2138 28.5317 56.2454C29.1986 56.3839 29.8708 56.0586 30.2075 55.4665C30.3841 55.1562 30.5651 54.8489 30.7502 54.5442C31.045 54.059 31.0672 53.4502 30.7692 52.9669C30.4584 52.4629 30.1286 51.9707 29.7804 51.4915C29.73 51.4325 29.6813 51.3721 29.6343 51.3105C29.2199 50.7664 28.6012 50.3217 27.9193 50.3742C27.7472 50.3874 27.5758 50.4054 27.4093 50.4322C26.8482 50.5227 26.5446 51.0685 26.5725 51.6361C26.6262 52.7258 26.7079 53.8135 26.7719 54.9033C26.8003 55.4211 26.5492 56.926 27.1977 57.0418C27.7995 57.1493 28.3995 57.2571 29.0025 57.3664C29.1134 57.3866 29.2251 57.3308 29.2722 57.2283C29.3751 57.0257 29.2508 56.7816 29.027 56.7425C28.6947 56.6844 28.3469 56.6184 27.9903 56.5441C27.9003 56.5257 27.8132 56.5073 27.7257 56.4886C27.631 56.4701 27.5629 56.3869 27.5636 56.2905L27.5636 56.2874C27.5759 55.247 27.5102 54.3067 27.4843 53.6225C27.4394 53.292 27.7431 53.2668 27.7566 53.6001Z" fill="#FF8E0A"/>
<path d="M34.111 56.4561C34.1974 55.7431 33.6964 55.1071 32.9972 54.9431C32.925 54.9261 32.8535 54.9078 32.7828 54.8878C32.1691 54.7139 31.4014 54.8327 31.077 55.382C30.9194 55.6489 30.765 55.9179 30.6141 56.1895C30.497 56.4004 30.6219 56.662 30.8593 56.7049C31.5538 56.8052 31.5199 57.0831 30.825 56.9853C30.7071 56.9768 30.5835 56.9653 30.4536 56.951C30.3124 56.9353 30.1752 57.0067 30.1114 57.1337C30.0111 57.3334 30.1324 57.5725 30.3524 57.6119C31.0317 57.7334 31.7116 57.8542 32.3918 57.9722C33.2286 58.1174 33.9943 57.4879 34.089 56.644C34.096 56.5813 34.1034 56.5187 34.111 56.4561Z" fill="#FF8E0A"/>
<path d="M58.0682 23.7586C59.6043 21.589 57.9182 19.4353 56.3626 17.6396C54.2345 15.1832 49.8245 13.2954 46.5741 14.0926M56.5783 29.4314C56.8662 32.1118 58.6213 34.3154 60.0721 36.2576M62.6172 39.0155C63.1968 39.4622 63.8977 40.8512 64.407 41.3611M41.796 34.8005C39.677 32.9322 36.977 30.9157 37.5291 27.8101M72.7488 51.0853C73.1536 50.9218 74.2044 50.2179 74.2312 49.6757C74.2597 49.0989 73.1303 47.858 72.7166 47.656M48.5612 15.7029C50.4117 15.775 51.9823 16.4018 53.3807 17.6296M56.7745 27.5004C57.0004 27.0021 57.161 26.4904 57.4033 25.9941" stroke="#FDFEFF" stroke-width="0.722771" stroke-linecap="round"/>
<path d="M55.4623 13.8639C52.9833 12.4688 51.3399 11.5963 48.5465 11.578C45.7482 11.5598 43.2317 11.8278 40.8075 13.2357C38.559 14.5415 36.8526 15.9203 35.5803 18.1892C35.0841 19.0743 34.4329 20.1436 34.0706 21.0926C33.0009 23.8953 33.3115 25.061 33.4322 26.6575C33.5047 27.6159 33.9456 29.2511 34.2673 30.1546C34.6329 31.1832 35.084 32.1644 35.8381 33.0118C37.2624 34.6139 37.4059 34.7617 39.0842 36.0563C39.7343 36.5574 40.5342 37.1595 41.3079 37.4508C42.5281 37.9091 43.083 37.8626 43.6168 37.3954C44.6366 36.157 45.0688 36.4604 45.4007 34.8812C45.6414 33.7327 45.3885 33.3024 44.2736 32.7855C42.7059 32.0586 41.0442 30.2938 39.9884 28.3998C39.6837 27.8525 39.5659 27.1988 39.3803 26.5884C38.9508 25.1749 39.572 21.8952 41.1804 20.7413C42.4236 19.8494 44.6172 19.0856 45.9292 19.4774C46.2341 19.5684 46.5565 19.5912 46.8703 19.6521C47.8592 19.8415 49.8663 20.0382 50.443 20.8348C51.1933 21.8712 51.9879 22.566 52.3896 23.8176C52.9797 25.6548 52.704 29.3696 52.2417 31.2163C52.1044 31.7624 52.1263 32.823 52.2751 33.3243C52.5822 34.3608 52.399 34.8355 53.264 35.5877C55.0602 37.1502 55.0618 37.2764 56.8747 38.8201C57.267 39.1541 57.7394 39.4062 58.0813 39.783C59.9947 41.2287 60.0673 41.4354 62.0272 42.9867C62.6177 43.454 64.1776 45.1499 64.5571 44.6932C65.0429 44.1089 65.2415 44.2495 65.7217 43.6612C66.7251 42.4319 67.847 42.5861 67.0575 41.134C66.9036 40.8504 66.7262 40.581 66.5487 40.3108C64.9922 37.943 63.8142 36.5902 62.2447 34.2314C61.7097 33.4261 61.1361 32.6448 60.563 31.8658C59.6259 30.5939 58.2227 28.5705 58.8387 27.1799C59.0709 26.6559 58.9566 26.5683 59.2606 26.0885C60.0775 24.7985 60.9437 24.0764 61 22.5911C61.0429 21.4657 60.6962 19.6994 60.0909 18.7526C58.5799 16.3929 57.971 15.2772 55.4623 13.8639ZM59.7271 19.6938C60.5117 21.0978 60.1684 22.5774 59.6366 23.9707C59.3434 24.7411 58.894 25.4474 58.5397 26.195C58.1546 27.0091 57.9499 27.8641 57.9451 28.7889C57.9395 29.7233 58.169 30.538 58.6881 31.3317C60.5981 34.2532 62.6171 37.0903 64.8111 39.804C65.4108 40.5451 66.1941 41.2042 66.1841 42.4649C65.9115 42.7621 65.6618 43.0465 65.4012 43.3187C64.7157 44.038 64.2167 44.134 63.4309 43.5293C62.6168 42.9022 61.8335 42.2177 61.1199 41.4774C60.2656 40.5904 59.4052 39.7338 58.351 39.0853C57.9161 38.8175 57.5375 38.4554 57.1405 38.1264C56.3483 37.471 55.6118 36.7283 54.7607 36.1663C53.1452 35.0976 52.8021 33.5359 52.8733 31.8042C52.9492 29.9503 53.053 28.0955 53.2365 26.252C53.3295 25.3198 53.1536 24.4649 52.8508 23.6107C52.7221 23.2464 52.5491 22.8971 52.3804 22.5492C51.2263 20.1642 50.6858 19.7179 48.1417 19.0595C47.585 18.9152 47.0261 18.7697 46.4612 18.6747C45.3072 18.4807 44.1773 18.5277 43.1161 19.0685C42.7776 19.2411 42.4515 19.4558 42.0932 19.5703C39.0889 20.5301 38.6749 22.8388 38.5636 25.6732C38.4516 28.535 39.8954 30.8494 42.2382 32.5283C43.03 33.0963 43.7559 33.7075 44.4314 34.5065C44.3227 34.7468 44.2612 34.9919 44.1212 35.1769C42.7092 37.0551 42.3233 37.1038 40.1021 35.9434C38.055 34.8738 36.6746 33.0456 35.7078 30.9505C35.2509 29.9603 34.938 28.9048 34.5255 27.8928C34.0204 26.6541 34.0135 25.3551 34.1338 24.092C34.375 21.5425 35.3734 19.3034 37.0265 17.3593C38.8019 15.271 40.9929 13.7414 43.5799 12.9845C47.4381 11.8554 51.26 12.1149 54.7948 14.4058C55.709 14.9985 56.6701 15.5962 57.3942 16.3895C58.2959 17.3796 59.0721 18.5207 59.7271 19.6938Z" fill="#FDFEFF"/>
<path d="M73.0781 45.4699C72.1616 44.5712 72.8977 44.4688 71.5179 45.4968C71.3162 45.6472 70.7902 46.306 70.5754 46.6334C70.0686 47.4061 69.9739 47.4178 69.155 48.6028C68.6093 49.3916 68.5308 49.3962 69.0002 50.4802C69.6997 52.0935 69.6168 52.065 70.8857 53.1462C71.6004 53.7555 71.5423 54.8364 72.3655 54.3296C72.8154 53.99 73.1071 53.7337 73.5183 53.3518C74.2105 52.7078 74.9483 51.7992 75.5594 51.0784C77.5579 48.723 76.9902 49.8998 75.183 47.729C74.5271 46.9396 73.8135 46.1911 73.0781 45.4699ZM75.5633 49.9099C74.4588 50.9087 73.4048 51.8616 72.2843 52.8748C71.1027 51.9452 70.1926 50.9236 69.4095 49.6494C70.3012 48.4818 70.5443 46.8223 72.3792 46.1317C73.4514 47.4164 74.7079 48.4189 75.5633 49.9099Z" fill="#FDFEFF"/>
<path d="M72.1035 54.0047C72.3322 54.0931 75.3219 54.6442 75.5384 54.6544C76.0946 54.6807 76.1433 54.0781 76.3106 53.6453C76.5094 53.1309 76.8199 52.8467 77.2092 52.4482C77.6737 51.9728 77.9859 51.3849 78.4374 50.8997C78.5212 50.8096 79.151 50.2392 78.9863 50.1756C78.1219 49.8414 77.2655 49.9947 76.3984 49.6595M72.5206 45.1578C73.2881 44.8182 74.0488 45.0844 74.8478 45.1372C75.6491 45.1901 76.5546 45.2642 77.3069 45.5551C77.7756 45.7362 77.8415 46.3156 77.9082 46.7561C77.9824 47.2464 78.3614 47.6908 78.5303 48.1535C78.7513 48.7591 78.9071 49.5125 79.0376 50.0985M73.3888 53.436C74.4122 53.5988 75.3736 53.3866 76.392 53.4346M74.6627 51.8944C75.3393 52.1559 76.3161 52.1025 77.03 52.0346M75.8581 50.8067C76.6019 50.8103 77.5439 50.8772 78.2445 51.148M75.8163 48.6596C76.7746 48.8987 77.8629 48.8133 78.8387 48.8593M74.832 47.6979C75.4379 47.9119 76.1476 47.6017 76.7961 47.6284C77.1335 47.6423 77.4445 47.5637 77.7835 47.5797M73.5948 46.6385C74.4108 46.6074 75.192 46.5273 76.0031 46.4502C76.5484 46.3983 77.045 46.4606 77.5845 46.3404M64.2253 44.5665C64.3449 44.5963 64.7826 44.4982 64.9375 44.492C65.5244 44.4685 66.1039 44.2882 66.6994 44.2636C67.0063 44.2509 67.9131 44.1607 68.1442 43.9504M66.8958 41.918C67.4017 41.9439 68.379 41.8133 68.8935 42.0122M58.6161 28.2564C59.8068 28.7167 61.0889 28.373 62.3261 28.4313M60.8447 22.2407C61.8274 22.1353 62.7933 22.1772 63.712 22.0899M67.9622 44.1706C68.8064 44.1791 69.149 42.604 69.3962 41.9644C69.4914 41.7182 69.7519 41.304 69.654 41.047C69.4357 40.4739 69.0561 40.0285 68.7561 39.4999C68.5328 39.1064 68.3005 38.717 68.0842 38.3146C67.9602 38.084 67.7096 37.9046 67.5696 37.669C67.4134 37.406 67.3296 37.0109 67.112 36.7926C66.8296 36.5092 66.7742 35.7828 66.4881 35.5667C66.111 35.2817 65.8679 34.6404 65.6172 34.256C65.1939 33.607 64.8541 32.8992 64.5158 32.2051C64.3635 31.8928 64.1787 31.6346 64.0629 31.3305C63.9408 31.0102 63.7551 30.691 63.535 30.4269C63.256 30.0921 63.2696 29.6339 63.1096 29.2723C62.9851 28.9909 62.8097 28.7232 62.8238 28.4246C62.8411 28.0574 62.8961 27.6609 62.8852 27.2914C62.8727 26.8717 63.2874 26.195 63.4365 25.8094C63.6127 25.3536 63.7102 24.9652 63.7771 24.4828C63.9039 23.5686 64.1691 22.6767 64.0808 21.7481C64.0371 21.2875 63.918 20.673 63.661 20.2728C63.3962 19.8604 63.4198 19.2273 63.124 18.8222C62.665 18.1934 62.2215 17.4221 61.7527 16.7316C61.3348 16.1159 60.5124 15.8776 60.0116 15.3751C59.573 14.9351 58.8675 14.7387 58.4059 14.2809C57.8994 13.7785 57.2648 13.3681 56.6838 12.9587C56.0323 12.4996 55.4683 12.1229 54.7188 11.8332L52.8836 11.1238C52.6176 11.0209 52.4062 10.9711 52.1301 10.9294C51.8206 10.8825 51.4386 11.0263 51.1477 10.9371C50.8935 10.8591 50.5553 10.9013 50.2635 10.8859C50.0701 10.8756 49.7888 10.9059 49.6017 10.9691C49.5236 11.0491 47.028 11.4511 46.8852 11.4956C45.8259 11.826 44.2304 12.3607 43.1658 12.5978M42.248 37.5239C43.4315 37.7122 44.7616 37.2967 45.8817 36.9913C46.7565 36.7528 47.0141 35.4678 47.2956 34.7396C47.5555 34.0672 47.7097 33.5621 47.4854 32.8704C47.3517 32.4578 46.6187 32.0561 46.241 31.8996C45.6145 31.6402 45.0627 30.9788 44.5936 30.5095C44.285 30.2008 44.0586 29.8346 43.7405 29.5286C43.4184 29.2188 43.1352 28.9767 42.9175 28.5809C42.5336 27.8827 42.2193 26.9236 42.0373 26.1527C41.754 24.9526 42.1133 23.4078 42.6985 22.3401C43.2047 21.4168 44.5159 20.944 45.5069 20.8104C47.2731 20.5724 49.0269 20.1908 50.7281 20.8485M59.0085 30.2484C60.3349 29.9285 61.678 30.0758 62.9982 29.9503M58.5914 27.5688C58.9302 27.6998 58.9911 27.6028 59.3258 27.5621C59.9757 27.483 60.6485 27.427 61.303 27.417C61.8418 27.4087 62.4367 27.479 62.9507 27.3167M59.3137 26.2014C60.5546 26.1401 61.8632 26.15 63.0888 26.2077M60.1854 24.698C60.8953 24.7775 61.8372 24.6844 62.5475 24.5456C62.8445 24.4875 63.0878 24.5393 63.3707 24.4763M60.7066 23.3497C61.384 23.5882 61.9593 23.4509 62.6415 23.4949C63.0605 23.5219 63.3271 23.2971 63.7616 23.4651M60.8603 20.6969C61.5619 20.7433 62.8579 20.5816 63.5399 20.2798M59.6253 18.3792C60.4929 18.4382 61.2801 18.1646 62.1038 17.9812M60.6995 19.8599C61.2606 19.6361 62.1813 19.1861 62.7893 19.2148M58.9724 17.0613C59.5068 17.0833 59.8597 17.0232 60.3614 16.9202C60.6664 16.8576 60.9279 16.7531 61.2172 16.7667M57.988 16.0996C58.3422 16.0955 58.6968 15.9099 59.04 15.8283C59.1361 15.8054 59.2838 15.8514 59.3604 15.8068C59.5915 15.6723 59.8145 15.7184 60.0452 15.5388M56.7183 15.1245C57.1622 14.703 57.5939 14.7371 58.1205 14.5042M54.9104 14.0382C55.2954 14.1119 55.9886 13.9022 56.3441 13.726C56.527 13.6355 56.7539 13.7811 56.9025 13.6459M53.861 13.2451C54.3645 12.988 54.9252 12.3619 55.5294 12.4371M52.2598 12.6262C52.492 12.1168 53.0078 11.9902 53.3384 11.5901M50.3733 11.9938C50.6497 11.812 51.6139 10.8267 51.9384 10.9521M59.4277 31.6697C60.1385 31.2347 61.0092 30.9954 61.8449 31.0543C62.4454 31.0966 63.0799 30.91 63.6645 30.9828M60.8716 33.1964C61.1178 32.71 62.3051 32.4932 62.8109 32.4394C63.2605 32.3915 63.7061 32.3341 64.1489 32.2355M61.9267 34.4761C62.1816 34.5746 62.5519 34.3542 62.7617 34.2231C63.0189 34.0624 63.5376 33.9753 63.8368 33.9337C64.1431 33.8911 64.7048 33.9148 64.9378 33.7028M62.7616 35.5737C63.2407 35.5478 63.8116 35.2725 64.2623 35.0883C64.5573 34.9677 65.2662 35.1082 65.403 34.7544M66.6968 40.6787C67.4952 40.767 68.2397 40.7111 69.0124 40.7021M44.8037 33.6687C45.3354 33.7705 45.8766 33.5631 46.4054 33.5345C46.6633 33.5206 47.1924 33.6803 47.3856 33.5045M44.4815 36.2563C44.9304 36.1628 45.5581 35.9495 46.0315 36.0052C46.2622 36.0324 46.4644 36.0971 46.6938 36.046M45.2746 35.2068C45.5936 35.001 46.4712 35.0587 46.8835 35.0539M40.3934 29.5424C40.6422 29.0177 41.3627 28.9629 41.8764 28.8241C42.1127 28.7603 42.2574 28.8841 42.464 28.6961M39.0685 26.7055C39.5392 26.4268 40.2227 26.3586 40.7751 26.2998C41.0567 26.2698 41.6631 26.2567 41.8458 26.0356M39.2335 25.0258C39.7658 25.0885 40.4261 25.0908 40.9525 24.9638C41.1487 24.9165 41.5165 24.8428 41.6985 24.9132M39.4827 23.3786C40.3541 23.5009 41.1661 23.5438 42.0186 23.584M40.0556 22.1472C40.8375 22.3009 41.7178 22.1921 42.4881 22.1189M41.5498 20.7875C42.2952 21.0161 43.4685 21.266 44.2025 20.9412M43.2508 19.8953C43.8048 19.9861 44.2672 19.9976 44.7811 20.1962C45.1209 20.3276 45.7577 20.5948 46.1103 20.5163M45.8596 19.1602C46.2793 19.4473 46.5923 19.8309 47.0776 20.0185M63.7651 36.7365C64.2157 36.8489 64.9921 36.3902 65.42 36.2139C65.7243 36.0885 66.173 35.9799 66.4907 35.9497M64.7876 38.1004C64.9017 37.9291 65.6891 37.7326 65.9286 37.6266C66.27 37.4756 66.548 37.3539 66.9099 37.371M65.4731 39.334C65.8147 39.1828 66.1628 38.9859 66.5211 38.8781C66.7115 38.8208 66.8188 38.8755 66.9782 38.7534C67.1061 38.6556 67.6118 38.6109 67.764 38.6697M43.8385 32.9082C44.096 32.9574 44.3589 32.8007 44.6028 32.7408C44.9755 32.6493 45.3567 32.6234 45.73 32.5254C46.1109 32.4255 46.4826 32.3727 46.8687 32.336M42.0306 31.8219C42.8113 31.341 43.6788 31.0229 44.5169 30.652M40.8261 30.6782C41.3017 30.6195 41.6012 30.1568 42.0609 30.1009C42.2425 30.0788 42.3777 30.0205 42.5534 29.9684C42.8767 29.8725 43.2539 29.7916 43.5843 29.8072M39.7731 28.1402C40.1738 28.2169 40.7963 27.9664 41.2019 27.8962C41.4633 27.8509 41.8428 27.7318 42.0313 27.5603" stroke="#FDFEFF" stroke-width="0.722771" stroke-linecap="round"/>
</g>
<defs>
<clipPath id="clip0_4_50572">
<rect width="87" height="80" fill="white"/>
</clipPath>
</defs>
</svg>
