<svg width="87" height="80" viewBox="0 0 87 80" fill="none" xmlns="http://www.w3.org/2000/svg">
<rect width="87" height="80" fill="#26262E"/>
<path fill-rule="evenodd" clip-rule="evenodd" d="M57.47 31.8947L58.0896 25.5025C58.0896 25.5025 58.2291 24.6075 59.0067 24.5627C59.7849 24.5183 60.312 25.0099 60.3491 26.846C60.3869 28.6816 60.2858 30.4741 60.1905 32.1258C60.0956 33.7766 59.763 36.3186 59.0979 36.8455C58.4333 37.372 57.4217 37.0217 57.2493 36.3687C57.0764 35.7158 57.4606 31.8701 57.4699 31.895L57.47 31.8947ZM68.4516 37.0313L72.9614 32.4588C72.9614 32.4588 73.5583 31.7777 73.0942 31.1522C72.6302 30.5267 71.9143 30.4369 70.4814 31.5854C69.0487 32.7331 67.7369 33.9593 66.5302 35.0912C65.3237 36.2221 63.5863 38.107 63.608 38.9551C63.6304 39.8029 64.5469 40.3545 65.1589 40.0685C65.7707 39.7825 68.4763 37.0227 68.4514 37.0316L68.4516 37.0313ZM73.4214 31.7871C73.4979 31.8027 73.5639 31.8301 73.6141 31.8744C73.9801 32.1984 74.4567 33.3307 74.4567 33.3307C74.4567 33.3307 74.5951 33.7419 73.9254 34.4917C73.2558 35.2412 71.8577 36.8053 71.8577 36.8053L72.9312 38.2824C72.9312 38.2824 73.5241 39.1016 72.9845 39.5944C72.4448 40.088 71.94 39.2083 71.94 39.2083L70.971 37.7233C70.971 37.7233 68.927 39.7093 68.0595 40.4785C67.1918 41.2479 66.2638 41.5082 65.9787 41.4568C65.6938 41.4052 65.3116 41.0936 65.0319 40.8403C64.8727 40.6957 64.7941 40.4966 64.7563 40.3129C64.9125 40.3172 65.0706 40.2874 65.2231 40.2161C65.6574 40.0129 66.5705 39.1138 66.9389 38.7615C67.32 38.3972 67.6965 38.0269 68.0684 37.6529C68.191 37.5303 68.3128 37.4068 68.4338 37.2827C68.4669 37.2481 68.501 37.2136 68.5337 37.1782C68.5442 37.1676 68.5535 37.1559 68.5613 37.1443L73.0778 32.5673C73.2736 32.35 73.3969 32.0701 73.4215 31.7875L73.4214 31.7871ZM73.947 34.6541C74.0476 34.8288 74.162 35.0835 74.1617 35.3358C74.162 35.5981 73.4693 36.5995 72.628 37.6502L72.0188 36.8112C72.6647 36.0966 73.3049 35.3734 73.9471 34.6539L73.947 34.6541ZM71.5821 38.89C71.3065 39.199 71.0378 39.4855 70.7926 39.7272C69.4596 41.0439 68.8762 41.3337 68.4541 41.341C68.2314 41.3447 67.8289 41.1898 67.4973 41.0426C67.7599 40.8781 67.9902 40.7053 68.14 40.5728C69.0867 39.734 70.0438 38.8143 70.949 37.9199L71.5821 38.89ZM72.578 39.8466C72.578 39.8466 72.2219 39.8641 71.6529 39.0151C71.6529 39.0151 71.2835 39.5066 71.0422 39.6386C71.0422 39.6386 71.907 40.4728 72.578 39.8466ZM73.3481 38.7558C73.3481 38.7558 73.325 38.3366 72.921 37.9222L75.6766 33.2239L75.8703 33.1705L75.7305 31.2962C75.7305 31.2962 75.546 31.1481 75.4249 30.7797C75.3029 30.4109 75.2414 29.6267 75.2414 29.6267C75.2414 29.6267 75.016 29.5727 74.8624 28.8369C74.0855 25.1247 72.373 23.02 69.0779 21.3928C65.8044 19.8617 62.8746 20.0039 59.6505 21.7214C58.9872 22.0755 58.8014 21.9368 58.8014 21.9368C58.8014 21.9368 58.1602 22.3923 57.7993 22.5353C57.4385 22.6783 57.206 22.6313 57.206 22.6313L55.6777 23.7254L55.7615 23.9086L53.9213 29.035C53.3446 28.9904 53.0079 29.2416 53.0079 29.2416C53.0215 29.2212 54.4532 23.3501 54.4532 23.3501L54.7711 23.4374C56.5879 18.3611 59.7891 16.6294 61.6425 15.9027C64.7446 14.6877 68.4457 15.064 71.3526 16.5237C74.3355 17.8184 76.9971 20.419 78.0521 23.5783C78.6822 25.4669 79.405 29.0343 76.673 33.6821L76.9438 33.8702C76.9438 33.8702 73.3549 38.7324 73.3483 38.7559L73.3481 38.7558ZM69.3344 20.8389C71.7302 21.9343 74.0585 24.0924 75.0631 26.6015C75.7985 28.4369 76.0787 30.9897 76.0787 30.9897C76.0787 30.9897 76.1145 31.2105 75.9499 31.3072L76.0162 33.2089C76.0162 33.2089 78.2075 30.2311 77.9142 26.0887C77.6857 22.8703 75.4628 20.3235 72.9621 18.5886C72.2983 18.1402 71.6123 17.7516 70.9307 17.4275C70.2451 17.112 69.5061 16.8341 68.7361 16.6119C65.8018 15.8046 62.4224 15.7308 59.8057 17.6184C56.4384 20.0485 55.5566 23.6389 55.5566 23.6389L57.0594 22.4711C57.0273 22.2825 57.2203 22.1687 57.2203 22.1687C57.2203 22.1687 59.3595 20.7477 61.2394 20.1354C63.8091 19.2983 66.958 19.7021 69.335 20.8392L69.3344 20.8389ZM58.3103 24.7184C58.2498 24.6699 58.1859 24.6366 58.1198 24.6265C57.6361 24.5531 56.4619 24.9132 56.4619 24.9132C56.4619 24.9132 56.058 25.0707 55.9113 26.0652C55.7648 27.0594 55.4606 29.1351 55.4606 29.1351L53.639 29.258C53.639 29.258 52.6304 29.3281 52.5977 30.0581C52.5648 30.7886 53.5635 30.6122 53.5635 30.6122L55.3243 30.4041C55.3243 30.4041 55.1105 33.2463 55.0758 34.4049C55.042 35.5643 55.4368 36.4435 55.6585 36.6291C55.8814 36.815 56.365 36.9083 56.7386 36.9607C56.9516 36.9902 57.1549 36.923 57.3207 36.8345C57.2177 36.7175 57.1384 36.5767 57.0957 36.414C56.9733 35.9504 57.0779 34.6731 57.1119 34.1646C57.1473 33.6384 57.1904 33.1123 57.2387 32.5869C57.2548 32.4145 57.2715 32.2419 57.2894 32.0695C57.294 32.0215 57.2995 31.9736 57.3046 31.9253C57.3064 31.9107 57.3096 31.8961 57.3133 31.8827L57.9318 25.4823C57.9732 25.1928 58.1089 24.9187 58.31 24.7186L58.3103 24.7184ZM55.7728 26.1527C55.5744 26.1875 55.305 26.2627 55.1119 26.4248C54.9111 26.593 54.5854 27.7661 54.3181 29.0852L55.3526 29.0151C55.4873 28.0614 55.6323 27.1066 55.7729 26.1524L55.7728 26.1527ZM54.0373 30.683C53.9764 31.0924 53.9291 31.4824 53.9008 31.8255C53.7444 33.6927 53.8958 34.3262 54.161 34.6549C54.3002 34.828 54.6781 35.0381 55.0031 35.198C54.9613 34.8911 54.9464 34.6036 54.9517 34.4035C54.9894 33.1396 55.0812 31.8151 55.1878 30.5472L54.0373 30.683ZM52.6646 30.5316C52.6646 30.5316 52.8796 30.8163 53.8957 30.7087C53.8957 30.7087 53.7559 31.3076 53.8086 31.5771C53.8086 31.5771 52.614 31.448 52.6646 30.5316ZM77.5158 18.4405C77.5158 18.4405 77.0748 18.4473 76.9383 18.7391C76.8022 19.03 76.8451 19.3813 76.8451 19.3813C76.8451 19.3813 77.7014 20.6105 77.985 20.7432C78.2686 20.8758 78.6289 21.0919 78.8523 21.5515C79.0761 22.0108 81.6434 24.7998 78.3883 32.7443C75.1335 40.689 71.926 40.4428 70.5426 40.2926L70.1915 40.6492C70.1915 40.6492 76.0593 42.2579 79.0291 32.9496C81.9992 23.6412 79.5153 21.0598 79.5153 21.0598C79.5153 21.0598 78.979 20.4294 79.0034 20.1803C79.0278 19.9311 78.4551 18.7878 77.5152 18.4413L77.5158 18.4405Z" fill="#FF8E0A"/>
<path d="M35.096 71.9944C35.1033 71.9987 35.1109 72.0024 35.1178 72.0051L35.2066 72.0368C35.2248 72.0455 35.2444 72.0514 35.2645 72.0518C35.2767 72.0545 35.2881 72.0589 35.2988 72.0645C35.3301 72.0657 35.3664 72.0733 35.3939 72.0716C35.4691 72.0644 35.541 72.0368 35.6022 71.9915C35.4942 71.8213 35.4143 71.635 35.3661 71.4398C35.3564 71.3996 35.3493 71.3594 35.3443 71.3188L35.3405 71.2646L35.3345 71.2194C35.3361 71.2074 35.3369 71.1914 35.3369 71.1914L35.3372 71.156C35.3402 71.0623 35.3517 70.969 35.3738 70.8781C35.449 70.6015 35.5876 70.3461 35.7786 70.1334C35.8841 70.003 36.002 69.8836 36.1303 69.7758C36.2205 69.6893 36.2908 69.6515 36.3342 69.6728C36.3777 69.6941 36.3906 69.7738 36.3753 69.9007C36.3337 70.0718 36.2774 70.2382 36.2057 70.3989C35.9956 70.8899 35.8967 71.4992 36.4341 71.8452C36.4536 71.8648 36.4607 71.8786 36.4775 71.8834L36.4961 71.899L36.5053 71.9049C36.5523 71.916 36.6014 71.9218 36.6499 71.9246C36.695 71.9292 36.7412 71.9288 36.7861 71.9223L36.8553 71.9191C36.8629 71.9175 36.8672 71.9207 36.8796 71.9218C36.8914 71.923 36.8779 71.9142 36.8895 71.9313C36.8927 71.9269 36.8963 71.9261 36.8989 71.9213C36.8439 71.8048 36.8055 71.682 36.785 71.5548C36.7627 71.3874 36.7663 71.218 36.7948 71.0518C36.8355 70.7958 36.9179 70.5478 37.0385 70.3184C37.2436 69.9294 37.4773 69.7662 37.551 69.8206C37.6252 69.875 37.5716 70.1174 37.511 70.4865C37.4743 70.693 37.451 70.9025 37.4424 71.1125C37.4409 71.7939 37.9727 71.768 38.2386 71.2116C38.3741 70.8581 38.5877 70.5402 38.8636 70.2828C39.1532 70.0521 39.4985 69.9193 39.7808 69.6717C40.3179 69.1733 40.7373 68.5607 41.0082 67.8781C41.5436 66.4513 41.8217 64.9402 41.8304 63.4151C41.8331 63.386 41.837 63.3577 41.8436 63.3299C41.8358 63.2074 41.8686 63.0862 41.9368 62.9849C44.0771 59.6908 43.671 55.7857 44.2161 52.0626C44.1228 52.1767 44.0274 52.2807 43.9385 52.3689C43.6496 52.6539 43.4298 52.774 43.3607 52.7239C43.2152 52.5945 43.7827 51.8048 44.2716 50.7979C44.3248 50.6808 44.3716 50.5731 44.414 50.462C44.4735 49.85 44.361 49.2328 44.0899 48.6801C43.5551 47.6949 42.6009 46.0246 41.1516 46.4762C39.9375 46.8552 38.9808 47.6861 37.9174 48.3407C38.0834 48.7151 38.2285 49.0993 38.3509 49.4909C38.4705 49.656 38.579 49.8287 38.6764 50.0081C38.7877 50.2103 38.8856 50.4191 38.9701 50.634C39.0143 50.7492 39.0456 50.8756 39.08 51.0014L39.1321 51.1905L39.161 51.3618L39.1912 51.5392L39.2056 51.6259L39.2112 51.6712L39.2174 51.7174L39.2181 51.7405L39.2198 51.7407C39.2269 51.867 39.2268 51.9939 39.2193 52.1207C39.2187 52.1594 39.2153 52.1976 39.2094 52.2364C39.1968 52.4299 39.1705 52.6231 39.1308 52.8128C39.0852 53.0266 39.0157 53.2343 38.9247 53.4324C38.8824 53.5271 38.8314 53.6173 38.7722 53.7019C38.7131 53.7843 38.6464 53.8604 38.5717 53.9288L38.5006 53.9795C38.5503 54.0665 38.6006 54.154 38.6543 54.2423C38.7183 54.3544 38.7371 54.4861 38.7066 54.611C38.7048 54.6225 38.7066 54.6306 38.7054 54.6424C38.3666 57.2202 37.8898 59.8634 37.7219 62.4561C37.7157 62.5668 37.677 62.6734 37.6109 62.7621C37.6077 62.767 37.6085 62.7705 37.6045 62.7714C36.675 64.3098 35.8327 65.8986 35.082 67.5329C35.0323 67.6492 34.9463 67.7459 34.8372 67.8084C34.7592 67.9128 34.6459 67.9847 34.5183 68.01C33.7146 68.2021 32.8048 68.847 33.1243 69.7453L33.1468 69.7056C33.2059 69.5793 33.2597 69.4504 33.3301 69.3254C33.4373 69.09 33.645 68.916 33.8947 68.8523C34.0489 68.843 34.1309 68.8798 34.1456 68.9237C34.1603 68.9681 34.0863 69.03 33.9799 69.112C33.8872 69.2312 33.8235 69.3706 33.795 69.5194C33.7677 69.6273 33.7411 69.7582 33.6964 69.9125L33.6559 70.0348C33.6475 70.0641 33.6363 70.0929 33.6232 70.1201L33.5996 70.1716C33.4929 70.4022 33.1812 70.6376 33.1749 70.8973C33.1688 71.1945 33.562 71.4488 33.8223 71.4981C33.9313 71.5159 34.0427 71.511 34.1497 71.4828L34.1874 71.4747L34.2025 71.491C34.238 71.4754 34.2733 71.4758 34.3049 71.4611C34.3191 71.4538 34.3385 71.4538 34.3492 71.4473C34.3517 71.4442 34.356 71.4422 34.3601 71.4418C34.3724 71.3568 34.3872 71.2791 34.3973 71.2183C34.4077 71.1611 34.4132 71.1039 34.415 71.0459C34.4148 70.991 34.4092 70.9357 34.3991 70.8813C34.3694 70.7429 34.3419 70.5977 34.3237 70.4589C34.259 70.1331 34.3459 69.7958 34.5598 69.5433C34.7025 69.3801 34.9025 69.278 35.1182 69.2592C35.2396 69.2764 35.3155 69.3066 35.326 69.3556C35.3365 69.4041 35.2864 69.4624 35.1808 69.5316C35.0945 69.6193 35.0221 69.7204 34.9681 69.8314C34.9056 69.9885 34.9027 70.1635 34.9605 70.3223C34.9975 70.4554 35.0403 70.601 35.0786 70.7428C35.0993 70.8393 35.1141 70.9376 35.122 71.0358C35.1212 71.1347 35.1124 71.2333 35.0955 71.331C35.0703 71.5245 35.0296 71.641 35.0282 71.7449C35.0197 71.808 35.0261 71.8721 35.0454 71.933C35.0574 71.9542 35.0744 71.9722 35.0954 71.9846L35.1137 71.996C35.108 71.994 35.1022 71.9937 35.096 71.9944ZM29.2374 8.0241L29.2382 8.02814L29.2679 8.02178L29.3527 8.03475L29.5411 8.06034C29.7972 8.09203 30.0842 8.1213 30.3919 8.18311C30.7639 8.24328 31.1139 8.39956 31.409 8.63527C31.494 8.7153 31.5723 8.80362 31.642 8.89803C31.7044 8.99771 31.7584 9.10235 31.8029 9.21168C31.835 9.31945 31.8602 9.42923 31.8778 9.54064L31.889 9.73743C32.2291 9.82557 32.5494 9.97768 32.8337 10.1856C33.0698 10.3716 33.2606 10.6091 33.3918 10.88C33.5115 11.1634 33.5796 11.4658 33.5914 11.7729C33.5945 12.0226 33.6023 12.2793 33.6052 12.545C33.6079 12.5576 33.6132 12.5702 33.6207 12.5808C33.6097 12.5831 33.6608 12.6229 33.6732 12.644C33.7601 12.7231 33.857 12.8117 33.9714 12.9087C34.1008 13.0172 34.2224 13.1353 34.3356 13.2611C34.469 13.4121 34.5792 13.5824 34.6618 13.7665C34.7084 13.8732 34.7413 13.985 34.7608 14.1003L34.7839 14.2792L34.7734 14.4653C34.763 14.5859 34.7337 14.7042 34.6889 14.8163L34.683 14.8255L34.679 14.8263C34.6731 14.8355 34.6854 14.8366 34.6898 14.8399C34.6917 14.8389 34.694 14.84 34.6945 14.842L34.7816 14.9565C34.8554 15.0505 34.9127 15.1561 34.9532 15.2684C35.0042 15.3763 35.0395 15.4918 35.0575 15.61C35.1453 16.0926 35.0409 16.5905 34.7661 16.9956C34.5328 17.3415 34.2671 17.6273 34.0466 17.9056C33.96 18.0066 33.891 18.1213 33.8425 18.2453C33.8181 18.335 33.826 18.4306 33.8651 18.5146C33.9249 18.6661 34.0008 18.8115 34.0904 18.9471L34.2496 19.1792C34.2812 18.8369 34.3713 18.5021 34.5164 18.191C35.1018 17.0408 36.2525 16.2908 37.5375 16.2226C40.3332 16.163 42.798 18.644 44.018 20.9895C45.0203 22.9158 45.575 25.1031 46.3091 27.1413C46.9967 28.8726 47.1275 30.7751 46.6838 32.5828C46.0881 34.8875 45.0627 37.042 44.4443 39.3362C44.0025 40.9616 43.9572 42.9253 43.2777 44.4798C44.1258 45.1975 44.6651 46.2161 44.7838 47.3224C44.7917 47.364 44.7961 47.4069 44.7958 47.4493C45.1708 48.0107 45.4076 48.6536 45.4865 49.3252C45.5225 50.6241 45.4159 51.923 45.1686 53.1981C45.0128 54.4685 45.0451 55.7455 44.9256 57.0207C44.7997 59.0281 44.2737 60.9886 43.3784 62.7865C43.81 63.0383 44.195 63.343 44.6255 63.6072C45.0556 63.8103 45.4098 64.1453 45.6373 64.5635C45.9512 65.4086 45.776 66.28 44.814 66.5155C44.7741 66.5257 44.7316 66.5285 44.6904 66.5225C44.7191 66.7541 44.68 66.9886 44.5787 67.1974C44.5326 67.2866 44.4721 67.3672 44.3997 67.4361L44.3392 67.4803L44.3222 67.4918L44.2957 67.5128C44.276 67.5287 44.2564 67.5451 44.22 67.5766C44.1321 67.6521 44.027 67.7058 43.9143 67.7321C43.8229 67.7522 43.7285 67.7482 43.6391 67.7209C43.6359 67.7454 43.6384 67.7718 43.6352 67.7962C43.6242 67.9555 43.581 68.1117 43.5079 68.2536L43.4196 68.391L43.3802 68.4427L43.3708 68.4527L43.3449 68.4741L43.299 68.5151L43.2021 68.5903C43.1355 68.64 43.0598 68.6769 42.9791 68.6974C42.9062 68.7252 42.8286 68.736 42.7507 68.7306C42.4995 68.7359 42.26 68.6219 42.1042 68.4229C42.0802 68.3942 42.0578 68.3636 42.0378 68.3315C41.5792 69.5897 40.6611 70.6252 39.4693 71.2277C39.4594 71.2504 39.449 71.2727 39.4367 71.2938C39.3025 71.4817 39.1544 71.6588 38.9932 71.8239C38.8432 71.9654 38.626 72.0089 38.4332 71.9362C38.3846 72.0137 38.3281 72.0861 38.2651 72.1524C38.1163 72.3164 37.9114 72.4175 37.6914 72.4362C37.6228 72.4446 37.5527 72.4364 37.4872 72.4129C37.4194 72.3984 37.3539 72.3723 37.294 72.336L37.2932 72.332L37.2896 72.3328L37.2387 72.387L37.2307 72.3887L37.224 72.3944L37.207 72.4059L37.1722 72.4251C37.1231 72.4509 37.0698 72.4745 37.0164 72.4976C36.9731 72.5111 36.9389 72.5185 36.8947 72.528C36.807 72.5531 36.7176 72.5654 36.6267 72.5654C36.5448 72.5708 36.4627 72.5705 36.3808 72.5638L36.3724 72.5613L36.3644 72.5631L36.3154 72.5503L36.2944 72.5432L36.2558 72.5277L36.1759 72.4984C36.125 72.4792 36.0766 72.4521 36.0336 72.4185C35.9676 72.3803 35.9066 72.3337 35.852 72.28C35.7788 72.3971 35.6725 72.4897 35.5467 72.5452C35.4751 72.5743 35.4006 72.5945 35.3239 72.6046C35.2368 72.6101 35.1493 72.6094 35.0625 72.6016L34.9729 72.5859L34.949 72.5826L34.9402 72.5808L34.9071 72.5684L34.8896 72.5605L34.8209 72.5319C34.715 72.4939 34.6201 72.4292 34.5456 72.3443C34.4974 72.286 34.4571 72.2206 34.4264 72.1511C34.2841 72.2429 34.1268 72.3084 33.9617 72.3449C33.798 72.3758 33.6294 72.3745 33.4662 72.3414C33.3722 72.3225 33.2813 72.2907 33.1961 72.2467C33.1172 72.1997 33.0416 72.1467 32.9712 72.0878C32.7385 71.854 32.5841 71.5533 32.5299 71.2273C32.5029 71.1042 32.4876 70.9791 32.4842 70.853C32.4838 70.7971 32.489 70.7405 32.4988 70.6855C32.3478 70.6461 32.2237 70.538 32.1637 70.3934C31.4488 68.8947 32.4194 67.5752 33.7778 67.0405C33.484 66.2693 33.2422 65.4785 33.0554 64.6742C31.1034 62.6934 30.2765 60.4013 29.1108 57.966C27.3911 57.7946 24.8972 57.3008 24.1306 55.6133C23.9114 55.5547 23.7189 55.4217 23.5861 55.2367C23.1587 54.4799 22.8822 53.6474 22.7711 52.7846C22.6523 52.7869 22.5364 52.7494 22.4407 52.678C17.7489 49.332 12.6955 46.2591 9.28127 41.4777C7.03093 38.3985 6.07147 34.5577 6.6077 30.7811C6.90745 28.0628 7.489 23.98 10.2796 22.6645C11.4754 22.1024 12.9358 22.572 13.9502 23.3057C15.9374 24.7427 16.912 27.3946 19.5827 27.644C19.5945 27.6452 19.6076 27.6497 19.6196 27.6514C19.9944 27.1298 20.4299 26.6553 20.9171 26.238C20.8551 26.1842 20.7935 26.135 20.7316 26.0818C20.1979 26.4219 19.5593 26.5548 18.9344 26.4554C18.2259 26.319 17.5754 25.9683 17.0699 25.4501C16.6053 24.9956 16.2721 24.423 16.1066 23.794C16.0804 23.6353 16.0448 23.4865 16.0304 23.3285C16.0214 23.1692 16.0209 23.0103 16.0288 22.8512C16.072 22.5254 16.1465 22.3018 16.1708 22.1164C16.2135 21.7522 16.1484 21.6668 15.812 21.3512C15.6228 21.1921 15.4572 21.0062 15.3198 20.7996C15.2694 20.692 15.215 20.5854 15.1622 20.4815C15.1094 20.3777 15.0894 20.2699 15.0515 20.1645C14.8793 19.6192 14.8988 19.0317 15.1065 18.5005C14.7403 18.2124 14.47 17.8202 14.3308 17.3751C14.1906 16.9841 14.1031 16.5765 14.0705 16.1624C14.0348 15.7854 14.0462 15.4052 14.1041 15.0308C14.1363 14.8427 14.1882 14.6583 14.259 14.4814C14.3325 14.2997 14.4347 14.1314 14.5609 13.9823C14.7698 13.7525 15.0086 13.5523 15.2707 13.3872C15.4397 13.2806 15.5959 13.1536 15.7347 13.0091C15.9182 12.7763 15.9928 12.475 15.9395 12.1826C15.9359 12.1485 15.9335 12.1179 15.9285 12.0799C15.7922 11.8417 15.696 11.5819 15.6433 11.3121C15.5861 11.0037 15.5624 10.6901 15.5713 10.3765C15.5772 10.0878 15.6078 9.79961 15.6626 9.51574C15.6866 9.37533 15.7222 9.23771 15.7697 9.10387C15.8086 8.96184 15.8645 8.82516 15.9357 8.69679C16.1767 8.23241 16.5143 7.82603 16.9265 7.50507C17.2652 7.22894 17.6359 6.99404 18.0303 6.80581C18.6634 6.49767 19.3376 6.28319 20.0323 6.16894C20.2511 6.13731 20.4544 6.12168 20.6507 6.1107C20.6524 6.09872 20.6499 6.08711 20.6506 6.07109C20.6937 5.57628 21.0158 5.15155 21.4792 4.97865C22.6375 4.5995 23.8832 4.57569 25.0567 4.91132C25.8707 5.0906 26.6573 5.37983 27.3951 5.77035C27.8469 6.00624 28.2593 6.31133 28.618 6.67446C28.8291 6.89598 28.999 7.15379 29.1201 7.43585C29.1541 7.51361 29.1803 7.59411 29.1991 7.67672C29.2224 7.761 29.2371 7.84661 29.2427 7.93366C29.2537 8.04384 29.2406 8.0197 29.2374 8.0241ZM32.9822 22.9104C32.7273 23.0428 32.4403 23.1018 32.1537 23.0798C32.0797 23.3277 31.9927 23.5714 31.8935 23.8099C32.0353 23.7795 32.1758 23.7535 32.3211 23.7297C32.5374 23.464 32.7626 23.1927 32.9822 22.9104ZM45.0465 34.074C45.7066 32.0841 46.1131 30.1889 45.4421 28.1307C44.8646 26.3641 44.2811 24.5197 43.581 22.7991C42.7057 20.6416 40.5519 17.3066 37.8715 17.362C35.4558 17.414 35.6853 19.3699 35.2132 21.1113C34.9325 22.0396 34.4667 22.8994 33.8434 23.6402C34.8221 23.6732 35.7758 23.9593 36.6126 24.4708C36.6794 24.4221 36.7392 24.3649 36.7903 24.2995C37.023 24.0192 37.122 23.6502 37.0605 23.2899L36.9527 22.7144L37.5479 22.7858C37.8593 22.8331 38.1657 22.9132 38.4605 23.0253C38.9385 23.1848 39.8562 23.7201 39.6329 22.8048C39.5803 22.5963 39.5319 22.388 39.4807 22.1865L39.247 21.2423L40.1566 21.595C40.4138 21.6962 40.618 21.805 40.8032 21.8863C40.9217 21.9486 41.0488 21.9921 41.1806 22.0134C41.1916 21.9984 41.1984 21.9811 41.2006 21.9621C41.221 21.9028 41.2368 21.8418 41.2477 21.7798C41.2505 21.6851 41.2671 21.5638 41.2634 21.4906C41.2473 21.4349 41.256 21.3823 41.2432 21.3227C41.2279 21.2588 41.2092 21.1963 41.1871 21.135C41.136 21.0144 41.0634 20.9042 40.9727 20.8096C40.7786 20.6135 40.5529 20.4511 40.3051 20.3299C39.8972 20.147 39.4787 19.9901 39.0511 19.8594C38.7406 19.7575 38.5683 19.6772 38.5722 19.6071C38.5766 19.537 38.7651 19.4918 39.1055 19.481C39.5971 19.4685 40.0876 19.5349 40.5585 19.678C40.9168 19.787 41.2498 19.967 41.5376 20.208C41.9196 20.5328 42.1535 21.0004 42.185 21.502C42.1921 21.6257 42.1869 21.7092 42.1863 21.8145C42.1801 21.9569 42.1579 22.0985 42.1207 22.236C42.0794 22.4112 41.9949 22.5736 41.8749 22.7077C41.798 22.795 41.7051 22.8667 41.6012 22.9192C41.5012 22.9649 41.3937 22.9933 41.2842 23.0025C41.0828 23.0172 40.8808 22.9898 40.6904 22.9229C40.7032 23.0147 40.7086 23.1081 40.7069 23.2009C40.7028 23.3334 40.6795 23.4652 40.6388 23.5912C40.5866 23.7498 40.4971 23.8938 40.3787 24.0111C40.3607 24.0324 40.3396 24.0517 40.3168 24.0677L40.2708 24.1056L40.207 24.1541C40.1996 24.1563 40.1923 24.1589 40.1852 24.1625L40.1607 24.1757L40.1075 24.2025L40.0035 24.2443C39.8815 24.2858 39.7538 24.308 39.6244 24.3104C39.4243 24.3137 39.2247 24.2879 39.0318 24.2342C38.7252 24.1505 38.425 24.0448 38.1337 23.9176C38.053 23.8842 37.9716 23.8505 37.8912 23.8212C37.794 24.2552 37.5464 24.6397 37.1931 24.9068C37.6291 25.341 37.9612 25.8694 38.1636 26.4521L38.1681 25.7114L38.8695 26.2187C39.0569 26.357 39.237 26.5054 39.4086 26.663C39.6568 26.8761 39.9872 27.2912 40.2733 26.9709C40.4517 26.7683 40.426 26.3939 40.4977 26.1476L40.7127 25.4246L41.2884 25.8928C41.5858 26.1344 41.7931 26.3408 42.0122 26.5067C42.1355 26.6134 42.2803 26.6928 42.4361 26.7402C42.4294 26.7458 42.4156 26.7525 42.4131 26.7604C42.4107 26.7689 42.4224 26.7669 42.4392 26.7548L42.4805 26.7264C42.4848 26.7297 42.5077 26.7089 42.5275 26.6931C42.5738 26.6345 42.6087 26.5668 42.6287 26.4938C42.6798 26.308 42.7053 26.1154 42.7053 25.9221C42.7083 25.1378 42.5999 24.6328 42.7261 24.5861C42.8339 24.5397 43.1753 24.9716 43.3699 25.8613C43.4249 26.1247 43.4355 26.3946 43.4012 26.6608C43.3758 26.8438 43.3132 27.02 43.2177 27.1778C43.1549 27.2748 43.0778 27.3611 42.9884 27.4347L42.9491 27.4669C42.9275 27.4837 42.905 27.4991 42.8811 27.5127C42.5982 27.6743 42.2557 27.6924 41.9564 27.5622C41.7808 27.4937 41.6133 27.4065 41.4567 27.3012C41.3932 27.2604 41.3372 27.2174 41.2777 27.1753C41.255 27.2509 41.233 27.3296 41.2002 27.4117C41.1443 27.5727 41.0664 27.7242 40.9697 27.8638C40.8997 27.9665 40.8121 28.0556 40.7107 28.127C40.6745 28.1517 40.6357 28.1717 40.5948 28.1868L40.5342 28.2157L40.5019 28.2268L40.4195 28.2445C40.4084 28.2469 40.3177 28.2579 40.3177 28.2579C40.238 28.2613 40.1589 28.2577 40.0803 28.2465C40.0256 28.2392 39.9717 28.226 39.9198 28.207C39.8339 28.1789 39.7505 28.143 39.6708 28.0998C39.5416 28.0298 39.4185 27.9485 39.3033 27.8575C39.1113 27.7027 38.9289 27.5363 38.7565 27.3604C38.7543 27.355 38.7501 27.3501 38.7452 27.3469C38.6668 27.4198 38.5699 27.4707 38.4655 27.4936C38.6682 28.5824 38.7734 29.6873 38.7797 30.7944C38.8547 33.3187 38.8433 35.862 38.762 38.3928C38.9044 38.6397 39.0327 38.8948 39.1544 39.1503C39.1303 38.9478 39.1112 38.7485 39.1019 38.5434C39.0814 38.0659 39.1175 37.5874 39.2082 37.1183C39.29 36.7034 39.3961 36.2939 39.5253 35.8916C39.7606 35.1362 39.9857 34.4972 40.1213 33.9509C40.4064 32.8641 40.3271 32.1494 40.4794 32.1167C40.5462 32.1024 40.6522 32.2677 40.7481 32.6069C40.8621 33.0865 40.8922 33.582 40.8369 34.0715C40.756 34.7721 40.6221 35.466 40.4369 36.1461C40.3539 36.519 40.2562 36.9014 40.2004 37.2927C40.1382 37.6865 40.1129 38.0856 40.1249 38.484C40.1763 39.2919 40.2928 40.0943 40.4723 40.8838C40.4964 40.9568 40.5117 41.028 40.5307 41.1021C40.5485 40.9107 40.5736 40.7215 40.5941 40.5253C40.6238 40.2965 40.6676 40.0694 40.7247 39.8458L40.7626 39.677L40.7837 39.5938L40.7989 39.5202L40.8135 39.478C40.8489 39.3684 40.8835 39.2553 40.9123 39.1398C41.4691 37.3253 42.0298 35.7634 42.3167 34.5945C42.613 33.4546 42.7168 32.6646 42.876 32.6812C42.9966 32.6944 43.1557 33.4353 43.0339 34.7222C42.8024 36.3257 42.4227 37.9047 41.8993 39.4367C41.8687 39.549 41.8339 39.6584 41.799 39.7679L41.7884 39.8092L41.7868 39.8212L41.7665 39.908L41.7278 40.0727C41.6701 40.2843 41.6248 40.499 41.5935 40.716C41.5701 40.9128 41.5329 41.1047 41.5117 41.2973C41.5068 41.4902 41.5014 41.6831 41.498 41.8677C41.501 42.0462 41.5173 42.225 41.5458 42.4017C41.553 42.4868 41.642 42.5586 41.652 42.6415L41.6487 42.6459L41.6188 42.6877L41.6186 42.758L41.64 42.8945C41.6726 43.0317 41.7222 43.1648 41.7874 43.2898C41.8551 43.4068 41.9289 43.5204 42.0086 43.6296C42.0979 43.7393 42.1902 43.841 42.2819 43.9424C42.4685 43.1927 42.6069 42.4318 42.6966 41.6643C42.8932 40.7651 43.1055 39.8657 43.3566 38.9781C43.8279 37.3067 44.5004 35.7208 45.0465 34.074ZM42.1412 45.3256C42.3844 45.3955 42.6191 45.492 42.8414 45.6139C42.5079 45.258 42.045 45.0536 41.5589 45.0475C40.4398 45.0653 39.3356 45.3049 38.3098 45.7529C38.2484 46.1211 38.1721 46.483 38.0822 46.8357C39.327 45.9535 40.7218 44.9218 42.1412 45.3256ZM37.6833 34.1789C37.6521 31.856 38.0915 28.5831 36.9026 26.476C35.7245 24.3798 33.0118 24.5547 31.0505 25.234L31.0208 25.2404C30.9387 25.4065 30.8444 25.5794 30.738 25.755C30.2598 26.6132 29.746 27.2323 29.5945 27.1438C29.443 27.0548 29.6897 26.3329 30.1406 25.5118C29.9272 25.6025 29.7038 25.669 29.4759 25.7094C29.0933 25.7245 28.8409 25.673 28.8109 25.5505C28.7809 25.428 28.9743 25.2607 29.3116 25.0911C29.6612 24.8803 29.9802 24.6226 30.2622 24.327C30.4227 24.1219 30.5701 23.9074 30.7046 23.6841C32.0159 20.7011 30.9777 17.5499 30.2797 14.462C29.8123 12.3776 27.4598 11.6145 25.6152 12.421C24.6889 12.8232 23.829 12.4837 22.899 12.7266C22.8475 12.7583 22.7898 12.7812 22.7305 12.794C19.3834 13.5716 18.9895 15.5112 19.1357 18.5137C19.1449 18.6301 19.1842 18.74 19.1904 18.8227C19.1966 18.9054 19.1849 18.9612 19.1482 18.9887C19.1115 19.0161 19.053 19.0007 18.982 18.9615C18.8809 18.9066 18.7975 18.8267 18.738 18.7285C18.694 18.6677 18.6504 18.5946 18.6023 18.5151C18.5668 18.4403 18.5306 18.362 18.4967 18.2752C18.4895 18.2614 18.4855 18.2427 18.4787 18.2284C18.2308 18.7439 18.11 19.4863 18.5928 19.6685C18.8177 19.7486 18.9667 19.9628 18.9646 20.2026C19.1781 21.2685 19.278 22.4611 19.8367 23.4133C20.2717 24.1146 20.8304 24.7311 21.4852 25.232C21.511 25.2418 21.5406 25.2549 21.5665 25.2652C21.6447 25.2791 21.7193 25.3107 21.7846 25.3553C21.8191 25.3716 21.8498 25.3846 21.8878 25.4002C22.3827 25.5994 22.8936 25.7555 23.4149 25.8671C23.788 25.9592 24.1005 25.9746 24.1278 26.1019C24.1521 26.215 23.9323 26.4255 23.4118 26.5065C22.9623 26.5676 22.5042 26.5349 22.067 26.4111C22.0686 26.4187 22.067 26.4306 22.0694 26.4418L22.0635 26.451C22.0992 26.6346 22.0249 26.8222 21.8724 26.93C20.0137 28.298 18.9854 30.5296 19.1481 32.8406C19.2922 35.5471 20.4528 38.1004 22.3955 39.9845C23.3561 40.9766 24.3372 41.9347 25.3898 42.8263C25.9386 43.2078 26.3992 43.7028 26.7414 44.2782C27.7888 46.329 29.288 48.1133 31.124 49.4954C31.3566 48.5827 31.8953 47.7786 32.6495 47.2189C32.6858 47.1942 32.7237 47.1728 32.764 47.1547C32.767 47.0949 32.778 47.0386 32.7799 46.9737C32.7842 46.8666 32.7874 46.7565 32.7907 46.6422C32.7911 46.6268 32.7911 46.6073 32.7906 46.5878C32.7498 46.2458 32.6738 45.9091 32.5634 45.5831C32.2411 44.6621 31.8254 43.7765 31.3218 42.9415C31.1817 42.7052 31.0325 42.4631 30.8756 42.2347L30.757 42.0641L30.6242 41.9008C30.5368 41.7854 30.4424 41.6762 30.3402 41.5745C30.2691 41.4957 30.1882 41.4153 30.1022 41.3355L30.0386 41.3846L29.9252 41.1622C29.5925 40.8664 29.2772 40.551 28.9816 40.2176C28.7444 39.9378 28.5475 39.6255 28.3971 39.2901C28.2561 38.9954 28.1396 38.7076 28.0124 38.4258C27.7577 37.8739 27.5067 37.3757 27.2264 36.888C27.0923 36.6426 26.9526 36.4105 26.8114 36.1866C26.7438 36.0722 26.6768 35.9609 26.6104 35.8499L26.5152 35.6981L26.4119 35.5427C26.1306 35.1212 25.8717 34.7309 25.6354 34.3742C24.7057 32.9454 24.0221 32.1564 24.1228 32.045C24.1961 31.9505 25.0888 32.6069 26.1833 33.9634C26.4614 34.2989 26.7514 34.6699 27.0598 35.0708L27.1742 35.2237L27.2968 35.3934C27.3707 35.5028 27.4496 35.6153 27.5248 35.7281C27.6846 35.9485 27.8405 36.185 27.9914 36.4347C28.2506 36.8414 28.5053 37.3029 28.7429 37.7729C28.83 37.6913 28.923 37.6127 29.0226 37.5353L29.0218 37.5344C29.4948 37.2078 30.0408 37.0034 30.6116 36.9385C31.0284 36.8844 31.2927 36.898 31.3187 36.9828C31.3452 37.0669 31.115 37.2141 30.7369 37.3776C30.2689 37.5537 29.8209 37.7814 29.4024 38.0556C29.2681 38.1547 29.1433 38.2639 29.0256 38.3674C29.1022 38.5427 29.1836 38.7213 29.2711 38.8938C29.3615 39.0846 29.472 39.2664 29.601 39.4337C30.012 39.242 30.4451 39.102 30.8904 39.0164C31.31 38.938 31.578 38.928 31.6036 39.0007C31.6292 39.0734 31.4114 39.2295 31.0276 39.4202C30.7332 39.5378 30.3956 39.7239 30.0159 39.919C30.1678 40.0782 30.3342 40.2385 30.5045 40.3974C31.2722 40.0551 31.8581 40.044 31.8727 40.1465C31.8977 40.2632 31.4734 40.4441 30.8977 40.7943C30.9527 40.8497 31.0027 40.9013 31.0535 40.9569C31.163 41.075 31.2648 41.199 31.359 41.3294L31.5097 41.5242L31.6425 41.7266C31.8123 41.9913 31.9582 42.2543 32.0992 42.5099C32.3233 42.9362 32.5269 43.3728 32.7074 43.8196C32.7054 43.7735 32.7082 43.7327 32.7067 43.6866C32.7105 42.433 32.7776 41.0607 32.6978 39.6725C32.6662 39.3242 32.6669 39.0017 32.6024 38.6473C32.577 38.4752 32.5521 38.303 32.5267 38.131L32.51 38.0014L32.4875 37.8969L32.4369 37.6414C32.3694 37.3072 32.3031 36.9812 32.2509 36.6474C32.1987 36.3135 32.1401 36.0017 32.1083 35.672C32.0764 35.3422 32.0272 35.0199 32.0302 34.7303C32.0263 34.5821 32.0217 34.4362 32.0186 34.2942L32.0156 34.0793L32.0125 33.9743C32.01 33.9088 32.0182 33.8906 32.0165 33.8482C32.0466 33.3002 32.1474 32.7586 32.3178 32.237C32.6291 31.3089 32.9629 30.6306 33.1326 30.1521C33.3165 29.6666 33.4132 29.3754 33.4835 29.3915C33.5415 29.407 33.5736 29.7013 33.4975 30.238C33.4291 30.789 33.1861 31.5307 32.9766 32.421C32.8682 32.8907 32.8151 33.3708 32.8167 33.8533C32.8162 33.8804 32.8168 33.9077 32.8189 33.9348L32.8263 34.0425L32.8444 34.2542C32.8555 34.3966 32.8679 34.5451 32.8789 34.6896C32.9015 34.9833 32.9401 35.2756 32.9928 35.5655C33.0274 35.8539 33.0944 36.1661 33.1584 36.4815C33.222 36.797 33.2874 37.119 33.363 37.4515L33.449 37.852L33.4682 37.9811C33.4971 38.1524 33.5225 38.3245 33.5479 38.4966C33.6125 38.8346 33.6261 39.2237 33.6606 39.5999C33.7084 40.9686 33.6864 42.3381 33.5947 43.704C33.5682 44.3247 33.539 44.9138 33.5431 45.4571C33.5415 45.5943 33.5387 45.7281 33.5399 45.861L33.5379 45.9597L33.5362 46.0815L33.5273 46.2752C33.473 47.2538 32.914 47.937 32.535 48.8015C32.3654 49.1723 32.2433 49.5637 32.1714 49.9658C32.1304 50.1913 32.1403 50.4232 32.1993 50.6446C32.2347 50.7554 32.5016 51.0732 32.4951 51.1528C32.5023 51.0419 32.5193 50.94 32.5346 50.8273C32.5968 50.517 32.7088 50.2187 32.8673 49.9454C32.9534 49.7927 33.0541 49.6496 33.1685 49.5167C33.2406 49.4505 33.3122 49.3876 33.3837 49.3215L33.4094 49.2964C33.4232 49.2898 33.4643 49.2609 33.4643 49.2609L33.4781 49.2542L33.5347 49.2262L33.6401 49.1687C34.0791 48.963 34.5993 49.0547 34.9438 49.3982C35.2142 49.6709 35.3414 50.0552 35.287 50.4362C35.3174 50.4334 35.344 50.4276 35.3828 50.4267C35.5675 50.4425 35.735 50.5419 35.8378 50.6973C35.9164 50.8189 35.959 50.9608 35.9607 51.1058C35.9592 51.1526 35.9573 51.2 35.9551 51.2438L36.0589 51.1275C36.1731 51.0052 36.256 50.9483 36.2942 50.9719C36.3322 50.9949 36.3246 51.0942 36.2767 51.253C36.2475 51.3496 36.2132 51.4447 36.1743 51.5376C36.1143 51.6403 36.0395 51.762 35.9563 51.8935C35.7864 52.1529 35.5726 52.4107 35.4004 52.7134L35.333 52.8182C35.3123 52.8538 35.2956 52.8912 35.2836 52.9308C35.2661 52.9937 35.2564 53.0587 35.2547 53.1246C35.2513 53.1723 35.259 53.2203 35.2769 53.2646C35.2904 53.2733 35.2743 53.2694 35.2976 53.2876C35.3397 53.3219 35.3962 53.3647 35.3873 53.3428C35.4907 53.3618 35.5974 53.3347 35.6788 53.2681C35.8251 53.1781 35.9591 53.07 36.0776 52.9458C36.1979 52.818 36.3104 52.6882 36.4112 52.5603L36.4484 52.5133L36.4679 52.4938L36.4686 52.4973L36.4801 52.4795C36.5006 52.4476 36.5349 52.3896 36.5349 52.3896C36.5745 52.3219 36.6232 52.2523 36.6491 52.1965C36.6749 52.1408 36.7102 52.065 36.7393 51.9996C36.7555 51.9454 36.7691 51.8838 36.7883 51.8116C36.8054 51.7466 36.8264 51.6829 36.8524 51.6203C36.8904 51.5255 36.9511 51.4411 37.0289 51.3747C37.1496 51.278 37.3092 51.2453 37.4585 51.2867C37.5596 51.3168 37.652 51.3704 37.7279 51.4445C37.758 51.465 37.7847 51.4915 37.806 51.5218C37.8436 51.5649 37.8772 51.6111 37.9067 51.6603C37.95 51.7371 37.982 51.82 38.0015 51.9062C38.0672 52.2049 38.0616 52.5141 37.9852 52.81C37.9569 52.9498 37.9186 53.0874 37.8712 53.2218C37.8462 53.2863 37.8211 53.3509 37.7951 53.4157L37.7813 53.4424C37.7999 53.4384 37.8154 53.4393 37.8345 53.4352C37.8463 53.429 37.8565 53.4204 37.8636 53.4094C38.0079 53.2389 38.1122 53.039 38.1704 52.8226C38.2606 52.5375 38.3021 52.2385 38.2925 51.9394C38.2348 50.8987 37.8546 49.9014 37.2051 49.0876C36.286 47.8012 36.9637 46.8655 37.1794 45.468C37.3561 44.0353 37.4594 42.5938 37.4892 41.1503C37.6146 38.8472 37.7133 36.493 37.6833 34.1789ZM33.8344 14.2521C33.8316 14.2099 33.8215 14.1677 33.8048 14.129C33.7626 14.0329 33.7061 13.9436 33.638 13.8636C33.5543 13.7654 33.4631 13.6735 33.365 13.5889C33.2628 13.4924 33.1456 13.3897 33.0271 13.2662L32.9265 13.143C32.8886 13.0962 32.8567 13.0454 32.8314 12.9912C32.7745 12.8782 32.7403 12.7555 32.7305 12.6292C32.724 12.545 32.7227 12.4603 32.7271 12.3758L32.7305 12.1759C32.7336 12.0458 32.7345 11.9204 32.735 11.7951C32.7366 11.5992 32.7022 11.4048 32.6343 11.2207C32.5674 11.0633 32.4653 10.9236 32.3366 10.8112C32.0444 10.5912 31.7086 10.4377 31.352 10.361C31.0014 10.2683 30.6505 10.2157 30.3213 10.1517C29.9921 10.0876 29.6956 10.0313 29.4238 9.98025C28.9758 9.89627 28.535 9.77319 28.1077 9.61184C27.4465 9.34323 27.224 9.10516 27.2523 9.05575C27.291 8.98139 27.5707 9.08936 28.2243 9.22698C28.5499 9.29393 28.9755 9.35157 29.5142 9.41188C29.7893 9.43948 30.0869 9.46648 30.4142 9.50454C30.5454 9.51548 30.6844 9.52896 30.8248 9.54586C30.8073 9.49412 30.7759 9.44804 30.7336 9.41273C30.5706 9.29978 30.3843 9.22564 30.1883 9.19641C29.9517 9.14521 29.6884 9.11614 29.4118 9.08147L29.203 9.05179L29.0851 9.0269C29.0228 9.01809 28.9612 9.00542 28.9002 8.98839C28.6557 8.91937 28.4122 8.83848 28.1874 8.75359C28.202 8.621 28.2198 8.48826 28.2345 8.35567L28.2581 8.15458L28.2502 8.0469C28.249 8.007 28.2418 7.9684 28.2294 7.93037C28.2203 7.89058 28.2076 7.85103 28.1921 7.81315C28.1185 7.64403 28.0167 7.48834 27.8911 7.35364C27.6067 7.06226 27.2817 6.81449 26.9269 6.61643C26.2705 6.25274 25.5716 5.97267 24.8464 5.78333C23.8478 5.45664 22.7829 5.39147 21.7533 5.5945C21.7436 5.6003 21.7371 5.6096 21.7268 5.61551C21.6552 5.67845 21.559 5.7572 21.4693 5.84833C21.4258 5.88831 21.3884 5.93438 21.3584 5.98573C21.3962 6.00296 21.436 6.01663 21.4765 6.02643C21.5583 6.05271 21.643 6.06993 21.7289 6.07843C21.9382 6.10537 22.149 6.11771 22.3604 6.11514C22.5864 6.11734 22.8181 6.10671 23.0663 6.08512C23.8966 6.00516 24.734 6.13451 25.5026 6.46248C25.9163 6.64315 26.2954 6.89569 26.6213 7.20881C26.8414 7.42099 27.0219 7.67178 27.1542 7.94771C27.2264 8.13934 27.2514 8.25602 27.2138 8.27941C27.1758 8.3029 27.0852 8.22882 26.9412 8.07956C26.7494 7.89142 26.5435 7.71846 26.3266 7.56054C25.6655 7.10858 24.9027 6.82955 24.1072 6.74829C24.3164 6.8508 24.5151 6.97351 24.7005 7.11442C25.087 7.42349 25.4165 7.79764 25.674 8.22055C25.8052 8.44969 25.9857 8.64659 26.203 8.79652C26.3253 8.84739 26.4616 8.853 26.5874 8.81174C26.6855 8.77906 26.7469 8.77379 26.7719 8.7996C26.7968 8.82491 26.7787 8.88481 26.6993 8.98796C26.5446 9.15379 26.316 9.2277 26.0942 9.1839C25.7495 9.07931 25.4452 8.86934 25.225 8.58322C25.0881 8.43509 24.9559 8.2727 24.8094 8.13616C24.6463 7.97884 24.4687 7.83732 24.2788 7.7143C23.8046 7.4082 23.2606 7.23014 22.6991 7.19586C22.3647 7.17097 22.0293 7.20069 21.7048 7.28354C21.3479 7.36703 21.0129 7.5256 20.7223 7.74913C20.3913 7.99031 20.1371 8.32226 19.9896 8.70528C19.8421 9.08831 19.8077 9.50622 19.8905 9.90903C19.921 10.0119 19.9598 10.1118 20.0053 10.2088C20.0594 10.2992 20.1205 10.3832 20.1827 10.4719C20.332 10.6433 20.5153 10.782 20.7213 10.8772C20.947 10.9857 21.2227 11.0554 21.569 11.1771C21.8869 11.2912 22.1794 11.4661 22.431 11.6927C22.4761 11.6629 22.525 11.6408 22.5765 11.6261C22.8598 11.5156 23.1624 11.4628 23.4663 11.4705C23.4365 11.4415 23.4067 11.413 23.3786 11.3873C23.2423 11.2031 23.055 11.0631 22.8402 10.9856C22.3785 10.848 21.6652 10.7016 21.3127 10.13C21.1354 9.88696 21.0399 9.59363 21.0394 9.29256C21.0137 8.99426 21.0864 8.69599 21.2463 8.44399C21.4169 8.20764 21.6764 8.0526 21.9645 8.0156C22.1881 7.98452 22.415 7.98863 22.6374 8.02755C23.2476 8.14173 23.8384 8.3446 24.3911 8.62962C24.7786 8.82066 24.9812 8.9489 24.9665 8.98799C24.9511 9.02669 24.7121 8.98342 24.3052 8.86363C23.7464 8.68293 23.1721 8.55472 22.5899 8.47998C22.2445 8.44844 21.8275 8.49462 21.7028 8.73645C21.5717 9.08583 21.6123 9.47814 21.812 9.79403C21.9335 9.95816 22.0996 10.0831 22.2909 10.1536C22.3977 10.1982 22.5084 10.2337 22.6213 10.2602C22.754 10.2977 22.8909 10.3354 23.0229 10.37L23.2655 10.4664C23.3404 10.5095 23.4211 10.5545 23.4935 10.6055C23.6158 10.705 23.7313 10.8118 23.8395 10.9265C23.9976 11.107 24.1949 11.2496 24.4157 11.3428C24.5272 11.3796 24.6415 11.4074 24.7569 11.4259C25.0015 11.3729 25.2425 11.3027 25.4775 11.2168C25.4319 11.2028 25.3823 11.1897 25.3364 11.1768C24.8775 11.0423 24.4286 10.8761 23.9928 10.678C23.7811 10.5808 23.5817 10.4577 23.3995 10.3119C23.2348 10.1792 22.8594 9.75519 22.9805 9.52102C23.1623 9.15284 24.0625 9.28085 24.3622 9.38874C24.6327 9.48762 24.8936 9.61336 25.1401 9.76229C25.5328 9.995 25.7522 10.1085 25.7392 10.1578C25.7261 10.2071 25.4641 10.1624 25.0312 9.99701C24.6628 9.86051 24.0068 9.61404 23.6289 9.77335C23.6941 9.98655 24.0195 10.1037 24.212 10.185C24.6329 10.3504 25.0628 10.4895 25.501 10.601C25.7374 10.6686 25.9701 10.719 26.2429 10.8095C26.2837 10.8229 26.3235 10.8392 26.3623 10.8584L26.4059 10.8802L26.4155 10.886C26.6318 10.8354 26.8554 10.8217 27.0766 10.8456C26.925 10.7344 26.7919 10.5992 26.6826 10.4451C26.6069 10.3303 26.5542 10.2022 26.5274 10.0674C26.5089 9.9815 26.5103 9.93418 26.5314 9.92225C26.5524 9.90982 26.5912 9.94852 26.6452 10.0162C26.7129 10.1137 26.7919 10.2024 26.8796 10.2829C27.2069 10.5635 27.5976 10.7596 28.0179 10.8538C28.6656 11.0032 29.3255 11.0893 29.9896 11.1116C30.0847 11.1187 30.1824 11.121 30.2815 11.1272C30.3806 11.1334 30.4888 11.1498 30.5929 11.1623C30.8178 11.1959 31.0399 11.2507 31.2552 11.3255C31.7511 11.4658 32.1793 11.7829 32.4593 12.2178C32.6334 12.5318 32.6776 12.9017 32.582 13.2472C32.5305 13.441 32.4477 13.6258 32.3368 13.7927C32.5667 13.9796 32.7437 14.2237 32.8511 14.5008C32.9699 14.8636 32.9499 15.2578 32.7937 15.6052C32.5315 16.1814 32.2668 16.5991 32.1318 16.9842C32.0903 17.0898 32.059 17.1985 32.0377 17.3098C32.28 18.0762 32.4391 18.8664 32.5126 19.6669C32.5691 20.4589 32.5291 21.2548 32.3941 22.0366C32.4383 22.0224 32.4814 22.0052 32.5234 21.9851C32.6885 21.8968 32.8417 21.7879 32.9795 21.6605C33.2654 21.4105 33.5072 21.114 33.6949 20.7831C33.7508 20.6739 33.7681 20.5486 33.7438 20.4281C33.7143 20.2807 33.6573 20.1402 33.5764 20.0134C33.4618 19.8419 33.3481 19.6745 33.2371 19.5029C33.1011 19.298 32.9896 19.0773 32.9053 18.846C32.8011 18.5545 32.7933 18.2366 32.8828 17.9405C32.9697 17.6989 33.1001 17.4759 33.2678 17.2825C33.53 16.9636 33.7764 16.6956 33.9511 16.4389C34.0843 16.2513 34.1401 16.0189 34.1063 15.7905C34.1034 15.7378 34.0881 15.6861 34.0624 15.6399C34.0492 15.5904 34.0247 15.5449 33.9906 15.5063L33.9492 15.4407L33.8753 15.3709L33.8313 15.3297L33.7435 15.2465L33.5647 15.0847L33.5171 15.0442C33.502 15.0279 33.4838 15.0164 33.5032 14.9964L33.5661 14.8931C33.6424 14.7584 33.7297 14.6213 33.8037 14.4738C33.8232 14.4374 33.8347 14.398 33.8375 14.3572C33.8395 14.3393 33.842 14.3219 33.8456 14.3042L33.8344 14.2521ZM44.6446 65.7368C45.4826 65.5258 44.7455 64.6268 44.3532 64.3792C43.8826 64.0924 43.4618 63.7288 42.9801 63.4687L42.9714 63.4822C42.9326 64.9911 42.6734 66.4854 42.2017 67.9176C42.2693 67.9776 42.3479 68.0231 42.4329 68.0518C42.6196 68.0984 42.8227 68.1092 42.9156 67.9049L42.9296 67.8427L42.9264 67.8281C42.9287 67.8191 42.9298 67.8073 42.9317 67.7989C42.9428 67.7744 42.9492 67.7482 42.9503 67.7215C42.9529 67.6845 42.9582 67.648 42.9657 67.612C42.9644 67.569 42.9674 67.5292 42.9676 67.4932C42.9726 67.3352 42.9579 67.1741 42.9511 67.0345C42.9283 66.4212 43.216 66.6373 43.5969 66.7511C44.2632 66.9531 43.9637 66.0108 43.7769 65.6473C43.7107 65.5204 43.6408 65.4297 43.5976 65.3608C43.5235 65.2901 43.4733 65.2348 43.4864 65.1855C43.4994 65.1362 43.5616 65.1022 43.6776 65.0969C43.8609 65.1204 44.0318 65.2037 44.1642 65.3332C44.3041 65.468 44.4163 65.6283 44.4955 65.8063C44.5391 65.7716 44.5902 65.748 44.6446 65.7368ZM39.8257 44.0664C39.3886 43.0291 39.0551 41.9457 38.6534 40.8927C38.6064 42.0182 38.5853 43.2597 38.4693 44.4828C38.9138 44.3198 39.3666 44.1808 39.8257 44.0664ZM31.6713 13.6682C31.9648 13.37 32.0556 12.9258 31.9033 12.5347C31.6952 12.2391 31.3938 12.0227 31.0476 11.9211C30.8734 11.8591 30.6951 11.8097 30.5139 11.7736C30.4206 11.7582 30.3252 11.747 30.2316 11.7322C30.1385 11.7173 30.0363 11.7113 29.9418 11.7046L29.845 11.69C30.3991 11.9372 30.8317 12.397 31.046 12.9666C31.4425 14.1426 31.5348 15.3714 31.8382 16.5669C31.9588 16.2002 32.1428 15.8083 32.2918 15.4128C32.3799 15.1862 32.3827 14.9347 32.2999 14.7057C32.1778 14.4603 31.9862 14.2558 31.7492 14.1191L31.4754 13.9411L31.6713 13.6682ZM37.397 52.0609C37.3902 52.027 37.3793 51.9934 37.3642 51.9623C37.3626 51.9547 37.3635 51.9587 37.3659 51.9503C37.3743 51.9527 37.3642 51.9427 37.3538 51.9333C37.3428 51.9505 37.3346 51.9686 37.331 51.989C37.2949 52.0754 37.2616 52.192 37.2108 52.3006C37.116 52.4932 37.0306 52.6563 36.9351 52.8142C36.8124 53.0334 36.655 53.231 36.4692 53.3992C36.3748 53.5056 36.2723 53.6037 36.1615 53.6925C36.1975 53.6958 36.2301 53.701 36.2657 53.705C36.4372 53.7057 36.608 53.6732 36.7673 53.6095C36.8481 53.5747 36.9246 53.5318 36.997 53.482C37.0166 53.4582 37.04 53.4373 37.0651 53.4198C37.0979 53.3789 37.128 53.3355 37.1553 53.2911L37.1639 53.2776L37.1809 53.2464L37.2114 53.1728C37.2315 53.122 37.2511 53.0665 37.2663 53.0125C37.3058 52.9026 37.3378 52.7895 37.3621 52.675C37.4138 52.4747 37.4253 52.2662 37.397 52.0609ZM37.4717 55.2404C37.4022 55.2204 37.3386 55.186 37.2825 55.1405C37.1693 55.0464 37.215 55.0414 37.1132 55.1303C36.9713 55.2506 36.8443 55.3841 36.7125 55.5122C36.5338 55.7011 36.3281 55.8621 36.1023 55.9908C36.4075 56.6851 36.7086 57.3797 37.0645 58.0436C37.2037 57.1123 37.3404 56.1716 37.4747 55.2423L37.4717 55.2404ZM36.3943 54.2501C36.3313 54.2483 36.268 54.2424 36.2082 54.2356C36.1484 54.2289 36.0889 54.2063 36.0315 54.1912L35.9862 54.1813L35.9526 54.169L35.9356 54.161L35.8713 54.1357C35.8412 54.1226 35.8123 54.1082 35.7841 54.0921C35.7471 54.0715 35.712 54.0473 35.6794 54.0205C35.6643 54.0042 35.6528 53.9871 35.6386 53.9749L35.627 53.9773C35.4469 54.0197 35.2575 53.9975 35.0915 53.9148C35.0486 53.896 35.0077 53.872 34.9709 53.8429C35.0992 54.0193 35.2175 54.2026 35.3246 54.3931C35.4265 54.5789 35.5231 54.7695 35.6169 54.9564C35.7332 54.8712 35.8404 54.7732 35.9359 54.6645C36.0808 54.5187 36.2342 54.3812 36.3948 54.2527L36.3943 54.2501ZM35.3806 51.1444L35.3746 51.1139C35.234 51.2033 35.0073 51.3962 34.8112 51.5556C34.5471 51.7507 34.3304 52.0049 34.1793 52.2978C34.1268 52.428 34.1092 52.5691 34.1275 52.7084C34.1335 52.7388 34.1374 52.7691 34.1393 52.7999L34.1833 52.9315C34.1857 52.9426 34.1925 52.957 34.1957 52.9722C34.2789 53.0484 34.3609 53.1243 34.4368 53.2063C34.4818 53.2003 34.525 53.1836 34.5634 53.159C34.5861 53.1399 34.6076 53.1199 34.6281 53.0981L34.6274 53.0946C34.6359 52.9554 34.6685 52.8184 34.7234 52.6898C34.7451 52.6339 34.7736 52.5808 34.8072 52.5313L34.9025 52.3972C34.9803 52.287 35.0643 52.1813 35.1542 52.0806C35.2384 51.9146 35.3022 51.7392 35.3459 51.5581C35.3807 51.4239 35.3924 51.285 35.3817 51.1468L35.3806 51.1444ZM36.8962 59.275C36.8595 59.2485 36.8291 59.2149 36.805 59.1762C36.1297 58.0261 35.5391 56.8278 35.038 55.5907C34.6481 54.7514 34.0972 53.9974 33.417 53.3709C32.8057 52.7714 32.2284 52.1371 31.6886 51.4716C31.4549 51.2132 31.1946 50.98 30.9122 50.7765C30.7909 50.6842 30.1339 50.0358 30.0143 50.0615C28.581 50.4627 25.3631 50.5865 25.3186 52.5214C25.3069 53.2287 25.4262 54.2207 25.0922 54.9154C25.4968 56.3275 27.7631 56.6864 29.1318 56.8195C28.678 56.3024 28.4267 55.8591 28.5295 55.7552C28.6539 55.6265 29.2649 56.0628 29.8922 56.6953C30.4912 57.2912 31.0218 57.8429 30.9052 57.9854C30.8469 58.057 30.6133 57.9973 30.3006 57.8193C31.3313 60.0243 32.1269 62.117 33.9178 63.9253C33.993 63.9963 34.0452 64.0876 34.0679 64.1884C34.1174 64.2597 34.1519 64.34 34.1697 64.4249C34.2737 64.9389 34.4082 65.4458 34.5734 65.9434C35.1902 64.6798 35.862 63.443 36.5895 62.2342C36.6567 61.2592 36.7674 60.2686 36.8975 59.2775L36.8962 59.275ZM34.5803 50.2986C34.5559 50.1289 34.4589 49.978 34.315 49.8858C34.2771 49.8707 34.2401 49.8427 34.1981 49.8285L34.1362 49.8143L34.1025 49.802L34.0941 49.7996C34.0289 49.8019 33.961 49.797 33.9036 49.8014C33.8844 49.8171 33.8611 49.8285 33.8361 49.8322C33.6609 49.9417 33.5202 50.0992 33.4316 50.2868C33.3247 50.4989 33.2376 50.7205 33.1727 50.9495C33.1703 50.9579 33.1671 50.9623 33.1678 50.9658C33.1667 50.9973 33.1694 51.0247 33.1685 51.0597C33.1688 51.1886 33.1635 51.3424 33.1647 51.5144C33.1663 51.6863 33.2016 51.9022 33.2555 51.8986C33.2944 51.8934 33.3318 51.8817 33.3656 51.8628C33.466 51.8111 33.5627 51.7523 33.6549 51.6871C33.6684 51.6763 33.6784 51.6667 33.6912 51.6555C33.7371 51.595 33.7838 51.5379 33.8296 51.4774C33.9408 51.3632 34.0599 51.2567 34.1855 51.1585C34.1989 51.1476 34.2088 51.1376 34.2218 51.1269C34.303 51.0154 34.3843 50.9044 34.4586 50.7802L34.5212 50.6531L34.5455 50.6046L34.549 50.5843L34.5596 50.5429C34.5877 50.4656 34.5955 50.382 34.5808 50.3011L34.5803 50.2986ZM20.3575 6.85045C20.2977 6.86329 20.2376 6.87198 20.1742 6.88557C19.5641 7.03873 18.976 7.2696 18.4239 7.57092C18.0954 7.74551 17.7881 7.95731 17.5078 8.20187C17.2076 8.45388 16.9626 8.76485 16.7883 9.11662C16.6224 9.5242 16.543 9.96236 16.5545 10.4032C16.5205 10.8522 16.6304 11.3004 16.8681 11.6827C16.894 11.7151 16.9239 11.7441 16.9566 11.7693C17.0448 11.8349 17.146 11.8803 17.2537 11.9016C16.919 11.4889 16.8263 10.9297 17.0085 10.4314C17.0592 10.234 17.1302 10.0429 17.2209 9.86066C17.3704 9.57972 17.5485 9.31481 17.7525 9.06973C18.0774 8.6634 18.27 8.41442 18.3562 8.45086C18.4424 8.48731 18.3751 8.83039 18.1393 9.31163C18.0264 9.54721 17.8703 9.81953 17.7611 10.1093C17.7021 10.2556 17.6558 10.4072 17.6227 10.5617C17.5974 10.723 17.5932 10.8871 17.6096 11.0495C17.5997 11.329 17.7393 11.5923 17.9756 11.7402C18.2062 11.8741 18.4587 11.9631 18.7217 12.0028C19.2071 12.0867 19.5403 12.1129 19.5485 12.2052C19.5554 12.274 19.3344 12.388 18.9248 12.4368C19.0311 12.516 19.1423 12.5978 19.2545 12.6873C19.3668 12.7768 19.4915 12.8826 19.6154 12.9966C20.0843 12.6413 20.5952 12.3467 21.1372 12.1188C20.8486 12.0307 20.5645 11.9269 20.2871 11.8078L20.0373 11.6776L19.8019 11.5094C19.6606 11.3923 19.5285 11.2643 19.4051 11.128C19.2939 10.9823 19.1931 10.8285 19.1039 10.668C19.0249 10.508 18.9627 10.3406 18.9181 10.1674C18.7567 9.53259 18.8207 8.86103 19.0995 8.26913C19.3406 7.75876 19.7036 7.31629 20.1556 6.98042C20.2228 6.93061 20.2918 6.89203 20.3575 6.85045ZM29.012 49.1471C28.7394 48.8764 28.4728 48.5971 28.2206 48.311C28.1734 48.3755 28.1133 48.4286 28.0438 48.4673C26.7629 49.2157 25.1329 48.987 24.3089 50.5022C23.7711 51.5555 23.7347 52.7971 24.21 53.8822C24.2616 53.2995 24.1469 52.5177 24.1956 52.2178C24.2922 51.5853 24.6139 51.0095 25.1005 50.597C26.2438 49.6631 27.6394 49.4734 29.012 49.1471ZM27.5072 47.4539C26.8514 46.6156 26.2562 45.731 25.727 44.8065C25.3139 44.1776 24.7984 43.6225 24.2027 43.1645C24.2806 44.2721 24.1651 45.3847 24.2317 46.4932C24.2398 46.595 24.2166 46.6972 24.1655 46.7853C23.9439 47.5383 23.8661 48.3269 23.9358 49.1097C24.1721 48.8635 24.439 48.6493 24.7302 48.4727C25.6053 47.9525 26.6545 47.9466 27.5072 47.4539ZM18.8558 13.7024C18.782 13.6326 18.6987 13.5681 18.6176 13.4988C18.3687 13.3018 18.0977 13.1096 17.837 12.9114L17.7011 12.827L17.697 12.8278C17.6364 12.8588 17.5726 12.8847 17.5072 12.9034C17.4225 12.9253 17.3352 12.9351 17.2482 12.9316C17.1785 12.9275 17.1088 12.9187 17.0403 12.9059C16.9749 12.8925 16.9364 12.8775 16.8825 12.8616C16.8208 12.8431 16.7597 12.8208 16.7005 12.795C16.6659 13.0645 16.5658 13.3211 16.4094 13.5427C16.0499 14.0305 15.5324 14.2673 15.2954 14.5961C15.0501 15.0477 14.9707 15.5719 15.0717 16.0765C15.1044 16.4002 15.1769 16.7186 15.2868 17.0247C15.364 17.2692 15.5037 17.4891 15.6928 17.662C15.7067 17.6463 15.7214 17.6315 15.7374 17.6175C15.8362 17.5292 15.9262 17.4438 16.0173 17.3614C16.1926 17.1985 16.3498 17.0586 16.4734 16.9269C16.6808 16.7149 16.8518 16.4706 16.9805 16.2031C17.1883 15.7749 17.2755 15.5643 17.3536 15.5825C17.39 15.5905 17.4104 15.649 17.4174 15.7722C17.4225 15.9624 17.402 16.1533 17.3559 16.338C17.2811 16.6849 17.1318 17.0107 16.9184 17.2927C16.7851 17.4798 16.6397 17.6574 16.4832 17.8246C16.4046 17.9118 16.3234 18.0037 16.2353 18.105C16.1943 18.1492 16.1473 18.2021 16.1108 18.2501L16.012 18.3897C15.7168 18.8419 15.6613 19.4112 15.8637 19.913C15.889 19.9868 15.9178 20.0599 15.95 20.1312C15.9874 20.1977 16.0255 20.2677 16.0642 20.3376C16.1667 20.4672 16.2848 20.584 16.4153 20.6849C16.6315 20.8546 16.8157 21.0613 16.9587 21.2963C17.1056 21.5913 17.1596 21.9237 17.1129 22.2497C17.0769 22.5353 17.0052 22.7816 16.9883 22.9575C16.9855 23.0522 17.0016 23.147 16.9996 23.2451C17.0129 23.3442 17.0429 23.4472 17.0578 23.5534C17.1895 24.0054 17.4382 24.4143 17.7795 24.7378C18.1393 25.0986 18.5974 25.3448 19.0959 25.4454C19.3674 25.488 19.6455 25.4563 19.9007 25.3545C19.4675 24.9477 19.1045 24.4714 18.8269 23.945C18.6507 23.5919 18.5044 23.2238 18.3905 22.8451C18.3645 23.0742 18.3513 23.3042 18.3519 23.535C18.3546 23.9296 18.4007 24.2346 18.3085 24.2608C18.2301 24.2776 18.0438 24.0809 17.9025 23.604C17.7744 23.0122 17.7632 22.4012 17.8699 21.8061L17.8835 21.7054L17.8924 21.5852C17.8988 21.505 17.9045 21.4214 17.9106 21.3445C17.9173 21.2675 17.9276 21.1882 17.9349 21.1121C17.9289 21.0474 17.9235 20.9856 17.9181 20.9239C17.9203 20.8801 17.9191 20.8355 17.9139 20.7917C17.9014 20.7162 17.8845 20.6374 17.8689 20.5646C16.8318 19.8161 16.9934 17.9924 17.8516 17.0918C17.634 15.8651 18.0061 14.6081 18.8558 13.7024ZM23.0939 44.0973C23.0875 44.0479 23.084 43.9974 23.0776 43.9481C23.0379 43.8293 23.0051 43.7079 22.9803 43.5854C22.9355 43.4502 22.837 43.2828 22.7686 43.1257L22.7405 43.0853L22.7341 43.0555L22.682 42.9573C22.637 42.8924 22.6024 42.8217 22.5499 42.7584L22.5492 42.7575C22.4518 42.6247 22.3475 42.4965 22.2372 42.3743C21.3829 41.5174 20.4081 40.7915 19.3438 40.2199C18.5138 39.7286 17.9963 39.3848 18.0522 39.2486C18.1082 39.1124 18.7133 39.2251 19.6533 39.5559C20.1345 39.7326 20.602 39.944 21.0534 40.1879C20.5068 39.574 19.9953 38.9299 19.5204 38.2582C19.3115 37.9538 19.1219 37.6363 18.9539 37.3067C18.9273 37.4033 18.8929 37.4974 18.8508 37.5878L18.8231 37.6402L18.8094 37.6669L18.8042 37.6797C18.7983 37.6889 18.7845 37.7151 18.7845 37.7151L18.6887 37.8492C18.5472 38.0497 18.3535 38.2081 18.1285 38.306C17.6993 38.4716 17.2297 38.5006 16.7828 38.3878C16.5878 38.3515 16.3953 38.3067 16.2154 38.2671C16.208 38.3035 16.2001 38.3406 16.1887 38.378C16.155 38.4608 16.113 38.5395 16.0624 38.6127C16.0058 38.692 15.9385 38.7629 15.8627 38.8236C15.7855 38.8777 15.7019 38.922 15.614 38.9557C15.3508 39.0397 15.0685 39.04 14.8043 38.9578C14.6386 38.9083 14.477 38.8437 14.3229 38.7653C14.2466 38.9143 14.1414 39.0462 14.0124 39.1532C13.8207 39.3058 13.5788 39.3815 13.3339 39.3649C13.1504 39.3503 12.9714 39.3 12.8072 39.2158C12.3736 38.9792 11.9998 38.6458 11.7147 38.2409C11.2484 37.6093 11.1541 37.1186 11.2592 37.0817C11.3643 37.0449 11.6162 37.3734 12.1562 37.8291C12.4426 38.0931 12.7723 38.304 13.1308 38.4532C13.2014 38.4829 13.2778 38.4961 13.3537 38.492C13.3846 38.4917 13.4129 38.4766 13.4312 38.4516C13.5185 38.2975 13.5682 38.1247 13.5758 37.9471L13.6485 37.1247L14.3568 37.6299C14.5678 37.7849 14.8049 37.8999 15.0569 37.9695C15.1122 37.9893 15.1711 37.9967 15.2294 37.9916C15.2313 37.9833 15.2342 37.8722 15.2342 37.8722L15.2264 37.7254L15.1761 37.0747L15.7791 37.1408C16.1841 37.2055 16.5844 37.2944 16.9784 37.408C17.2347 37.4877 17.5067 37.5006 17.7692 37.4453C17.8595 37.4175 17.9404 37.3637 18.001 37.2905L18.0428 37.2503L18.046 37.2454L18.0554 37.2354L18.0545 37.2314L18.0581 37.2306L18.0759 37.2036L18.1082 37.1533C18.1318 37.1139 18.1511 37.0738 18.1672 37.0313C18.2433 36.8052 18.2817 36.5681 18.2815 36.3294C18.2842 36.1608 18.2777 36.0053 18.2698 35.8585C18.1321 36.0645 17.9536 36.2397 17.7459 36.3741C17.4007 36.5956 16.9951 36.7043 16.5857 36.6855C15.9728 36.6226 15.3978 36.3561 14.9511 35.9289C14.9176 35.9588 14.882 35.9865 14.8441 36.011C14.6817 36.1188 14.495 36.1848 14.3005 36.2022C14.2057 36.211 14.1104 36.2103 14.0157 36.2005C13.948 36.196 13.8806 36.1856 13.815 36.1691L13.7713 36.1637L13.7498 36.1567L13.6674 36.1353C13.659 36.1328 13.548 36.0864 13.548 36.0864C13.475 36.0545 13.4051 36.0156 13.3402 35.9704C13.2145 35.8896 13.0992 35.7933 12.9979 35.6835C12.8321 35.4993 12.6877 35.2967 12.568 35.0794C12.4825 34.9334 12.402 34.7938 12.3268 34.681C12.1901 34.8277 12.0265 34.9447 11.8444 35.0271C11.6401 35.119 11.4177 35.1631 11.194 35.1545C11.1483 35.1543 11.1031 35.1498 11.0585 35.1403L10.9527 35.1202L10.9277 35.114L10.8496 35.0953L10.8369 35.0901L10.7687 35.0614L10.6386 35.0038C10.3476 34.8385 10.1131 34.5888 9.96678 34.2868C9.85566 34.0655 9.77659 33.8293 9.73058 33.5856C9.66619 33.266 9.6382 32.9397 9.64662 32.614C9.65465 32.3967 9.68123 32.2658 9.73385 32.2587C9.78649 32.2516 9.8662 32.3487 9.95382 32.556C10.0414 32.7633 10.1455 33.067 10.2935 33.4109C10.4106 33.7752 10.6599 34.082 10.9916 34.2702L11.0543 34.2879L11.1741 34.2976C11.2142 34.3006 11.2546 34.3078 11.2557 34.2954C11.3263 34.2744 11.3946 34.2471 11.4598 34.213C11.6139 34.1276 11.7243 33.9803 11.7629 33.8077L11.8577 33.2156L12.4255 33.4652C12.6827 33.5833 12.9043 33.7682 13.0663 34.0013C13.2134 34.1969 13.3243 34.3803 13.4296 34.55C13.8497 35.219 14.1101 35.2884 14.4984 34.665C14.9541 33.9369 15.4423 35.1435 15.9003 35.4599C16.1229 35.6325 16.383 35.7494 16.6587 35.8017C16.8945 35.8325 17.1336 35.7949 17.3484 35.6933C17.5483 35.596 17.723 35.4523 17.8584 35.2747C17.8711 35.2604 17.8794 35.2428 17.8947 35.2236C17.756 35.2143 17.6205 35.2001 17.4632 35.1752C17.3543 35.1552 17.2437 35.1325 17.1292 35.1058L16.9606 35.0675L16.829 35.0175C16.7433 34.981 16.6545 34.9493 16.5653 34.9135L16.5317 34.9012L16.4963 34.8808L16.496 34.8819C16.4906 34.8788 16.4847 34.8759 16.4789 34.8734L16.4607 34.862L16.3801 34.8122L16.2227 34.7134C15.7871 34.4159 15.4557 33.9888 15.275 33.4924C15.2089 33.329 15.156 33.1729 15.1068 33.0197C14.9268 33.0947 14.732 33.1255 14.5379 33.1101C14.201 33.0762 13.8915 32.908 13.6781 32.6437C13.5281 32.4645 13.4057 32.2641 13.3149 32.049C13.1429 31.6326 13.0108 31.2008 12.9203 30.7595L12.8596 30.4767C12.6561 30.589 12.4382 30.6738 12.2125 30.7292C11.6523 30.8848 11.0518 30.7913 10.5638 30.4723C10.4533 30.3961 10.3501 30.3094 10.2553 30.2136C10.1748 30.1125 10.0942 30.0114 10.0199 29.9154C9.90074 29.7201 9.80974 29.5093 9.74926 29.2887C9.64964 28.9202 9.62452 28.5362 9.6737 28.1579C9.7473 27.6459 9.95027 27.1612 10.264 26.7515C10.4889 26.5109 10.6407 26.4001 10.7029 26.4375C10.7651 26.4748 10.7369 26.6669 10.6225 26.9715C10.5945 27.1302 10.5399 27.2946 10.5105 27.5006C10.4942 27.6061 10.4781 27.7147 10.4646 27.8354C10.4618 27.9496 10.4569 28.0738 10.4587 28.2049C10.4714 28.4722 10.5315 28.7351 10.6374 28.9808C10.6904 29.1052 10.7578 29.2233 10.8371 29.3331C10.8855 29.3772 10.9344 29.4216 10.9789 29.467C11.0233 29.5124 11.0859 29.5296 11.1336 29.5706C11.3747 29.6848 11.6513 29.6946 11.8992 29.5981C12.2455 29.4651 12.5628 29.2654 12.8329 29.0104L13.4277 28.5308L13.7744 29.1665C13.8474 29.2982 13.9022 29.4386 13.9383 29.5847C13.9731 29.6955 13.994 29.7925 14.0197 29.8927C14.0681 30.0815 14.1126 30.2716 14.1578 30.4653C14.2399 30.8234 14.3505 31.1742 14.4886 31.5139C14.5313 31.6173 14.5874 31.7146 14.6558 31.803C14.6598 31.8095 14.6651 31.8147 14.6709 31.8193C14.6897 31.8115 14.7074 31.8009 14.7231 31.7885C14.8184 31.7279 14.9062 31.6567 14.9852 31.5764L15.6972 30.8989L16.0227 31.7806C16.2085 32.2812 16.2814 32.7311 16.4008 33.0695C16.4808 33.3588 16.6459 33.616 16.8746 33.8095L17.0198 33.9226L17.2723 34.0459L17.3948 34.1094L17.4898 34.1355C17.5524 34.1532 17.6152 34.1715 17.6788 34.1932C17.7822 34.2217 17.9008 34.2475 18.0192 34.2728C17.7717 32.3631 18.1055 30.4253 18.9764 28.7124C17.5512 28.4292 16.2886 27.607 15.4483 26.4158C14.4835 25.2132 12.7309 23.01 10.9097 23.6513C8.18721 24.6156 7.7866 29.6069 7.67157 31.9759C7.47527 36.031 8.80251 39.4219 11.5316 42.5003C14.7592 46.1374 18.8795 48.729 22.8112 51.5143C22.8686 51.1105 23.1886 50.588 23.1182 50.1841C23.0979 50.087 23.0597 49.9948 23.0052 49.9124C22.8322 49.6822 22.6355 49.4714 22.4184 49.2828C22.4135 49.2797 22.2066 49.0773 22.2066 49.0773C22.0654 48.9439 21.9271 48.8087 21.7893 48.674C21.6397 48.5576 21.4904 48.4422 21.3451 48.3265C21.2702 48.2687 21.2021 48.2088 21.1205 48.1518L20.8712 47.9897C20.708 47.8837 20.5504 47.7812 20.3876 47.6793C20.2248 47.5774 20.0475 47.4665 19.8834 47.3606C19.7192 47.2548 19.5544 47.1533 19.3908 47.0474L18.9266 46.7169C17.8553 45.9462 16.8442 45.0938 15.9018 44.1685C14.3121 42.5871 13.4342 41.5271 13.5262 41.4291C13.6264 41.3178 14.6936 42.2041 16.3849 43.6221C17.3668 44.4491 18.3906 45.2236 19.4533 45.9423C19.6033 46.0433 19.7573 46.1434 19.9077 46.2442C20.0684 46.3386 20.2246 46.4346 20.3854 46.5295C20.546 46.6239 20.711 46.7217 20.8761 46.8194C21.0475 46.9273 21.2226 47.0351 21.3983 47.1458C21.7619 47.3753 22.1115 47.6273 22.4439 47.8999C22.4786 47.9316 22.5082 47.9643 22.5431 47.997C22.488 47.8677 22.4257 47.7416 22.3563 47.6191C21.9814 47.0434 21.5253 46.5252 21.002 46.0811C20.4924 45.6273 19.9686 45.2224 19.4953 44.7956C19.0288 44.3833 18.596 43.9985 18.2 43.645C16.6266 42.2328 15.6981 41.3162 15.7831 41.205C15.8681 41.0939 16.9547 41.8185 18.6501 43.0914C19.0704 43.4159 19.5276 43.7679 20.0218 44.1474C20.5006 44.5265 21.0496 44.909 21.6092 45.3727C21.987 45.6805 22.3399 46.019 22.6637 46.3838C22.2509 45.5066 21.7048 44.6991 21.0454 43.9905C20.0281 42.9789 18.9523 42.0284 17.8243 41.143C16.9533 40.4064 16.4954 39.8701 16.5726 39.7595C16.6597 39.6388 17.2857 39.9784 18.2496 40.5503C19.5547 41.2957 20.7515 42.2197 21.8041 43.2956C22.3122 43.8407 22.7417 44.455 23.079 45.1201C23.088 44.7774 23.0925 44.4362 23.0934 44.0952L23.0939 44.0973Z" fill="#FDFEFF"/>
<path d="M42.4908 30.8962L42.4975 30.8905C42.5356 30.8596 42.5658 30.8193 42.5855 30.7739C42.6671 30.6005 42.7168 30.4134 42.732 30.222L42.8581 28.8133L43.6353 29.9652C43.7192 30.0941 43.8095 30.2184 43.9066 30.3376C43.9153 30.351 43.9258 30.3631 43.9375 30.3738C43.9675 30.352 43.9951 30.326 44.0189 30.2971L44.0503 30.2624C44.0542 30.2584 44.0587 30.2548 44.0634 30.2522L44.072 30.2387L44.1454 30.1447C44.2077 30.0722 44.197 30.0592 44.227 30.0178C44.3835 29.6128 44.4071 29.1666 44.2938 28.7465C44.2172 28.3361 44.1205 27.9933 44.0793 27.7475C44.0381 27.5016 44.0372 27.3528 44.0943 27.33C44.152 27.3071 44.251 27.4058 44.3957 27.6098C44.6008 27.9087 44.7715 28.2287 44.9047 28.5652C45.0075 28.8142 45.0793 29.0751 45.1186 29.3414C45.1756 29.6927 45.1373 30.0528 45.0069 30.3835C44.9693 30.4777 44.9236 30.5689 44.8707 30.6553L44.8071 30.7556L44.7925 30.7783L44.7593 30.8245L44.7166 30.8802C44.6516 30.967 44.5769 31.0475 44.4951 31.1195C44.3792 31.2237 44.2408 31.2993 44.0907 31.3395C43.895 31.3831 43.6905 31.354 43.5144 31.2582C43.5075 31.2533 43.5012 31.2483 43.4953 31.2427C43.399 31.4383 43.2577 31.6081 43.0833 31.7385C42.975 31.8146 42.8533 31.8698 42.725 31.9016C42.6493 31.9162 42.5723 31.9248 42.495 31.9272L42.376 31.9215C42.044 31.8882 41.7386 31.7223 41.5286 31.4615C41.3838 31.2839 41.26 31.0896 41.1599 30.8828C41.1195 30.8048 41.0841 30.7305 41.0447 30.6571C41.0045 30.7048 40.9645 30.7562 40.9162 30.803C40.8365 30.8899 40.7433 30.9627 40.6397 31.0188C40.5039 31.0912 40.3501 31.1243 40.1964 31.1139C39.9472 31.0797 39.7236 30.9417 39.5806 30.7336C39.4159 30.4979 39.2924 30.2359 39.2159 29.958C39.1499 29.7461 39.0982 29.5294 39.0616 29.3101C38.9286 28.5287 38.955 28.0691 39.0591 28.0468C39.1631 28.0245 39.3481 28.4502 39.6339 29.145C39.7056 29.3172 39.7845 29.5036 39.8801 29.6944C39.9651 29.8796 40.0758 30.0524 40.2079 30.2074C40.2123 30.2133 40.2177 30.2185 40.2235 30.2236C40.2329 30.2137 40.2456 30.1993 40.2583 30.185C40.4 29.9807 40.512 29.7575 40.5907 29.5218L40.8368 28.8704L41.3593 29.3452C41.5303 29.5077 41.6728 29.6964 41.7827 29.9047C41.8674 30.0641 41.958 30.2312 42.0485 30.3956C42.1187 30.5317 42.2034 30.6593 42.3016 30.7766C42.3857 30.8769 42.4297 30.886 42.4432 30.8873L42.4908 30.8962Z" fill="#FDFEFF"/>
<path d="M34.6819 14.8263L34.6935 14.8434C34.6931 14.8414 34.6907 14.8403 34.6888 14.8412C34.6881 14.8355 34.6855 14.8308 34.6819 14.8263Z" fill="#FDFEFF"/>
<path d="M29.8696 23.0741C29.9345 23.1785 29.6104 23.5371 29.0003 24.0162C28.8423 24.1325 28.6668 24.26 28.482 24.3938C28.2968 24.5276 28.0518 24.643 27.8149 24.7737C27.692 24.8355 27.568 24.9091 27.4434 24.9633C27.0452 25.146 26.6288 25.2856 26.2009 25.3785C25.616 25.5025 25.0122 25.5085 24.4243 25.3958C23.9597 25.3106 23.5072 25.1695 23.0759 24.9751C22.3513 24.6488 21.97 24.3592 22.0076 24.245C22.0457 24.1311 22.537 24.2058 23.2683 24.3579C24.5655 24.6427 25.9152 24.5675 27.1714 24.1393C27.29 24.0943 27.3923 24.0444 27.4999 24.0017C27.7146 23.9049 27.9203 23.837 28.1134 23.7369C28.3064 23.6368 28.4944 23.55 28.6639 23.4702C29.3468 23.1392 29.8039 22.9666 29.8696 23.0741Z" fill="#FDFEFF"/>
<path d="M26.9924 18.2353C27.0376 18.3651 27.054 18.5026 27.0402 18.6393C26.9915 18.814 26.9182 18.9233 26.8299 18.9306C26.7421 18.9379 26.6574 18.835 26.5868 18.67C26.5023 18.5386 26.4018 18.4181 26.288 18.3115C26.1109 18.1698 25.9578 18.0003 25.8338 17.8098C25.7438 17.6257 25.7342 17.4904 25.8041 17.4363C25.8745 17.3821 26.0043 17.4086 26.148 17.4808C26.3566 17.5681 26.551 17.6876 26.723 17.835C26.7795 17.8974 26.836 17.9598 26.8837 18.0203C26.9244 18.0898 26.9602 18.1614 26.9924 18.2353Z" fill="#FDFEFF"/>
<path d="M24.7161 16.8167C24.7626 17.0625 24.7476 17.3161 24.672 17.5543C24.6004 17.8011 24.4829 18.045 24.4223 18.262C24.1345 18.9541 24.4888 18.8463 24.9483 19.0959C25.0538 19.1514 25.093 19.2217 25.0722 19.2569C25.059 19.303 24.9965 19.3207 24.9042 19.3436C24.812 19.3671 24.6975 19.3996 24.5119 19.4363C24.3833 19.4692 24.2487 19.4669 24.1209 19.4299C24.0144 19.3989 23.9216 19.3316 23.8582 19.2395C23.8016 19.1619 23.7625 19.073 23.7433 18.9784C23.7245 18.8957 23.7128 18.8121 23.7088 18.7274C23.707 18.6601 23.7095 18.593 23.7166 18.526C23.7291 18.3711 23.7592 18.2173 23.8057 18.0689C23.8911 17.8228 23.9933 17.5837 24.1113 17.3523C24.1842 17.1972 24.2345 17.0321 24.2596 16.8624C24.2705 16.7956 24.2783 16.7289 24.2822 16.6615C24.2734 16.5984 24.2703 16.5351 24.273 16.4717C24.2739 16.3658 24.2947 16.2985 24.3371 16.2804C24.3795 16.2623 24.4358 16.3068 24.5073 16.3849C24.5486 16.4331 24.587 16.4846 24.6221 16.5378C24.6629 16.6274 24.6945 16.721 24.7161 16.8167Z" fill="#FDFEFF"/>
<path d="M22.9252 28.6131C24.0827 28.4893 25.0379 28.531 25.0604 28.7064C25.0828 28.8817 24.1554 29.132 23.004 29.254C21.8525 29.3759 20.8999 29.3416 20.8736 29.1634C20.8468 28.9847 21.7641 28.7413 22.9252 28.6131Z" fill="#FDFEFF"/>
<path d="M10.7801 46.1411L10.5011 46.3608L10.7801 46.1411ZM21.1487 54.485L21.5029 54.5101L21.5176 54.3017L21.3426 54.1876L21.1487 54.485ZM27.1944 59.8L27.5144 59.6461L27.4159 59.4413L27.1888 59.445L27.1944 59.8ZM30.3327 64.7693L30.6431 64.5969L30.5775 64.4789L30.4501 64.4343L30.3327 64.7693ZM31.3959 67.4974L31.6559 67.7393L31.7692 67.6175L31.7482 67.4526L31.3959 67.4974ZM31.1848 71.4615L30.9167 71.6942L31.1848 71.4615ZM12.7379 16.5415L13.0863 16.6104L12.7379 16.5415ZM8.95052 39.9092C9.01536 39.7241 8.9179 39.5215 8.73283 39.4567C8.54777 39.3918 8.34518 39.4893 8.28034 39.6743L8.95052 39.9092ZM7.62167 41.8451C7.57656 42.0359 7.69469 42.2272 7.88553 42.2723C8.07637 42.3174 8.26764 42.1993 8.31275 42.0085L7.62167 41.8451ZM10.0976 41.8508C10.183 41.6743 10.1092 41.4619 9.93262 41.3766C9.75609 41.2912 9.54377 41.3651 9.45838 41.5416L10.0976 41.8508ZM9.2107 42.8301L9.55903 42.8989L9.2107 42.8301ZM8.74176 43.3938C8.69252 43.5836 8.80647 43.7774 8.99628 43.8267C9.18609 43.8759 9.37989 43.762 9.42913 43.5722L8.74176 43.3938ZM11.4599 43.2104C11.4514 43.0144 11.2857 42.8625 11.0898 42.8711C10.8939 42.8796 10.7419 43.0453 10.7505 43.2413L11.4599 43.2104ZM10.1111 45.4168C10.1035 45.6128 10.2562 45.7777 10.4522 45.7853C10.6481 45.7928 10.8131 45.6401 10.8207 45.4441L10.1111 45.4168ZM12.8092 44.6588C12.8761 44.4745 12.7809 44.2708 12.5966 44.2039C12.4123 44.1369 12.2086 44.2321 12.1417 44.4164L12.8092 44.6588ZM11.2521 46.6822C11.1608 46.8557 11.2276 47.0704 11.4011 47.1617C11.5747 47.2529 11.7894 47.1862 11.8806 47.0126L11.2521 46.6822ZM13.9692 45.9039C14.0231 45.7153 13.9139 45.5188 13.7253 45.465C13.5368 45.4111 13.3403 45.5203 13.2864 45.7089L13.9692 45.9039ZM12.5236 48.2826C12.5483 48.4771 12.7261 48.6147 12.9206 48.5899C13.1152 48.5652 13.2528 48.3874 13.228 48.1929L12.5236 48.2826ZM14.7329 46.7274C14.7472 46.5318 14.6002 46.3617 14.4046 46.3475C14.209 46.3332 14.0389 46.4803 14.0247 46.6758L14.7329 46.7274ZM14.0154 48.7886L14.3505 48.906L14.0154 48.7886ZM13.6494 49.3424C13.6742 49.5369 13.8519 49.6745 14.0465 49.6498C14.241 49.625 14.3786 49.4472 14.3538 49.2527L13.6494 49.3424ZM16.1234 47.7213C16.1592 47.5285 16.032 47.3431 15.8392 47.3072C15.6465 47.2714 15.4611 47.3986 15.4252 47.5914L16.1234 47.7213ZM14.9225 49.8856C14.8256 50.0561 14.8853 50.2728 15.0557 50.3697C15.2262 50.4666 15.443 50.407 15.5399 50.2365L14.9225 49.8856ZM17.7074 48.8084C17.7926 48.6318 17.7186 48.4195 17.542 48.3343C17.3654 48.2491 17.1531 48.3231 17.0679 48.4997L17.7074 48.8084ZM16.1569 51.104C16.1188 51.2963 16.244 51.4831 16.4363 51.5211C16.6287 51.5591 16.8155 51.434 16.8535 51.2416L16.1569 51.104ZM18.8111 50.1304C18.9691 50.0143 19.0031 49.7921 18.8869 49.6341C18.7708 49.476 18.5486 49.4421 18.3906 49.5582L18.8111 50.1304ZM18.2532 51.0052L17.9138 50.9009L18.2532 51.0052ZM17.5524 52.0587C17.5144 52.251 17.6395 52.4378 17.8319 52.4758C18.0242 52.5138 18.211 52.3887 18.249 52.1963L17.5524 52.0587ZM20.3248 50.5867C20.3229 50.3906 20.1624 50.2332 19.9664 50.235C19.7703 50.2369 19.6128 50.3974 19.6147 50.5935L20.3248 50.5867ZM19.1007 53.1618C19.0775 53.3566 19.2166 53.5332 19.4113 53.5563C19.6061 53.5795 19.7827 53.4404 19.8058 53.2457L19.1007 53.1618ZM21.5232 51.8819C21.5792 51.694 21.4724 51.4962 21.2845 51.4401C21.0966 51.384 20.8988 51.4909 20.8427 51.6788L21.5232 51.8819ZM20.0382 53.7946C20.0002 53.987 20.1253 54.1738 20.3177 54.2118C20.5101 54.2498 20.6969 54.1247 20.7349 53.9323L20.0382 53.7946ZM21.0133 55.4822C21.038 55.6768 21.2158 55.8144 21.4103 55.7896C21.6049 55.7648 21.7425 55.5871 21.7177 55.3925L21.0133 55.4822ZM21.6536 54.056L21.9832 54.1878L21.6536 54.056ZM22.0539 53.1242L21.702 53.0768L22.0539 53.1242ZM22.5018 52.9102C22.6559 52.7888 22.6824 52.5656 22.5611 52.4115C22.4397 52.2575 22.2165 52.2309 22.0624 52.3523L22.5018 52.9102ZM23.5354 54.4011C23.6002 54.216 23.5028 54.0134 23.3177 53.9486C23.1326 53.8838 22.93 53.9812 22.8652 54.1663L23.5354 54.4011ZM22.3732 56.6813L22.0185 56.6652L22.3732 56.6813ZM22.2268 57.1993L22.5759 57.264L22.576 57.264L22.2268 57.1993ZM22.2262 57.2026L21.8771 57.138L21.8771 57.1381L22.2262 57.2026ZM22.4713 57.4198C22.4465 57.2253 22.2687 57.0877 22.0742 57.1125C21.8797 57.1372 21.7421 57.315 21.7668 57.5095L22.4713 57.4198ZM24.4912 55.6524C24.5317 55.4605 24.409 55.2722 24.2171 55.2317C24.0252 55.1911 23.8369 55.3138 23.7964 55.5057L24.4912 55.6524ZM23.2645 57.8143L23.5884 57.9597L23.2645 57.8143ZM23.3651 58.066C23.2559 57.9031 23.0354 57.8596 22.8725 57.9687C22.7096 58.0779 22.666 58.2984 22.7751 58.4613L23.3651 58.066ZM25.6028 56.5532C25.6325 56.3594 25.4993 56.1782 25.3055 56.1486C25.1116 56.119 24.9305 56.2521 24.9009 56.4459L25.6028 56.5532ZM24.3598 58.7326C24.3034 58.9204 24.41 59.1184 24.5978 59.1748C24.7856 59.2311 24.9836 59.1246 25.04 58.9367L24.3598 58.7326ZM27.4114 57.3369C27.4144 57.1408 27.2578 56.9794 27.0618 56.9764C26.8657 56.9734 26.7043 57.13 26.7013 57.326L27.4114 57.3369ZM26.413 59.5366C26.4378 59.7312 26.6156 59.8688 26.8101 59.844C27.0046 59.8192 27.1422 59.6415 27.1175 59.4469L26.413 59.5366ZM29.4293 58.2834C29.602 58.1905 29.6666 57.9752 29.5737 57.8025C29.4807 57.6298 29.2654 57.5652 29.0927 57.6581L29.4293 58.2834ZM27.2565 59.6763C27.1815 59.8575 27.2675 60.0652 27.4487 60.1402C27.6299 60.2152 27.8376 60.1291 27.9126 59.9479L27.2565 59.6763ZM29.8515 59.3263C29.956 59.1604 29.9063 58.9412 29.7404 58.8366C29.5745 58.7321 29.3552 58.7819 29.2507 58.9478L29.8515 59.3263ZM28.6624 61.051L29.0008 61.1585L28.6624 61.051ZM28.5903 61.9056L28.9403 61.9652L28.5903 61.9056ZM28.1157 62.293C28.1018 62.4886 28.2491 62.6584 28.4447 62.6722C28.6404 62.6861 28.8102 62.5388 28.824 62.3432L28.1157 62.293ZM30.9993 61.0016C31.0927 60.8291 31.0285 60.6136 30.8561 60.5203C30.6836 60.427 30.4682 60.4911 30.3748 60.6635L30.9993 61.0016ZM29.0532 64.0679C29.03 64.2626 29.1691 64.4392 29.3639 64.4624C29.5586 64.4856 29.7352 64.3465 29.7584 64.1517L29.0532 64.0679ZM31.9779 62.9882C32.1068 62.8405 32.0915 62.6162 31.9438 62.4872C31.796 62.3583 31.5717 62.3735 31.4428 62.5213L31.9779 62.9882ZM30.8224 64.5821L30.4979 64.4379L30.8224 64.5821ZM30.2572 64.9737C30.1924 65.1588 30.2899 65.3614 30.4749 65.4262C30.66 65.4911 30.8626 65.3936 30.9274 65.2085L30.2572 64.9737ZM32.8808 64.3366C32.9957 64.1776 32.9599 63.9557 32.801 63.8408C32.642 63.726 32.4201 63.7617 32.3052 63.9207L32.8808 64.3366ZM31.3501 65.9776L31.0288 65.8264L31.3501 65.9776ZM30.9498 65.9957C30.8298 66.1508 30.8582 66.3738 31.0133 66.4938C31.1683 66.6138 31.3913 66.5854 31.5114 66.4304L30.9498 65.9957ZM30.3225 69.0815C30.2226 69.2502 30.2784 69.468 30.4472 69.5679C30.6159 69.6678 30.8337 69.6119 30.9336 69.4432L30.3225 69.0815ZM32.6836 66.6925L32.419 66.4557L32.6836 66.6925ZM33.6651 66.1011C33.8418 66.016 33.9162 65.8039 33.8311 65.6272C33.7461 65.4505 33.534 65.3761 33.3573 65.4611L33.6651 66.1011ZM32.5961 70.215C32.7348 70.0764 32.735 69.8516 32.5964 69.7128C32.4578 69.5741 32.233 69.574 32.0943 69.7125L32.5961 70.215ZM31.0333 71.2208C30.9953 71.4132 31.1204 71.5999 31.3128 71.638C31.5051 71.676 31.6919 71.5508 31.7299 71.3585L31.0333 71.2208ZM33.28 72.1615C33.3643 71.9845 33.2892 71.7726 33.1122 71.6882C32.9352 71.6039 32.7233 71.679 32.6389 71.856L33.28 72.1615ZM32.1363 72.9109C32.0519 73.0879 32.127 73.2998 32.3041 73.3842C32.4811 73.4685 32.693 73.3934 32.7773 73.2164L32.1363 72.9109ZM34.905 72.4649C34.957 72.2758 34.8458 72.0804 34.6567 72.0285C34.4676 71.9765 34.2722 72.0877 34.2202 72.2768L34.905 72.4649ZM34.0333 73.1036C33.9952 73.296 34.1204 73.4828 34.3128 73.5208C34.5051 73.5588 34.6919 73.4337 34.7299 73.2413L34.0333 73.1036ZM36.7385 72.4565C36.7977 72.2695 36.6942 72.07 36.5072 72.0107C36.3203 71.9515 36.1207 72.0551 36.0615 72.242L36.7385 72.4565ZM35.7116 73.433C35.6605 73.6223 35.7724 73.8172 35.9617 73.8684C36.151 73.9196 36.346 73.8076 36.3971 73.6183L35.7116 73.433ZM38.3407 72.2514C38.3993 72.0643 38.2952 71.8651 38.1081 71.8064C37.9209 71.7478 37.7217 71.852 37.6631 72.0391L38.3407 72.2514ZM37.3218 73.5058C37.3465 73.7003 37.5243 73.8379 37.7188 73.8132C37.9134 73.7884 38.051 73.6106 38.0262 73.4161L37.3218 73.5058ZM19.4587 26.7896C19.6354 26.7046 19.7097 26.4924 19.6247 26.3157C19.5397 26.139 19.3276 26.0646 19.1508 26.1497L19.4587 26.7896ZM19.0285 27.1103L18.6776 27.0567L19.0285 27.1103ZM19.2151 27.4011C19.1903 27.2066 19.0126 27.069 18.818 27.0937C18.6235 27.1185 18.4859 27.2963 18.5107 27.4908L19.2151 27.4011ZM17.9186 25.9872C18.0011 25.8092 17.9237 25.5982 17.7458 25.5157C17.5679 25.4332 17.3568 25.5106 17.2743 25.6885L17.9186 25.9872ZM16.7162 26.7252C16.5754 26.8618 16.572 27.0865 16.7085 27.2273C16.8451 27.3681 17.0699 27.3715 17.2106 27.235L16.7162 26.7252ZM16.9674 24.793C17.0673 24.6242 17.0115 24.4064 16.8427 24.3066C16.674 24.2067 16.4562 24.2625 16.3563 24.4313L16.9674 24.793ZM16.171 25.7284L16.5017 25.8577L16.171 25.7284ZM16.5039 25.63C16.5219 25.4347 16.3782 25.2618 16.183 25.2438C15.9877 25.2258 15.8148 25.3694 15.7968 25.5647L16.5039 25.63ZM14.8003 24.0336C14.6374 24.1427 14.5938 24.3633 14.703 24.5262C14.8121 24.6891 15.0327 24.7327 15.1956 24.6235L14.8003 24.0336ZM15.7365 23.5818L15.9596 23.858L15.7365 23.5818ZM16.6298 23.357C16.778 23.2284 16.7939 23.0042 16.6653 22.8561C16.5368 22.708 16.3126 22.6921 16.1645 22.8206L16.6298 23.357ZM13.8658 23.2055C13.8554 23.4013 14.0057 23.5685 14.2015 23.579C14.3973 23.5894 14.5645 23.4391 14.5749 23.2433L13.8658 23.2055ZM15.3186 21.9679L15.5625 22.2259L15.3186 21.9679ZM16.1464 21.5299C16.3093 21.4208 16.3529 21.2002 16.2437 21.0373C16.1346 20.8744 15.914 20.8308 15.7511 20.94L16.1464 21.5299ZM13.7107 20.2319C13.5629 20.3608 13.5477 20.5851 13.6767 20.7328C13.8056 20.8806 14.0299 20.8958 14.1777 20.7668L13.7107 20.2319ZM15.4552 19.6104C15.5574 19.4431 15.5045 19.2246 15.3372 19.1224C15.1698 19.0202 14.9513 19.0731 14.8491 19.2404L15.4552 19.6104ZM13.001 18.9479C12.8792 19.1016 12.905 19.3249 13.0587 19.4467C13.2124 19.5686 13.4357 19.5427 13.5575 19.389L13.001 18.9479ZM13.2858 19.1602L13.5641 19.3808L13.5641 19.3808L13.2858 19.1602ZM14.9897 18.024C15.1724 17.9528 15.2628 17.7469 15.1916 17.5642C15.1204 17.3815 14.9146 17.2911 14.7319 17.3623L14.9897 18.024ZM12.3935 17.0695C12.2434 17.1957 12.224 17.4197 12.3502 17.5698C12.4764 17.7199 12.7004 17.7392 12.8505 17.613L12.3935 17.0695ZM14.5236 16.2645C14.6717 16.136 14.6876 15.9118 14.559 15.7637C14.4305 15.6155 14.2063 15.5997 14.0582 15.7282L14.5236 16.2645ZM12.6733 15.3705C12.499 15.4603 12.4304 15.6744 12.5202 15.8487C12.6099 16.0231 12.824 16.0916 12.9984 16.0019L12.6733 15.3705ZM14.2511 15.2221C14.4389 15.1657 14.5454 14.9677 14.489 14.7799C14.4326 14.5921 14.2346 14.4855 14.0468 14.542L14.2511 15.2221ZM13.2085 13.5163C13.0206 13.5727 12.9141 13.7707 12.9705 13.9585C13.027 14.1463 13.2249 14.2528 13.4127 14.1964L13.2085 13.5163ZM15.8956 13.0358C16.0901 13.0111 16.2277 12.8333 16.2029 12.6388C16.1782 12.4442 16.0004 12.3066 15.8059 12.3314L15.8956 13.0358ZM14.3559 10.3928C14.1613 10.4175 14.0237 10.5953 14.0485 10.7898C14.0733 10.9844 14.251 11.122 14.4456 11.0972L14.3559 10.3928ZM15.6295 10.9465C15.8241 10.9217 15.9617 10.7439 15.9369 10.5494C15.9121 10.3549 15.7344 10.2172 15.5398 10.242L15.6295 10.9465ZM6.6934 30.8227C6.06252 35.7627 6.35089 38.8299 7.14683 41.0866C7.94139 43.3393 9.23698 44.7556 10.5011 46.3608L11.059 45.9215C9.76135 44.2736 8.5624 42.9651 7.81653 40.8504C7.07204 38.7396 6.77409 35.7966 7.39781 30.9127L6.6934 30.8227ZM10.5011 46.3608C11.556 47.7004 13.53 49.3856 15.5404 50.934C17.5595 52.489 19.6471 53.9297 20.9548 54.7824L21.3426 54.1876C20.0481 53.3434 17.976 51.9134 15.9737 50.3713C13.9628 48.8226 12.0536 47.1844 11.059 45.9215L10.5011 46.3608ZM20.7945 54.4599C20.7256 55.4319 20.9658 56.8746 21.9167 58.0714C22.8805 59.2846 24.5365 60.1976 27.2001 60.155L27.1888 59.445C24.7086 59.4846 23.2778 58.6431 22.4727 57.6297C21.6546 56.6 21.4438 55.344 21.5029 54.5101L20.7945 54.4599ZM26.8745 59.9539C27.2362 60.7058 27.5188 61.3573 27.7643 61.9243C28.0082 62.4875 28.2198 62.9776 28.4342 63.3899C28.8707 64.2291 29.3473 64.8003 30.2153 65.1044L30.4501 64.4343C29.8195 64.2133 29.4571 63.8176 29.0642 63.0622C28.864 62.6772 28.6632 62.2132 28.4159 61.6421C28.1703 61.0748 27.8828 60.4119 27.5144 59.6461L26.8745 59.9539ZM30.0223 64.9418C30.7495 66.2504 31.006 67.2458 31.0437 67.5423L31.7482 67.4526C31.6962 67.0445 31.4019 65.9625 30.6431 64.5969L30.0223 64.9418ZM31.136 67.2555C30.7857 67.632 30.3598 68.2938 30.2026 69.0838C30.0423 69.8899 30.1644 70.8272 30.9167 71.6942L31.453 71.2288C30.863 70.5487 30.7758 69.8423 30.8991 69.2223C31.0257 68.5862 31.3765 68.0395 31.6559 67.7393L31.136 67.2555ZM30.9167 71.6942C31.3247 72.1645 31.5606 72.5001 31.7191 72.7452C31.8017 72.8728 31.8586 72.9683 31.9202 73.0663C31.9774 73.1575 32.0379 73.2495 32.1095 73.332C32.2718 73.519 32.4599 73.6215 32.733 73.7048C32.9874 73.7825 33.3543 73.8545 33.8955 73.9614L34.0332 73.2648C33.4729 73.1541 33.1513 73.09 32.9402 73.0256C32.7478 72.9669 32.6934 72.9213 32.6459 72.8666C32.6126 72.8282 32.5764 72.776 32.5215 72.6885C32.4708 72.6078 32.3999 72.4902 32.3154 72.3595C32.1396 72.0879 31.8839 71.7255 31.453 71.2288L30.9167 71.6942ZM33.8955 73.9614C34.4176 74.0646 35.0336 74.2223 35.6396 74.2999C36.2595 74.3793 36.9198 74.3845 37.5886 74.1751C38.9456 73.7503 40.2005 72.491 41.2892 69.6275L40.6254 69.3751C39.5691 72.1537 38.429 73.1679 37.3765 73.4974C36.8406 73.6651 36.2926 73.6676 35.7298 73.5955C35.1534 73.5217 34.6126 73.3793 34.0332 73.2648L33.8955 73.9614ZM16.7908 26.5342C15.7828 25.5963 15.1946 24.9082 14.8595 24.2116C14.5295 23.5256 14.4295 22.7984 14.4699 21.7488L13.7603 21.7215C13.7176 22.83 13.8194 23.6878 14.2196 24.5195C14.6146 25.3407 15.2849 26.103 16.3071 27.0541L16.7908 26.5342ZM14.4699 21.7488C14.5159 20.5559 14.0064 19.722 13.6065 18.9857C13.2048 18.246 12.8941 17.5828 13.0863 16.6104L12.3896 16.4727C12.1465 17.7032 12.5659 18.5577 12.9824 19.3246C13.4007 20.0948 13.7975 20.7562 13.7603 21.7215L14.4699 21.7488ZM13.0863 16.6104C13.1975 16.0473 13.2556 15.6053 13.2999 15.2438C13.3451 14.8758 13.3737 14.6153 13.426 14.3839C13.5203 13.9661 13.6912 13.6382 14.2977 13.0499L13.8033 12.5402C13.1355 13.188 12.8678 13.6318 12.7333 14.2275C12.6711 14.5028 12.6377 14.8095 12.5951 15.1573C12.5516 15.5117 12.496 15.9343 12.3896 16.4727L13.0863 16.6104ZM14.2977 13.0499C14.7125 12.6477 14.7934 12.191 14.7837 11.7602C14.7791 11.5551 14.7534 11.3414 14.7337 11.1501C14.7132 10.9513 14.6975 10.7637 14.7031 10.5755C14.714 10.213 14.8041 9.84189 15.1287 9.44433C15.4628 9.03504 16.0625 8.57729 17.1361 8.09118L16.8432 7.44427C15.7172 7.95412 15.0088 8.46827 14.5786 8.99521C14.1388 9.53389 14.008 10.0633 13.9933 10.5542C13.9861 10.7927 14.0064 11.0199 14.0273 11.2228C14.049 11.4331 14.0699 11.6077 14.0737 11.7762C14.0809 12.0927 14.0258 12.3245 13.8033 12.5402L14.2977 13.0499ZM8.28034 39.6743C8.03127 40.3852 7.79511 41.1114 7.62167 41.8451L8.31275 42.0085C8.47767 41.3108 8.70427 40.612 8.95052 39.9092L8.28034 39.6743ZM9.45838 41.5416C9.37014 41.724 9.27233 41.8604 9.14984 42.0646C9.03535 42.2556 8.918 42.4798 8.86238 42.7612L9.55903 42.8989C9.59124 42.7359 9.66027 42.5943 9.75885 42.4299C9.84943 42.2788 9.99136 42.0705 10.0976 41.8508L9.45838 41.5416ZM8.86238 42.7612C8.81158 43.0183 8.79483 43.1893 8.74176 43.3938L9.42913 43.5722C9.48705 43.3489 9.52371 43.0777 9.55903 42.8989L8.86238 42.7612ZM10.7505 43.2413C10.7645 43.5625 10.6499 43.8437 10.4883 44.1936C10.3362 44.523 10.1296 44.9344 10.1111 45.4168L10.8207 45.4441C10.8327 45.1316 10.964 44.8573 11.133 44.4913C11.2925 44.146 11.4822 43.7223 11.4599 43.2104L10.7505 43.2413ZM12.1417 44.4164C11.8511 45.2167 11.6213 45.98 11.2521 46.6822L11.8806 47.0126C12.2797 46.2537 12.5366 45.4092 12.8092 44.6588L12.1417 44.4164ZM13.2864 45.7089C13.1825 46.0726 12.9937 46.4103 12.8013 46.8586C12.6228 47.2745 12.4571 47.7608 12.5236 48.2826L13.228 48.1929C13.1868 47.8692 13.2853 47.5314 13.4538 47.1387C13.6084 46.7785 13.8494 46.3233 13.9692 45.9039L13.2864 45.7089ZM14.0247 46.6758C13.9738 47.3749 13.898 48.0498 13.6803 48.6712L14.3505 48.906C14.6015 48.1897 14.6815 47.4341 14.7329 46.7274L14.0247 46.6758ZM13.6803 48.6712C13.5862 48.9399 13.629 49.1824 13.6494 49.3424L14.3538 49.2527C14.3286 49.0546 14.3218 48.988 14.3505 48.906L13.6803 48.6712ZM15.4252 47.5914C15.3895 47.7835 15.3605 47.9928 15.3322 48.2005C15.3035 48.4112 15.2753 48.6219 15.2401 48.8295C15.1686 49.2512 15.0745 49.6182 14.9225 49.8856L15.5399 50.2365C15.7566 49.8552 15.8663 49.3844 15.9402 48.9482C15.9777 48.7268 16.0076 48.5036 16.0359 48.2964C16.0645 48.0862 16.0913 47.8937 16.1234 47.7213L15.4252 47.5914ZM17.0679 48.4997C16.6731 49.3175 16.3373 50.191 16.1569 51.104L16.8535 51.2416C17.0185 50.4066 17.329 49.5922 17.7074 48.8084L17.0679 48.4997ZM18.3906 49.5582C18.2496 49.6618 18.1774 49.8247 18.1381 49.9292C18.0926 50.0502 18.0585 50.1872 18.0316 50.3126C18.0045 50.439 17.9814 50.5695 17.9621 50.6743C17.941 50.7885 17.926 50.8614 17.9138 50.9009L18.5926 51.1096C18.6192 51.0231 18.6412 50.9068 18.6604 50.8034C18.6812 50.6906 18.7016 50.575 18.7259 50.4616C18.7504 50.3473 18.7758 50.2507 18.8027 50.1792C18.8358 50.0912 18.8489 50.1026 18.8111 50.1304L18.3906 49.5582ZM17.9138 50.9009C17.8586 51.0808 17.7949 51.2496 17.7266 51.447C17.661 51.6368 17.5951 51.8422 17.5524 52.0587L18.249 52.1963C18.2821 52.029 18.3349 51.8607 18.3977 51.6791C18.458 51.5051 18.5326 51.3047 18.5926 51.1096L17.9138 50.9009ZM19.6147 50.5935C19.6184 50.9853 19.5271 51.383 19.4102 51.816C19.2973 52.2339 19.1556 52.6995 19.1007 53.1618L19.8058 53.2457C19.8529 52.8494 19.9737 52.453 20.0957 52.0011C20.2137 51.5642 20.3295 51.0843 20.3248 50.5867L19.6147 50.5935ZM20.8427 51.6788C20.7463 52.0019 20.5959 52.3164 20.4354 52.6716C20.2802 53.0149 20.1176 53.3929 20.0382 53.7946L20.7349 53.9323C20.7968 53.6191 20.9273 53.3075 21.0825 52.964C21.2323 52.6325 21.4095 52.2629 21.5232 51.8819L20.8427 51.6788ZM21.7177 55.3925C21.6648 54.9773 21.7864 54.6799 21.9832 54.1878L21.3239 53.9241C21.1376 54.3898 20.9336 54.8563 21.0133 55.4822L21.7177 55.3925ZM21.9832 54.1878C22.0354 54.0575 22.1048 53.9442 22.1977 53.7645C22.2808 53.6038 22.3748 53.4015 22.4058 53.1717L21.702 53.0768C21.6881 53.18 21.6425 53.2922 21.5669 53.4383C21.5012 53.5655 21.3929 53.7516 21.3239 53.9241L21.9832 54.1878ZM22.4058 53.1717C22.4176 53.0844 22.4216 53.017 22.4246 52.9762C22.4282 52.9275 22.4299 52.936 22.4243 52.9528C22.4146 52.9823 22.3996 52.9981 22.4037 52.9937C22.414 52.9827 22.4392 52.9595 22.5018 52.9102L22.0624 52.3523C21.9463 52.4437 21.8082 52.5533 21.7498 52.7308C21.7242 52.8085 21.7193 52.8839 21.7164 52.924C21.7129 52.972 21.7103 53.0154 21.702 53.0768L22.4058 53.1717ZM22.8652 54.1663C22.7392 54.526 22.5589 54.8857 22.3754 55.3265C22.2029 55.7409 22.0395 56.2039 22.0185 56.6652L22.7279 56.6975C22.7429 56.3676 22.8637 56.0013 23.031 55.5994C23.1872 55.224 23.4025 54.7805 23.5354 54.4011L22.8652 54.1663ZM22.0185 56.6652C22.0171 56.6956 22.0072 56.7348 21.9766 56.8172C21.9513 56.8851 21.9014 57.0065 21.8777 57.1347L22.576 57.264C22.5854 57.2127 22.6046 57.1657 22.6421 57.0648C22.6743 56.9783 22.721 56.8482 22.7279 56.6975L22.0185 56.6652ZM21.8777 57.1347L21.8771 57.138L22.5753 57.2673L22.5759 57.264L21.8777 57.1347ZM21.8771 57.1381C21.8699 57.177 21.8517 57.2738 21.8344 57.3363C21.8303 57.3513 21.8282 57.3567 21.8287 57.3554C21.829 57.3548 21.8319 57.3472 21.8379 57.3358C21.8417 57.3286 21.8585 57.2966 21.8925 57.2625C21.9202 57.2347 22.0279 57.1385 22.1948 57.1662C22.3536 57.1925 22.4241 57.309 22.4392 57.3359C22.4729 57.3956 22.4745 57.4451 22.4713 57.4198L21.7668 57.5095C21.7696 57.5313 21.7786 57.6101 21.8207 57.6848C21.8401 57.7192 21.9151 57.8396 22.0786 57.8667C22.2502 57.8952 22.3628 57.7966 22.3956 57.7637C22.4596 57.6994 22.487 57.6221 22.4913 57.611C22.5028 57.5812 22.5119 57.5507 22.5189 57.5256C22.5459 57.4279 22.5694 57.2996 22.5754 57.2672L21.8771 57.1381ZM23.7964 55.5057C23.6427 56.2333 23.2778 56.9177 22.9406 57.6689L23.5884 57.9597C23.8973 57.2715 24.3168 56.4781 24.4912 55.6524L23.7964 55.5057ZM22.9406 57.6689C22.9219 57.7106 22.91 57.7539 22.9032 57.7797C22.8953 57.81 22.8879 57.843 22.8814 57.8728C22.8671 57.938 22.8558 57.9932 22.8428 58.0432C22.8366 58.0672 22.8317 58.0828 22.8284 58.0917C22.8236 58.1052 22.8273 58.0899 22.8448 58.065C22.8518 58.0551 22.9381 57.9305 23.1146 57.9355C23.2855 57.9403 23.363 58.063 23.3651 58.066L22.7751 58.4613C22.8015 58.5008 22.902 58.6399 23.0945 58.6454C23.2926 58.651 23.3992 58.5112 23.4253 58.474C23.4872 58.3862 23.5169 58.2725 23.5301 58.2219C23.5476 58.1543 23.5637 58.0763 23.575 58.0247C23.5911 57.9517 23.5954 57.9442 23.5884 57.9597L22.9406 57.6689ZM24.9009 56.4459C24.7859 57.1984 24.582 57.9924 24.3598 58.7326L25.04 58.9367C25.2669 58.1806 25.4808 57.3515 25.6028 56.5532L24.9009 56.4459ZM26.7013 57.326C26.6966 57.634 26.6138 57.9461 26.5261 58.3273C26.4431 58.6883 26.3582 59.1059 26.413 59.5366L27.1175 59.4469C27.0802 59.154 27.1353 58.847 27.2182 58.4865C27.2964 58.1462 27.4052 57.7399 27.4114 57.3369L26.7013 57.326ZM29.0927 57.6581C28.314 58.0773 27.5989 58.8492 27.2565 59.6763L27.9126 59.9479C28.1901 59.2775 28.7893 58.628 29.4293 58.2834L29.0927 57.6581ZM29.2507 58.9478C28.8376 59.6033 28.5555 60.2148 28.324 60.9435L29.0008 61.1585C29.2142 60.4866 29.471 59.9302 29.8515 59.3263L29.2507 58.9478ZM28.324 60.9435C28.2595 61.1466 28.2546 61.3323 28.2547 61.4797C28.2547 61.6379 28.2589 61.737 28.2403 61.8459L28.9403 61.9652C28.9718 61.7806 28.9648 61.6009 28.9648 61.4795C28.9648 61.3473 28.9709 61.2526 29.0008 61.1585L28.324 60.9435ZM28.2403 61.8459C28.2347 61.8791 28.2246 61.9036 28.1947 61.9783C28.1669 62.0479 28.1255 62.1546 28.1157 62.293L28.824 62.3432C28.8256 62.3205 28.8311 62.2993 28.854 62.242C28.8749 62.1899 28.9193 62.0886 28.9403 61.9652L28.2403 61.8459ZM30.3748 60.6635C29.8082 61.7103 29.2065 62.7782 29.0532 64.0679L29.7584 64.1517C29.8927 63.0214 30.4181 62.0754 30.9993 61.0016L30.3748 60.6635ZM31.4428 62.5213C31.1924 62.8082 31.0181 63.1606 30.8778 63.4927C30.8071 63.6601 30.7419 63.8304 30.6804 63.9892C30.6179 64.1504 30.5592 64.3001 30.4979 64.4379L31.1469 64.7263C31.2161 64.5707 31.2805 64.406 31.3426 64.2456C31.4057 64.0828 31.4664 63.9242 31.532 63.769C31.6642 63.456 31.8034 63.1882 31.9779 62.9882L31.4428 62.5213ZM30.4979 64.4379C30.4627 64.5173 30.426 64.5896 30.3815 64.6823C30.3397 64.7693 30.2942 64.8681 30.2572 64.9737L30.9274 65.2085C30.951 65.1411 30.9826 65.071 31.0217 64.9896C31.058 64.9139 31.106 64.8182 31.1469 64.7263L30.4979 64.4379ZM32.3052 63.9207C31.9019 64.479 31.3606 65.1217 31.0288 65.8264L31.6713 66.1289C31.9656 65.5038 32.4313 64.9587 32.8808 64.3366L32.3052 63.9207ZM31.0288 65.8264C31.0152 65.8553 31.0037 65.8818 30.9945 65.9034C30.9845 65.9266 30.9782 65.9414 30.9716 65.9558C30.9599 65.9816 30.954 65.9903 30.9498 65.9957L31.5114 66.4304C31.562 66.365 31.5941 66.3021 31.6175 66.251C31.6285 66.227 31.6391 66.202 31.647 66.1834C31.6557 66.1632 31.6632 66.1461 31.6713 66.1289L31.0288 65.8264ZM30.9336 69.4432C31.4991 68.4877 32.1844 67.7827 32.9481 66.9293L32.419 66.4557C31.6796 67.2819 30.9327 68.0504 30.3225 69.0815L30.9336 69.4432ZM32.9481 66.9293C33.0242 66.8443 33.0949 66.75 33.1583 66.663C33.2252 66.5713 33.2822 66.4903 33.3445 66.4093C33.472 66.2435 33.5728 66.1455 33.6651 66.1011L33.3573 65.4611C33.1044 65.5828 32.9183 65.7987 32.7817 65.9763C32.7119 66.0669 32.6426 66.1649 32.5845 66.2447C32.5228 66.3293 32.4698 66.399 32.419 66.4557L32.9481 66.9293ZM32.0943 69.7125C31.9245 69.8821 31.6876 70.1005 31.4923 70.3351C31.2932 70.5742 31.103 70.8677 31.0333 71.2208L31.7299 71.3585C31.7669 71.1716 31.8741 70.9863 32.038 70.7895C32.2056 70.5883 32.3971 70.4138 32.5961 70.215L32.0943 69.7125ZM32.6389 71.856L32.1363 72.9109L32.7773 73.2164L33.28 72.1615L32.6389 71.856ZM34.2202 72.2768C34.1431 72.5576 34.0869 72.8322 34.0333 73.1036L34.7299 73.2413C34.7834 72.9709 34.8353 72.7185 34.905 72.4649L34.2202 72.2768ZM36.0615 72.242C35.9362 72.6377 35.8197 73.033 35.7116 73.433L36.3971 73.6183C36.5025 73.2286 36.616 72.843 36.7385 72.4565L36.0615 72.242ZM37.6631 72.0391C37.6365 72.124 37.6013 72.2185 37.5599 72.3294C37.5198 72.4368 37.4746 72.5576 37.4349 72.6809C37.3579 72.92 37.2848 73.2154 37.3218 73.5058L38.0262 73.4161C38.0099 73.2876 38.0406 73.1167 38.1109 72.8985C38.1448 72.7932 38.1842 72.6875 38.2251 72.5778C38.2648 72.4715 38.3073 72.3581 38.3407 72.2514L37.6631 72.0391ZM19.1508 26.1497C19.0201 26.2125 18.9399 26.3207 18.8946 26.3945C18.845 26.4754 18.808 26.564 18.7805 26.6423C18.7252 26.7995 18.6919 26.963 18.6776 27.0567L19.3795 27.164C19.3892 27.1005 19.4137 26.9823 19.4504 26.8777C19.4689 26.8252 19.4864 26.7879 19.4999 26.7659C19.5176 26.737 19.5091 26.7653 19.4587 26.7896L19.1508 26.1497ZM18.6776 27.0567C18.6677 27.1209 18.6405 27.2729 18.6147 27.3595C18.6083 27.381 18.606 27.3846 18.6093 27.3775C18.6107 27.3747 18.6194 27.3563 18.6376 27.333C18.6494 27.3179 18.704 27.249 18.8098 27.2196C18.9532 27.1797 19.0751 27.2394 19.1411 27.3037C19.1915 27.3529 19.2102 27.4026 19.2134 27.411C19.2224 27.4343 19.22 27.4395 19.2151 27.4011L18.5107 27.4908C18.5171 27.541 18.5276 27.6062 18.5508 27.6664C18.5611 27.6931 18.5873 27.7555 18.6453 27.8121C18.7189 27.8839 18.8486 27.9458 19 27.9037C19.1139 27.8721 19.1767 27.7964 19.1968 27.7707C19.2233 27.7368 19.2404 27.704 19.2502 27.6835C19.2704 27.6411 19.2851 27.5965 19.2953 27.5623C19.3359 27.4258 19.369 27.2329 19.3795 27.164L18.6776 27.0567ZM17.2743 25.6885C17.1799 25.8923 17.1085 26.0737 17.0056 26.2816C16.9067 26.481 16.811 26.6333 16.7162 26.7252L17.2106 27.235C17.3958 27.0554 17.5349 26.8126 17.6418 26.5969C17.7446 26.3896 17.8498 26.1357 17.9186 25.9872L17.2743 25.6885ZM16.3563 24.4313C16.1208 24.8292 15.9857 25.2272 15.8403 25.5991L16.5017 25.8577C16.6617 25.4485 16.7697 25.1271 16.9674 24.793L16.3563 24.4313ZM15.8403 25.5991C15.808 25.6817 15.7983 25.7035 15.7992 25.7016C15.8004 25.6994 15.8034 25.6935 15.8082 25.6855C15.8115 25.68 15.8229 25.661 15.8419 25.6391C15.8513 25.6282 15.8701 25.6077 15.8981 25.5869C15.9229 25.5685 15.9812 25.53 16.0672 25.5198C16.1709 25.5075 16.2726 25.5417 16.3471 25.6094C16.4088 25.6653 16.4339 25.7275 16.4436 25.7553C16.4626 25.8104 16.4626 25.8563 16.4628 25.8633C16.463 25.8788 16.4621 25.8904 16.4617 25.8948C16.4609 25.904 16.46 25.9093 16.4604 25.9063C16.4618 25.8978 16.4935 25.743 16.5039 25.63L15.7968 25.5647C15.7887 25.6524 15.7721 25.713 15.7591 25.7948C15.7578 25.8031 15.7556 25.8177 15.7542 25.834C15.7535 25.842 15.7524 25.8566 15.7527 25.8744C15.7529 25.8838 15.7531 25.9316 15.7726 25.9878C15.7824 26.0162 15.8078 26.0789 15.8698 26.1351C15.9446 26.2031 16.0466 26.2373 16.1508 26.225C16.2371 26.2148 16.2959 26.176 16.3212 26.1572C16.3498 26.1361 16.3691 26.1151 16.3792 26.1034C16.4119 26.0655 16.4306 26.0268 16.4322 26.0236C16.4509 25.9868 16.4754 25.925 16.5017 25.8577L15.8403 25.5991ZM15.1956 24.6235C15.3946 24.4902 15.5362 24.3256 15.6483 24.1919C15.7677 24.0493 15.8511 23.9456 15.9596 23.858L15.5133 23.3056C15.3389 23.4466 15.2063 23.6136 15.1039 23.7359C14.9941 23.867 14.9079 23.9615 14.8003 24.0336L15.1956 24.6235ZM15.9596 23.858C16.0544 23.7814 16.1599 23.7079 16.2784 23.6242C16.3917 23.5442 16.5177 23.4542 16.6298 23.357L16.1645 22.8206C16.0827 22.8915 15.9843 22.9625 15.8687 23.0442C15.7582 23.1222 15.6303 23.2111 15.5133 23.3056L15.9596 23.858ZM14.5749 23.2433C14.577 23.2052 14.5943 23.146 14.6515 23.0609C14.7085 22.9762 14.7921 22.885 14.8976 22.7872C15.0024 22.69 15.1178 22.5964 15.2348 22.5021C15.3464 22.4123 15.4677 22.3155 15.5625 22.2259L15.0747 21.7099C15.0053 21.7755 14.9105 21.8516 14.7894 21.949C14.6739 22.0421 14.5402 22.1502 14.4148 22.2664C14.2901 22.382 14.1624 22.5157 14.0623 22.6646C13.9624 22.813 13.877 22.9958 13.8658 23.2055L14.5749 23.2433ZM15.5625 22.2259C15.7185 22.0784 15.8325 21.9026 15.9139 21.7873C16.0043 21.659 16.0684 21.5821 16.1464 21.5299L15.7511 20.94C15.5557 21.0709 15.4281 21.2439 15.3335 21.378C15.2298 21.525 15.1655 21.624 15.0747 21.7099L15.5625 22.2259ZM14.1777 20.7668C14.3551 20.6119 14.5569 20.4763 14.8101 20.2771C15.0382 20.0978 15.2929 19.8763 15.4552 19.6104L14.8491 19.2404C14.7579 19.3898 14.592 19.5453 14.3711 19.719C14.1755 19.8728 13.9 20.0666 13.7107 20.2319L14.1777 20.7668ZM13.5575 19.389L13.5641 19.3808L13.0076 18.9397L13.001 18.9479L13.5575 19.389ZM13.5641 19.3808C13.7603 19.1332 13.9939 18.839 14.2494 18.578C14.5099 18.3119 14.7633 18.1122 14.9897 18.024L14.7319 17.3623C14.3619 17.5065 14.0226 17.7946 13.742 18.0812C13.4565 18.3728 13.2008 18.6959 13.0076 18.9397L13.5641 19.3808ZM12.8505 17.613C13.1187 17.3875 13.3957 17.1724 13.6791 16.9506C13.9604 16.7305 14.247 16.5045 14.5236 16.2645L14.0582 15.7282C13.7967 15.955 13.523 16.171 13.2414 16.3914C12.9619 16.6101 12.6735 16.8341 12.3935 17.0695L12.8505 17.613ZM12.9984 16.0019C13.2585 15.868 13.4955 15.6784 13.6863 15.5387C13.8914 15.3886 14.0643 15.2782 14.2511 15.2221L14.0468 14.542C13.7359 14.6354 13.48 14.8097 13.2669 14.9657C13.0394 15.1322 12.8688 15.2699 12.6733 15.3705L12.9984 16.0019ZM13.4127 14.1964C13.8997 14.0501 14.3565 13.7543 14.7495 13.5204C15.1659 13.2726 15.5263 13.0829 15.8956 13.0358L15.8059 12.3314C15.2733 12.3992 14.7976 12.6655 14.3864 12.9102C13.9519 13.1687 13.5895 13.4018 13.2085 13.5163L13.4127 14.1964ZM14.4456 11.0972L15.6295 10.9465L15.5398 10.242L14.3559 10.3928L14.4456 11.0972Z" fill="#FDFEFF"/>
</svg>
