<svg width="240" height="228" viewBox="0 0 240 228" fill="none" xmlns="http://www.w3.org/2000/svg">
<g id="contextual-pop-up-illustration">
<rect width="240" height="228" fill="url(#paint0_linear_4_23198)" fill-opacity="0.25"/>
<path id="question-mark-3" d="M116.111 139.67C115.567 139.67 115.091 139.499 114.683 139.156C114.275 138.745 114.071 138.231 114.071 137.614C114.071 137.066 114.071 136.517 114.071 135.969C114.071 135.421 114.071 134.872 114.071 134.324C114.343 131.651 115.057 129.286 116.213 127.23C117.437 125.105 118.83 123.185 120.394 121.472C122.026 119.69 123.624 118.01 125.187 116.434C126.819 114.857 128.179 113.315 129.267 111.807C130.423 110.231 131.102 108.62 131.306 106.975C131.51 104.987 131.102 103.308 130.083 101.937C129.131 100.566 127.805 99.5376 126.105 98.8521C124.473 98.0981 122.74 97.7211 120.904 97.7211C117.709 97.7211 115.091 98.5094 113.051 100.086C111.012 101.662 109.618 104.199 108.87 107.694C108.666 108.517 108.326 109.134 107.85 109.545C107.374 109.888 106.728 110.059 105.912 110.059H97.2437C96.6317 110.059 96.0878 109.854 95.6119 109.442C95.204 108.962 95 108.346 95 107.592C95.068 104.85 95.6799 102.211 96.8357 99.6746C98.0595 97.07 99.7933 94.7394 102.037 92.6831C104.349 90.6268 107.136 89.016 110.4 87.8507C113.663 86.6169 117.403 86 121.618 86C126.241 86 130.117 86.6169 133.244 87.8507C136.44 89.016 138.955 90.5582 140.791 92.4775C142.695 94.3967 144.054 96.4873 144.87 98.7493C145.686 100.943 146.06 103.102 145.992 105.227C145.856 107.831 145.278 110.162 144.258 112.218C143.239 114.275 141.981 116.194 140.485 117.976C138.989 119.69 137.459 121.403 135.896 123.117C134.332 124.762 132.938 126.441 131.714 128.155C130.559 129.869 129.777 131.685 129.369 133.604C129.233 134.221 129.131 134.838 129.063 135.455C128.995 136.003 128.927 136.552 128.859 137.1C128.587 137.923 128.247 138.574 127.839 139.054C127.431 139.465 126.853 139.67 126.105 139.67H116.111ZM115.805 159C115.125 159 114.547 158.76 114.071 158.28C113.595 157.8 113.357 157.218 113.357 156.532V147.587C113.357 146.833 113.595 146.216 114.071 145.737C114.547 145.257 115.125 145.017 115.805 145.017H125.697C126.445 145.017 127.057 145.257 127.533 145.737C128.009 146.216 128.247 146.833 128.247 147.587V156.532C128.247 157.218 128.009 157.8 127.533 158.28C127.057 158.76 126.445 159 125.697 159H115.805Z" fill="#FF8E0A"/>
<path id="question-mark-2" d="M116.111 139.67C115.567 139.67 115.091 139.499 114.683 139.156C114.275 138.745 114.071 138.231 114.071 137.614C114.071 137.066 114.071 136.517 114.071 135.969C114.071 135.421 114.071 134.872 114.071 134.324C114.343 131.651 115.057 129.286 116.213 127.23C117.437 125.105 118.83 123.185 120.394 121.472C122.026 119.69 123.624 118.01 125.187 116.434C126.819 114.857 128.179 113.315 129.267 111.807C130.423 110.231 131.102 108.62 131.306 106.975C131.51 104.987 131.102 103.308 130.083 101.937C129.131 100.566 127.805 99.5376 126.105 98.8521C124.473 98.0981 122.74 97.7211 120.904 97.7211C117.709 97.7211 115.091 98.5094 113.051 100.086C111.012 101.662 109.618 104.199 108.87 107.694C108.666 108.517 108.326 109.134 107.85 109.545C107.374 109.888 106.728 110.059 105.912 110.059H97.2437C96.6317 110.059 96.0878 109.854 95.6119 109.442C95.204 108.962 95 108.346 95 107.592C95.068 104.85 95.6799 102.211 96.8357 99.6746C98.0595 97.07 99.7933 94.7394 102.037 92.6831C104.349 90.6268 107.136 89.016 110.4 87.8507C113.663 86.6169 117.403 86 121.618 86C126.241 86 130.117 86.6169 133.244 87.8507C136.44 89.016 138.955 90.5582 140.791 92.4775C142.695 94.3967 144.054 96.4873 144.87 98.7493C145.686 100.943 146.06 103.102 145.992 105.227C145.856 107.831 145.278 110.162 144.258 112.218C143.239 114.275 141.981 116.194 140.485 117.976C138.989 119.69 137.459 121.403 135.896 123.117C134.332 124.762 132.938 126.441 131.714 128.155C130.559 129.869 129.777 131.685 129.369 133.604C129.233 134.221 129.131 134.838 129.063 135.455C128.995 136.003 128.927 136.552 128.859 137.1C128.587 137.923 128.247 138.574 127.839 139.054C127.431 139.465 126.853 139.67 126.105 139.67H116.111ZM115.805 159C115.125 159 114.547 158.76 114.071 158.28C113.595 157.8 113.357 157.218 113.357 156.532V147.587C113.357 146.833 113.595 146.216 114.071 145.737C114.547 145.257 115.125 145.017 115.805 145.017H125.697C126.445 145.017 127.057 145.257 127.533 145.737C128.009 146.216 128.247 146.833 128.247 147.587V156.532C128.247 157.218 128.009 157.8 127.533 158.28C127.057 158.76 126.445 159 125.697 159H115.805Z" fill="#FF8E0A"/>
<path id="question-mark-1" d="M116.111 139.67C115.567 139.67 115.091 139.499 114.683 139.156C114.275 138.745 114.071 138.231 114.071 137.614C114.071 137.066 114.071 136.517 114.071 135.969C114.071 135.421 114.071 134.872 114.071 134.324C114.343 131.651 115.057 129.286 116.213 127.23C117.437 125.105 118.83 123.185 120.394 121.472C122.026 119.69 123.624 118.01 125.187 116.434C126.819 114.857 128.179 113.315 129.267 111.807C130.423 110.231 131.102 108.62 131.306 106.975C131.51 104.987 131.102 103.308 130.083 101.937C129.131 100.566 127.805 99.5376 126.105 98.8521C124.473 98.0981 122.74 97.7211 120.904 97.7211C117.709 97.7211 115.091 98.5094 113.051 100.086C111.012 101.662 109.618 104.199 108.87 107.694C108.666 108.517 108.326 109.134 107.85 109.545C107.374 109.888 106.728 110.059 105.912 110.059H97.2437C96.6317 110.059 96.0878 109.854 95.6119 109.442C95.204 108.962 95 108.346 95 107.592C95.068 104.85 95.6799 102.211 96.8357 99.6746C98.0595 97.07 99.7933 94.7394 102.037 92.6831C104.349 90.6268 107.136 89.016 110.4 87.8507C113.663 86.6169 117.403 86 121.618 86C126.241 86 130.117 86.6169 133.244 87.8507C136.44 89.016 138.955 90.5582 140.791 92.4775C142.695 94.3967 144.054 96.4873 144.87 98.7493C145.686 100.943 146.06 103.102 145.992 105.227C145.856 107.831 145.278 110.162 144.258 112.218C143.239 114.275 141.981 116.194 140.485 117.976C138.989 119.69 137.459 121.403 135.896 123.117C134.332 124.762 132.938 126.441 131.714 128.155C130.559 129.869 129.777 131.685 129.369 133.604C129.233 134.221 129.131 134.838 129.063 135.455C128.995 136.003 128.927 136.552 128.859 137.1C128.587 137.923 128.247 138.574 127.839 139.054C127.431 139.465 126.853 139.67 126.105 139.67H116.111ZM115.805 159C115.125 159 114.547 158.76 114.071 158.28C113.595 157.8 113.357 157.218 113.357 156.532V147.587C113.357 146.833 113.595 146.216 114.071 145.737C114.547 145.257 115.125 145.017 115.805 145.017H125.697C126.445 145.017 127.057 145.257 127.533 145.737C128.009 146.216 128.247 146.833 128.247 147.587V156.532C128.247 157.218 128.009 157.8 127.533 158.28C127.057 158.76 126.445 159 125.697 159H115.805Z" fill="#FF8E0A"/>
</g>
<defs>
<linearGradient id="paint0_linear_4_23198" x1="120" y1="0" x2="120" y2="228" gradientUnits="userSpaceOnUse">
<stop offset="0.25" stop-color="#FDFEFF" stop-opacity="0"/>
<stop offset="0.75" stop-color="#FF8E0A" stop-opacity="0.534586"/>
<stop offset="1" stop-color="#FF8E0A" stop-opacity="0.9"/>
</linearGradient>
</defs>
</svg>
