<svg width="24" height="24" viewBox="0 0 24 24" fill="none" xmlns="http://www.w3.org/2000/svg">
<g id="gear">
<g id="Vector">
<path d="M12 1L8.7 4.3H4.3V8.7L1 12L4.3 15.3V19.7H8.7L12 23L15.3 19.7H19.7V15.3L23 12L19.7 8.7V4.3H15.3L12 1Z" stroke="#FF8E0A" stroke-width="2" stroke-linejoin="round"/>
<path d="M12 15.3C12.8752 15.3 13.7146 14.9523 14.3335 14.3335C14.9523 13.7146 15.3 12.8752 15.3 12C15.3 11.1248 14.9523 10.2854 14.3335 9.66657C13.7146 9.0477 12.8752 8.70002 12 8.70002C11.1248 8.70002 10.2854 9.0477 9.66657 9.66657C9.0477 10.2854 8.70002 11.1248 8.70002 12C8.70002 12.8752 9.0477 13.7146 9.66657 14.3335C10.2854 14.9523 11.1248 15.3 12 15.3Z" stroke="#FF8E0A" stroke-width="2" stroke-linejoin="round"/>
</g>
</g>
</svg>
