<svg width="22" height="22" viewBox="0 0 22 22" fill="none" xmlns="http://www.w3.org/2000/svg">
<path id="google-logo" d="M21.0865 9.03098C21.2177 9.7339 21.2891 10.4688 21.2891 11.2357C21.2891 17.2345 17.2743 21.5 11.2104 21.5C9.83145 21.5004 8.46588 21.2291 7.19177 20.7016C5.91767 20.1741 4.75999 19.4007 3.78489 18.4256C2.80979 17.4505 2.03638 16.2928 1.50886 15.0187C0.981333 13.7446 0.710029 12.379 0.71045 11C0.710029 9.621 0.981333 8.25543 1.50886 6.98133C2.03638 5.70722 2.80979 4.54954 3.78489 3.57444C4.75999 2.59934 5.91767 1.82593 7.19177 1.29841C8.46588 0.770884 9.83145 0.49958 11.2104 0.5C14.0456 0.5 16.4146 1.54317 18.2321 3.237L15.2722 6.19692V6.18946C14.1704 5.13988 12.772 4.60123 11.2104 4.60123C7.746 4.60123 4.93008 7.52809 4.93008 10.9936C4.93008 14.458 7.746 17.3913 11.2104 17.3913C14.3538 17.3913 16.4935 15.594 16.933 13.1258H11.2104V9.03098H21.0875H21.0865Z" fill="#26262E"/>
</svg>
