<svg width="24" height="24" viewBox="0 0 24 24" fill="none" xmlns="http://www.w3.org/2000/svg">
<g id="logo-small">
<path id="logo-small_2" d="M14.6823 11.9994C14.6823 13.6568 13.6219 15.3173 11.6819 15.3173C9.74305 15.3173 8.57677 13.6568 8.57677 11.9994C8.57677 10.3431 9.74305 8.6826 11.6819 8.6826C13.6219 8.6826 14.6823 10.3431 14.6823 11.9994ZM23.9999 7.50044V24.001H12.0005H7.50044C3.3581 23.9999 0 20.6418 0 16.5005V0H12.0005H16.5005C20.6418 0 23.9999 3.3581 23.9999 7.50044ZM17.7885 5.99971C16.8064 5.99971 15.9354 6.47067 15.3882 7.19881C14.3849 6.44633 13.1382 5.99971 11.7878 5.99971C8.47411 5.99971 5.78805 8.68577 5.78805 11.9994C5.78805 15.3131 8.47411 18.0002 11.7878 18.0002C13.1382 18.0002 14.3849 17.5536 15.3882 16.8C15.4729 16.9133 15.566 17.0202 15.6666 17.1207C16.2095 17.6647 16.9599 18.0002 17.7885 18.0002V5.99971Z" fill="#FF8E0A"/>
</g>
</svg>
