<svg width="208" height="72" viewBox="0 0 208 72" fill="none" xmlns="http://www.w3.org/2000/svg">
<g id="logo-large">
<path id="logo-large_2" d="M124.73 26.0474C130.551 26.0474 133.73 31.0292 133.73 35.9963C133.73 40.9672 130.547 45.9489 124.73 45.9489C118.912 45.9489 115.416 40.9672 115.416 35.9963C115.416 31.0292 118.912 26.0474 124.73 26.0474ZM35.6825 26.0474C29.8686 26.0474 26.3686 31.0292 26.3686 35.9963C26.3686 40.9672 29.8686 45.9489 35.6825 45.9489C41.5 45.9489 44.6825 40.9672 44.6825 35.9963C44.6825 31.0292 41.5 26.0474 35.6825 26.0474ZM207.639 22.5V72H22.5C10.073 72 0 61.927 0 49.5037V0H134.047V20.4088C131.398 18.8759 128.325 18 125.047 18C115.106 18 107.047 26.0584 107.047 36C107.047 45.9416 115.106 54.0037 125.047 54.0037C129.102 54.0037 132.843 52.6642 135.85 50.4015C137.493 52.5876 140.106 54.0037 143.051 54.0037V0H185.139C197.566 0 207.639 10.073 207.639 22.5ZM54.0037 18C51.0584 18 48.4453 19.4124 46.8029 21.5985C43.792 19.3394 40.0511 18 36 18C26.0584 18 18 26.0584 18 36C18 45.9416 26.0584 54.0037 36 54.0037C40.0511 54.0037 43.792 52.6642 46.8029 50.4015C47.0584 50.7409 47.3358 51.062 47.6387 51.365C49.2664 52.9964 51.5182 54.0037 54.0037 54.0037V18ZM99.0037 18.1569H90V36.1569C90 41.1277 86.8175 46.1095 81 46.1095C75.1825 46.1095 71.6861 41.1277 71.6861 36.1569V26.5255C71.6861 24.646 71.1314 22.8978 70.1788 21.4599C68.6168 19.0839 65.9854 17.5255 63.0037 17.5255V36.1606C63.0037 46.1058 71.062 54.1642 81.0037 54.1642C85.0547 54.1642 88.7993 52.8248 91.8066 50.562C93.4453 52.7482 96.062 54.1642 99.0073 54.1642V18.1569H99.0037ZM189.639 36.0037C189.639 26.0584 181.58 18 171.639 18C167.588 18 163.843 19.3394 160.836 21.6022C159.197 19.4161 156.58 18 153.635 18V54.0037H162.635V36.0037C162.635 31.0328 165.818 26.0511 171.635 26.0511C177.453 26.0511 180.949 31.0328 180.949 36.0037V45.635C180.949 47.5146 181.504 49.2628 182.456 50.7007C184.018 53.0766 186.65 54.635 189.631 54.635V36.0037H189.639Z" fill="#26262E"/>
</g>
</svg>
