<svg width="25" height="24" viewBox="0 0 25 24" fill="none" xmlns="http://www.w3.org/2000/svg">
<g id="share">
<path id="Vector" d="M19.1961 16.2658C18.3964 16.2658 17.6584 16.5464 17.0803 17.015L11.266 12.8087C11.3634 12.2743 11.3634 11.7267 11.266 11.1923L17.0803 6.98595C17.6584 7.45457 18.3964 7.73518 19.1961 7.73518C21.0538 7.73518 22.5635 6.22549 22.5635 4.36784C22.5635 2.51018 21.0538 1.00049 19.1961 1.00049C17.3385 1.00049 15.8288 2.51018 15.8288 4.36784C15.8288 4.69335 15.8737 5.00482 15.9607 5.30227L10.4382 9.301C9.61881 8.21503 8.31677 7.51069 6.84917 7.51069C4.36856 7.51069 2.35938 9.51988 2.35938 12.0005C2.35938 14.4811 4.36856 16.4903 6.84917 16.4903C8.31677 16.4903 9.61881 15.7859 10.4382 14.7L15.9607 18.6987C15.8737 18.9962 15.8288 19.3104 15.8288 19.6331C15.8288 21.4908 17.3385 23.0005 19.1961 23.0005C21.0538 23.0005 22.5635 21.4908 22.5635 19.6331C22.5635 17.7755 21.0538 16.2658 19.1961 16.2658ZM19.1961 2.90865C20.0015 2.90865 20.6553 3.56248 20.6553 4.36784C20.6553 5.17319 20.0015 5.82702 19.1961 5.82702C18.3908 5.82702 17.7369 5.17319 17.7369 4.36784C17.7369 3.56248 18.3908 2.90865 19.1961 2.90865ZM6.84917 14.4699C5.4882 14.4699 4.37978 13.3615 4.37978 12.0005C4.37978 10.6395 5.4882 9.5311 6.84917 9.5311C8.21014 9.5311 9.31856 10.6395 9.31856 12.0005C9.31856 13.3615 8.21014 14.4699 6.84917 14.4699ZM19.1961 21.0923C18.3908 21.0923 17.7369 20.4385 17.7369 19.6331C17.7369 18.8278 18.3908 18.174 19.1961 18.174C20.0015 18.174 20.6553 18.8278 20.6553 19.6331C20.6553 20.4385 20.0015 21.0923 19.1961 21.0923Z" fill="#26262E"/>
</g>
</svg>
