<svg width="24" height="24" viewBox="0 0 24 24" fill="none" xmlns="http://www.w3.org/2000/svg">
<path id="Vector" d="M1.33333 7.33346H6C6.98133 7.33346 7.85733 7.85479 8.468 8.66812C8.90172 7.86542 9.4353 7.12084 10.056 6.45212C8.98533 5.35479 7.568 4.66679 6 4.66679H1.33333C0.979711 4.66679 0.640573 4.80727 0.390524 5.05731C0.140476 5.30736 0 5.6465 0 6.00012C0 6.35375 0.140476 6.69288 0.390524 6.94293C0.640573 7.19298 0.979711 7.33346 1.33333 7.33346ZM11.58 11.4815C12.3147 9.27212 14.588 7.33346 16.4453 7.33346H18.896L17.172 9.05746C17.0482 9.18125 16.95 9.32821 16.883 9.48996C16.816 9.6517 16.7815 9.82505 16.7815 10.0001C16.7815 10.1752 16.816 10.3485 16.883 10.5103C16.95 10.672 17.0482 10.819 17.172 10.9428C17.2958 11.0666 17.4428 11.1648 17.6045 11.2318C17.7662 11.2988 17.9396 11.3333 18.1147 11.3333C18.2897 11.3333 18.4631 11.2988 18.6248 11.2318C18.7866 11.1648 18.9335 11.0666 19.0573 10.9428L24 6.00012L19.0573 1.05746C18.9335 0.933665 18.7866 0.835467 18.6248 0.768471C18.4631 0.701475 18.2897 0.666992 18.1147 0.666992C17.9396 0.666992 17.7662 0.701475 17.6045 0.768471C17.4428 0.835467 17.2958 0.933665 17.172 1.05746C17.0482 1.18125 16.95 1.32821 16.883 1.48996C16.816 1.6517 16.7815 1.82505 16.7815 2.00012C16.7815 2.17519 16.816 2.34855 16.883 2.51029C16.95 2.67203 17.0482 2.819 17.172 2.94279L18.896 4.66679H16.4453C13.4133 4.66679 10.164 7.28946 9.04933 10.6388L8.42 12.5201C7.56533 15.0881 5.65733 16.6668 4.66667 16.6668H1.33333C0.979711 16.6668 0.640573 16.8073 0.390524 17.0573C0.140476 17.3074 0 17.6465 0 18.0001C0 18.3537 0.140476 18.6929 0.390524 18.9429C0.640573 19.193 0.979711 19.3335 1.33333 19.3335H4.66667C7.116 19.3335 9.81733 16.7668 10.9507 13.3615L11.58 11.4815ZM17.172 13.0575C17.0481 13.1812 16.9498 13.3281 16.8827 13.4899C16.8156 13.6516 16.7811 13.825 16.7811 14.0001C16.7811 14.1752 16.8156 14.3486 16.8827 14.5104C16.9498 14.6721 17.0481 14.8191 17.172 14.9428L18.896 16.6668H15.7787C14.088 16.6668 12.672 15.4788 12.1907 13.8561C11.8359 14.8867 11.3472 15.8662 10.7373 16.7695C11.9187 18.3188 13.728 19.3335 15.7787 19.3335H18.896L17.172 21.0575C17.0482 21.1812 16.95 21.3282 16.883 21.49C16.816 21.6517 16.7815 21.8251 16.7815 22.0001C16.7815 22.1752 16.816 22.3485 16.883 22.5103C16.95 22.672 17.0482 22.819 17.172 22.9428C17.2958 23.0666 17.4428 23.1648 17.6045 23.2318C17.7662 23.2988 17.9396 23.3333 18.1147 23.3333C18.2897 23.3333 18.4631 23.2988 18.6248 23.2318C18.7866 23.1648 18.9335 23.0666 19.0573 22.9428L24 18.0001L19.0573 13.0575C18.9336 12.9335 18.7867 12.8352 18.6249 12.7681C18.4632 12.7011 18.2898 12.6665 18.1147 12.6665C17.9396 12.6665 17.7662 12.7011 17.6044 12.7681C17.4427 12.8352 17.2957 12.9335 17.172 13.0575Z" fill="#26262E"/>
</svg>
