<svg width="48" height="48" viewBox="0 0 48 48" fill="none" xmlns="http://www.w3.org/2000/svg">
<g id="style=fill, state=active, add-friend=false">
<path id="Vector" d="M31.4276 11.8099C31.4276 13.8812 30.6048 15.8677 29.1402 17.3323C27.6755 18.797 25.689 19.6198 23.6177 19.6198C21.5464 19.6198 19.5599 18.797 18.0953 17.3323C16.6307 15.8677 15.8078 13.8812 15.8078 11.8099C15.8078 9.73859 16.6307 7.75211 18.0953 6.28747C19.5599 4.82283 21.5464 4 23.6177 4C25.689 4 27.6755 4.82283 29.1402 6.28747C30.6048 7.75211 31.4276 9.73859 31.4276 11.8099ZM8 41.2126C8.06693 37.1147 9.74179 33.2073 12.6634 30.333C15.585 27.4587 19.5193 25.8479 23.6177 25.8479C27.7162 25.8479 31.6504 27.4587 34.5721 30.333C37.4937 33.2073 39.1685 37.1147 39.2355 41.2126C34.3358 43.4593 29.0079 44.6188 23.6177 44.6115C18.0446 44.6115 12.7547 43.3953 8 41.2126Z" fill="#26262E" stroke="#26262E" stroke-width="4" stroke-linecap="round" stroke-linejoin="round"/>
</g>
</svg>
