<svg width="48" height="48" viewBox="0 0 48 48" fill="none" xmlns="http://www.w3.org/2000/svg">
<g id="style=outline, state=inactive" opacity="0.4">
<path id="Vector" d="M43.4835 43.4835L34.1612 34.1446M34.1612 34.1446C37.4686 30.8328 39.3273 26.3444 39.3273 21.6637M34.1612 34.1446L34.1575 34.1492M39.3273 21.6637C39.3273 16.979 37.4663 12.4861 34.1537 9.17356C30.8412 5.86099 26.3483 4 21.6637 4C16.979 4 12.4861 5.86099 9.17356 9.17356C5.86099 12.4861 4 16.979 4 21.6637C4 26.3483 5.86099 30.8412 9.17356 34.1537C12.4861 37.4663 16.979 39.3273 21.6637 39.3273C26.3483 39.3273 30.8412 37.4663 34.1537 34.1537L34.1575 34.1492M39.3273 21.6637C39.3273 26.3464 37.4675 30.837 34.1575 34.1492" stroke="#26262E" stroke-width="4" stroke-linecap="round"/>
</g>
</svg>
