<svg width="48" height="48" viewBox="0 0 48 48" fill="none" xmlns="http://www.w3.org/2000/svg">
<g id="style=outline, state=inactive" opacity="0.4">
<path id="Vector" d="M46.585 23.155L27.1802 3.76032L25.8795 2.45963C25.5832 2.16523 25.1824 2 24.7647 2C24.3469 2 23.9461 2.16523 23.6498 2.45963L2.94433 23.155C2.64066 23.4575 2.40067 23.8178 2.23851 24.2145C2.07635 24.6113 1.99533 25.0365 2.00021 25.4651C2.0203 27.2329 3.49172 28.644 5.25945 28.644H7.39377V45.0005H42.1355V28.644H44.3151C45.1738 28.644 45.9823 28.3075 46.59 27.6999C46.8892 27.4016 47.1263 27.047 47.2875 26.6565C47.4487 26.266 47.5308 25.8474 47.5291 25.425C47.5291 24.5712 47.1926 23.7627 46.585 23.155ZM27.5769 41.3847H21.9524V31.1399H27.5769V41.3847ZM38.5197 25.0282V41.3847H30.791V29.9347C30.791 28.8248 29.892 27.9259 28.7822 27.9259H20.7471C19.6373 27.9259 18.7383 28.8248 18.7383 29.9347V41.3847H11.0096V25.0282H6.1885L24.7697 6.46212L25.9297 7.62219L43.3458 25.0282H38.5197Z" fill="#26262E"/>
</g>
</svg>
