<svg width="24" height="24" viewBox="0 0 24 24" fill="none" xmlns="http://www.w3.org/2000/svg">
<g id="user">
<path id="Vector" d="M15.7138 5.90495C15.7138 6.94061 15.3024 7.93385 14.5701 8.66617C13.8378 9.39849 12.8445 9.80991 11.8089 9.80991C10.7732 9.80991 9.77997 9.39849 9.04765 8.66617C8.31533 7.93385 7.90391 6.94061 7.90391 5.90495C7.90391 4.8693 8.31533 3.87606 9.04765 3.14373C9.77997 2.41141 10.7732 2 11.8089 2C12.8445 2 13.8378 2.41141 14.5701 3.14373C15.3024 3.87606 15.7138 4.8693 15.7138 5.90495ZM4 20.6063C4.03346 18.5574 4.8709 16.6037 6.3317 15.1665C7.79251 13.7294 9.75964 12.9239 11.8089 12.9239C13.8581 12.9239 15.8252 13.7294 17.286 15.1665C18.7468 16.6037 19.5843 18.5574 19.6177 20.6063C17.1679 21.7297 14.504 22.3094 11.8089 22.3058C9.02229 22.3058 6.37734 21.6976 4 20.6063Z" fill="#26262E" stroke="#26262E" stroke-width="2" stroke-linecap="round" stroke-linejoin="round"/>
</g>
</svg>
