<svg width="16" height="16" viewBox="0 0 16 16" fill="none" xmlns="http://www.w3.org/2000/svg">
<path id="verified" d="M14.0938 8.00049L15.0625 9.21143C15.1562 9.33122 15.2292 9.46143 15.2812 9.60205C15.3333 9.74268 15.3594 9.89111 15.3594 10.0474C15.3594 10.2036 15.3359 10.3521 15.2891 10.4927C15.2422 10.6333 15.1745 10.7609 15.0859 10.8755C14.9974 10.9901 14.8906 11.089 14.7656 11.1724C14.6406 11.2557 14.5052 11.3182 14.3594 11.3599L12.8672 11.7739C12.8776 12.0396 12.8906 12.3078 12.9062 12.5786C12.9219 12.8494 12.9323 13.1203 12.9375 13.3911C12.9375 13.5786 12.9036 13.7531 12.8359 13.9146C12.7682 14.076 12.6719 14.2166 12.5469 14.3364C12.4219 14.4562 12.2786 14.5526 12.1172 14.6255C11.9557 14.6984 11.7786 14.7349 11.5859 14.7349C11.4245 14.7349 11.2656 14.7062 11.1094 14.6489L9.66406 14.1021L8.8125 15.3911C8.6875 15.5838 8.52604 15.7323 8.32812 15.8364C8.13021 15.9406 7.91406 15.9953 7.67969 16.0005C7.45052 16.0005 7.23698 15.9484 7.03906 15.8442C6.84115 15.7401 6.67708 15.589 6.54688 15.3911L5.69531 14.1021L4.25 14.6489C4.09375 14.7062 3.9349 14.7349 3.77344 14.7349C3.58594 14.7349 3.41146 14.701 3.25 14.6333C3.08854 14.5656 2.94531 14.4692 2.82031 14.3442C2.69531 14.2192 2.59896 14.076 2.53125 13.9146C2.46354 13.7531 2.42708 13.5786 2.42188 13.3911C2.42188 13.1203 2.42969 12.8494 2.44531 12.5786C2.46094 12.3078 2.47656 12.0396 2.49219 11.7739L1 11.3599C0.848958 11.3182 0.713542 11.2557 0.59375 11.1724C0.473958 11.089 0.369792 10.9901 0.28125 10.8755C0.192708 10.7609 0.125 10.6333 0.078125 10.4927C0.03125 10.3521 0.00520833 10.2036 0 10.0474C0 9.89632 0.0260417 9.75049 0.078125 9.60986C0.130208 9.46924 0.203125 9.33643 0.296875 9.21143L1.26562 8.00049L0.296875 6.78955C0.0989583 6.54476 0 6.26611 0 5.95361C0 5.79736 0.0234375 5.64893 0.0703125 5.5083C0.117188 5.36768 0.184896 5.24007 0.273438 5.12549C0.361979 5.0109 0.466146 4.91195 0.585938 4.82861C0.705729 4.74528 0.84375 4.68278 1 4.64111L2.49219 4.22705C2.48177 3.96143 2.46875 3.6932 2.45312 3.42236C2.4375 3.15153 2.42708 2.8807 2.42188 2.60986C2.42188 2.42236 2.45573 2.24788 2.52344 2.08643C2.59115 1.92497 2.6875 1.78434 2.8125 1.66455C2.9375 1.54476 3.08073 1.4484 3.24219 1.37549C3.40365 1.30257 3.58073 1.26611 3.77344 1.26611C3.9349 1.26611 4.09375 1.29476 4.25 1.35205L5.69531 1.89893L6.54688 0.609863C6.67188 0.417155 6.83333 0.268717 7.03125 0.164551C7.22917 0.0603841 7.44531 0.00569661 7.67969 0.000488281C7.90885 0.000488281 8.1224 0.0525716 8.32031 0.156738C8.51823 0.260905 8.68229 0.411947 8.8125 0.609863L9.66406 1.89893L11.1094 1.35205C11.2656 1.29476 11.4245 1.26611 11.5859 1.26611C11.7734 1.26611 11.9479 1.29997 12.1094 1.36768C12.2708 1.43538 12.4141 1.53174 12.5391 1.65674C12.6641 1.78174 12.7604 1.92497 12.8281 2.08643C12.8958 2.24788 12.9323 2.42236 12.9375 2.60986C12.9375 2.8807 12.9297 3.15153 12.9141 3.42236C12.8984 3.6932 12.8828 3.96143 12.8672 4.22705L14.3594 4.64111C14.5052 4.68278 14.6406 4.74528 14.7656 4.82861C14.8906 4.91195 14.9948 5.0109 15.0781 5.12549C15.1615 5.24007 15.2292 5.36768 15.2812 5.5083C15.3333 5.64893 15.3594 5.79736 15.3594 5.95361C15.3594 6.26611 15.2604 6.54476 15.0625 6.78955L14.0938 8.00049ZM6.67969 10.8833L11.125 6.4458L10.2344 5.55518L6.67969 9.11768L5.125 7.55518L4.23438 8.4458L6.67969 10.8833Z" fill="#49ADF4"/>
</svg>
