<svg width="24" height="24" viewBox="0 0 24 24" fill="none" xmlns="http://www.w3.org/2000/svg">
<g id="eye">
<g id="Vector">
<path d="M20.8698 10.962C21.3438 11.582 21.3438 12.419 20.8698 13.038C19.3768 14.987 15.7948 19 11.6128 19C7.4308 19 3.8488 14.987 2.3558 13.038C2.12519 12.7411 2 12.3759 2 12C2 11.6241 2.12519 11.2589 2.3558 10.962C3.8488 9.013 7.4308 5 11.6128 5C15.7948 5 19.3768 9.013 20.8698 10.962Z" stroke="#26262E" stroke-width="2" stroke-linecap="round" stroke-linejoin="round"/>
<path d="M11.6128 15C13.2697 15 14.6128 13.6569 14.6128 12C14.6128 10.3431 13.2697 9 11.6128 9C9.95595 9 8.6128 10.3431 8.6128 12C8.6128 13.6569 9.95595 15 11.6128 15Z" stroke="#26262E" stroke-width="2" stroke-linecap="round" stroke-linejoin="round"/>
</g>
</g>
</svg>
