<svg width="32" height="32" viewBox="0 0 32 32" fill="none" xmlns="http://www.w3.org/2000/svg">
<path d="M17.6298 15.3481L21.7039 19.4221C22.0026 19.7209 22.152 20.1012 22.152 20.5629C22.152 21.0246 22.0026 21.4049 21.7039 21.7036C21.4051 22.0024 21.0249 22.1518 20.5631 22.1518C20.1014 22.1518 19.7212 22.0024 19.4224 21.7036L14.8594 17.1407C14.6965 16.9777 14.5742 16.7941 14.4928 16.5898C14.4113 16.3867 14.3705 16.1765 14.3705 15.9592V9.4814C14.3705 9.01967 14.527 8.63236 14.8399 8.31947C15.1517 8.00767 15.5384 7.85177 16.0002 7.85177C16.4619 7.85177 16.8492 8.00767 17.1621 8.31947C17.4739 8.63236 17.6298 9.01967 17.6298 9.4814V15.3481ZM16.0002 30.6666C12.7137 30.6666 9.76683 29.6953 7.15942 27.7528C4.55201 25.8114 2.80016 23.2789 1.90387 20.1555C1.76806 19.6666 1.81587 19.2049 2.04727 18.7703C2.27759 18.3357 2.6372 18.0641 3.12609 17.9555C3.58782 17.8468 4.00229 17.9484 4.3695 18.2602C4.73562 18.5731 4.98658 18.9604 5.12238 19.4221C5.82856 21.8123 7.19364 23.7407 9.21764 25.2073C11.2406 26.674 13.5014 27.4073 16.0002 27.4073C19.1779 27.4073 21.8733 26.3003 24.0864 24.0861C26.3005 21.8731 27.4076 19.1777 27.4076 15.9999C27.4076 12.8221 26.3005 10.1262 24.0864 7.91207C21.8733 5.69903 19.1779 4.59251 16.0002 4.59251C14.1261 4.59251 12.3742 5.02708 10.7446 5.89621C9.11498 6.76535 7.74337 7.96041 6.62979 9.4814H9.48164C9.94337 9.4814 10.3307 9.6373 10.6436 9.9491C10.9554 10.262 11.1113 10.6493 11.1113 11.111C11.1113 11.5728 10.9554 11.9595 10.6436 12.2713C10.3307 12.5842 9.94337 12.7407 9.48164 12.7407H2.96313C2.5014 12.7407 2.11463 12.5842 1.80283 12.2713C1.48994 11.9595 1.3335 11.5728 1.3335 11.111V4.59251C1.3335 4.13078 1.48994 3.74347 1.80283 3.43059C2.11463 3.11878 2.5014 2.96288 2.96313 2.96288C3.42485 2.96288 3.81216 3.11878 4.12505 3.43059C4.43685 3.74347 4.59276 4.13078 4.59276 4.59251V6.79251C5.97794 5.05424 7.66895 3.70979 9.66579 2.75918C11.6615 1.80856 13.773 1.33325 16.0002 1.33325C18.0372 1.33325 19.9455 1.72002 21.725 2.49355C23.5035 3.26817 25.0517 4.31384 26.3695 5.63059C27.6862 6.94841 28.7319 8.49656 29.5065 10.275C30.2801 12.0546 30.6668 13.9629 30.6668 15.9999C30.6668 18.037 30.2801 19.9447 29.5065 21.7232C28.7319 23.5027 27.6862 25.0509 26.3695 26.3676C25.0517 27.6854 23.5035 28.7317 21.725 29.5063C19.9455 30.2798 18.0372 30.6666 16.0002 30.6666Z" fill="#26262E"/>
</svg>
