<svg width="352" height="169" viewBox="0 0 352 169" fill="none" xmlns="http://www.w3.org/2000/svg">
<rect x="0.177734" y="0.716064" width="31.1584" height="39.1266" rx="3" fill="#FDFEFF"/>
<path d="M17.4054 24.4114L20.296 26.7004L19.2804 27.6379L16.4366 25.3801L17.4054 24.4114ZM20.2569 19.6692V20.3879C20.2569 21.2421 20.1501 22.0077 19.9366 22.6848C19.7231 23.3619 19.4158 23.9374 19.0147 24.4114C18.6137 24.8853 18.1319 25.2473 17.5694 25.4973C17.0121 25.7473 16.3871 25.8723 15.6944 25.8723C15.0225 25.8723 14.4054 25.7473 13.8429 25.4973C13.2856 25.2473 12.8012 24.8853 12.3897 24.4114C11.9835 23.9374 11.6684 23.3619 11.4444 22.6848C11.2205 22.0077 11.1085 21.2421 11.1085 20.3879V19.6692C11.1085 18.815 11.2179 18.052 11.4366 17.3801C11.6606 16.703 11.9757 16.1275 12.3819 15.6536C12.7882 15.1744 13.2699 14.8098 13.8272 14.5598C14.3897 14.3098 15.0069 14.1848 15.6788 14.1848C16.3715 14.1848 16.9991 14.3098 17.5616 14.5598C18.1241 14.8098 18.6059 15.1744 19.0069 15.6536C19.408 16.1275 19.7153 16.703 19.9288 17.3801C20.1475 18.052 20.2569 18.815 20.2569 19.6692ZM18.7647 20.3879V19.6536C18.7647 18.9765 18.6944 18.3775 18.5538 17.8567C18.4184 17.3359 18.2179 16.8984 17.9522 16.5442C17.6866 16.19 17.3637 15.9218 16.9835 15.7395C16.6033 15.5572 16.1684 15.4661 15.6788 15.4661C15.2153 15.4661 14.7934 15.5572 14.4132 15.7395C14.0382 15.9218 13.7153 16.19 13.4444 16.5442C13.1736 16.8984 12.9653 17.3359 12.8194 17.8567C12.6736 18.3775 12.6007 18.9765 12.6007 19.6536V20.3879C12.6007 21.0702 12.6736 21.6744 12.8194 22.2004C12.9653 22.7213 13.1736 23.1614 13.4444 23.5208C13.7205 23.8749 14.0486 24.1431 14.4288 24.3254C14.809 24.5077 15.2309 24.5989 15.6944 24.5989C16.184 24.5989 16.6189 24.5077 16.9991 24.3254C17.3793 24.1431 17.6996 23.8749 17.96 23.5208C18.2257 23.1614 18.4262 22.7213 18.5616 22.2004C18.697 21.6744 18.7647 21.0702 18.7647 20.3879Z" fill="#26262E"/>
<rect x="0.177734" y="43.7554" width="31.1584" height="39.1266" rx="3" fill="#FDFEFF"/>
<path d="M16.0694 58.3882L12.3038 68.7554H10.7647L15.1007 57.3804H16.0929L16.0694 58.3882ZM19.2257 68.7554L15.4522 58.3882L15.4288 57.3804H16.421L20.7725 68.7554H19.2257ZM19.0304 64.5444V65.7788H12.6397V64.5444H19.0304Z" fill="#26262E"/>
<rect x="35.7874" y="0.716064" width="31.1584" height="39.1266" rx="3" fill="#FDFEFF"/>
<path d="M48.5775 22.2786L50.8353 14.3411H51.929L51.2962 17.427L48.8665 25.7161H47.7806L48.5775 22.2786ZM46.2415 14.3411L48.0384 22.1223L48.5775 25.7161H47.4994L44.7415 14.3411H46.2415ZM54.8509 22.1145L56.6087 14.3411H58.1165L55.3665 25.7161H54.2884L54.8509 22.1145ZM52.0931 14.3411L54.2884 22.2786L55.0853 25.7161H53.9994L51.6556 17.427L51.015 14.3411H52.0931Z" fill="#26262E"/>
<rect x="35.7874" y="43.7554" width="31.1584" height="39.1266" rx="3" fill="#FDFEFF"/>
<path d="M53.9994 65.8804C53.9994 65.6147 53.9577 65.3804 53.8744 65.1772C53.7962 64.9689 53.6556 64.7814 53.4525 64.6147C53.2546 64.4481 52.9785 64.2892 52.6244 64.1382C52.2754 63.9871 51.8327 63.8335 51.2962 63.6772C50.7337 63.5106 50.2259 63.3257 49.7728 63.1226C49.3197 62.9142 48.9316 62.6772 48.6087 62.4116C48.2858 62.146 48.0384 61.8413 47.8665 61.4976C47.6947 61.1538 47.6087 60.7606 47.6087 60.3179C47.6087 59.8752 47.6999 59.4663 47.8822 59.0913C48.0645 58.7163 48.3249 58.3908 48.6634 58.1147C49.0072 57.8335 49.416 57.6147 49.89 57.4585C50.3639 57.3022 50.8926 57.2241 51.4759 57.2241C52.3301 57.2241 53.054 57.3882 53.6478 57.7163C54.2467 58.0392 54.7025 58.4637 55.015 58.9897C55.3275 59.5106 55.4837 60.0679 55.4837 60.6616H53.9837C53.9837 60.2345 53.8926 59.8569 53.7103 59.5288C53.528 59.1955 53.252 58.9351 52.8822 58.7476C52.5124 58.5549 52.0436 58.4585 51.4759 58.4585C50.9395 58.4585 50.4967 58.5392 50.1478 58.7007C49.7988 58.8621 49.5384 59.0809 49.3665 59.3569C49.1999 59.633 49.1165 59.9481 49.1165 60.3022C49.1165 60.5418 49.166 60.7606 49.265 60.9585C49.3691 61.1512 49.528 61.3309 49.7415 61.4976C49.9603 61.6642 50.2363 61.8179 50.5697 61.9585C50.9082 62.0991 51.3119 62.2345 51.7806 62.3647C52.4264 62.547 52.9837 62.7502 53.4525 62.9741C53.9212 63.1981 54.3066 63.4507 54.6087 63.7319C54.916 64.008 55.1426 64.3231 55.2884 64.6772C55.4395 65.0262 55.515 65.422 55.515 65.8647C55.515 66.3283 55.4212 66.7476 55.2337 67.1226C55.0462 67.4976 54.778 67.8179 54.429 68.0835C54.0801 68.3491 53.6608 68.5549 53.1712 68.7007C52.6869 68.8413 52.1452 68.9116 51.5462 68.9116C51.0202 68.9116 50.502 68.8387 49.9915 68.6929C49.4863 68.547 49.0254 68.3283 48.6087 68.0366C48.1973 67.745 47.8665 67.3856 47.6165 66.9585C47.3717 66.5262 47.2494 66.0262 47.2494 65.4585H48.7494C48.7494 65.8491 48.8249 66.1851 48.9759 66.4663C49.127 66.7424 49.3327 66.9715 49.5931 67.1538C49.8587 67.3361 50.1582 67.4715 50.4915 67.5601C50.8301 67.6434 51.1816 67.6851 51.5462 67.6851C52.0723 67.6851 52.5176 67.6121 52.8822 67.4663C53.2467 67.3205 53.5228 67.1121 53.7103 66.8413C53.903 66.5705 53.9994 66.2502 53.9994 65.8804Z" fill="#26262E"/>
<rect x="71.397" y="43.7554" width="31.1584" height="39.1266" rx="3" fill="#FDFEFF"/>
<path d="M86.1246 68.7554H83.7496L83.7652 67.5288H86.1246C86.9371 67.5288 87.6142 67.3595 88.1558 67.021C88.6975 66.6772 89.1038 66.1981 89.3746 65.5835C89.6506 64.9637 89.7887 64.2397 89.7887 63.4116V62.7163C89.7887 62.0653 89.7105 61.4871 89.5543 60.9819C89.398 60.4715 89.1689 60.0418 88.8668 59.6929C88.5647 59.3387 88.1949 59.0705 87.7574 58.8882C87.3251 58.7059 86.8277 58.6147 86.2652 58.6147H83.7027V57.3804H86.2652C87.01 57.3804 87.6897 57.5054 88.3043 57.7554C88.9189 58.0002 89.4475 58.3569 89.8902 58.8257C90.3381 59.2892 90.6819 59.8517 90.9215 60.5132C91.1611 61.1694 91.2808 61.909 91.2808 62.7319V63.4116C91.2808 64.2345 91.1611 64.9767 90.9215 65.6382C90.6819 66.2944 90.3355 66.8543 89.8824 67.3179C89.4345 67.7814 88.8928 68.1382 88.2574 68.3882C87.6272 68.633 86.9163 68.7554 86.1246 68.7554ZM84.5543 57.3804V68.7554H83.0465V57.3804H84.5543Z" fill="#26262E"/>
<rect x="71.397" y="0.716064" width="31.1584" height="39.1266" rx="3" fill="#FDFEFF"/>
<path d="M90.9762 24.4895V25.7161H84.9527V24.4895H90.9762ZM85.2574 14.3411V25.7161H83.7496V14.3411H85.2574ZM90.1793 19.2317V20.4583H84.9527V19.2317H90.1793ZM90.898 14.3411V15.5754H84.9527V14.3411H90.898Z" fill="#26262E"/>
<rect x="107.006" y="43.7554" width="31.1584" height="39.1266" rx="3" fill="#FDFEFF"/>
<path d="M120.992 57.3804V68.7554H119.484V57.3804H120.992ZM125.757 62.4976V63.7319H120.664V62.4976H125.757ZM126.531 57.3804V58.6147H120.664V57.3804H126.531Z" fill="#26262E"/>
<rect x="142.616" y="43.7554" width="31.1584" height="39.1266" rx="3" fill="#FDFEFF"/>
<path d="M162.469 63.0913V67.2554C162.328 67.4637 162.104 67.6981 161.797 67.9585C161.489 68.2137 161.065 68.4377 160.523 68.6304C159.987 68.8179 159.294 68.9116 158.445 68.9116C157.752 68.9116 157.114 68.7918 156.531 68.5522C155.953 68.3075 155.45 67.9533 155.023 67.4897C154.601 67.021 154.273 66.4533 154.039 65.7866C153.81 65.1147 153.695 64.3543 153.695 63.5054V62.6226C153.695 61.7736 153.794 61.0158 153.992 60.3491C154.195 59.6825 154.492 59.1174 154.883 58.6538C155.273 58.1851 155.752 57.8309 156.32 57.5913C156.888 57.3465 157.539 57.2241 158.273 57.2241C159.143 57.2241 159.87 57.3752 160.453 57.6772C161.042 57.9741 161.5 58.3856 161.828 58.9116C162.161 59.4377 162.375 60.0366 162.469 60.7085H160.961C160.893 60.297 160.758 59.922 160.555 59.5835C160.357 59.245 160.073 58.9741 159.703 58.771C159.333 58.5627 158.857 58.4585 158.273 58.4585C157.747 58.4585 157.292 58.5549 156.906 58.7476C156.521 58.9403 156.203 59.2163 155.953 59.5757C155.703 59.9351 155.515 60.37 155.39 60.8804C155.271 61.3908 155.211 61.9663 155.211 62.6069V63.5054C155.211 64.1616 155.286 64.7476 155.437 65.2632C155.594 65.7788 155.815 66.2189 156.101 66.5835C156.388 66.9429 156.729 67.2163 157.125 67.4038C157.526 67.5913 157.969 67.6851 158.453 67.6851C158.989 67.6851 159.424 67.6408 159.758 67.5522C160.091 67.4585 160.351 67.3491 160.539 67.2241C160.726 67.0939 160.87 66.9715 160.969 66.8569V64.3101H158.336V63.0913H162.469Z" fill="#26262E"/>
<rect x="107.006" y="0.716064" width="31.1584" height="39.1266" rx="3" fill="#FDFEFF"/>
<path d="M118.976 14.3411H122.742C123.596 14.3411 124.317 14.4713 124.906 14.7317C125.5 14.9921 125.95 15.3775 126.257 15.8879C126.57 16.3931 126.726 17.0155 126.726 17.7551C126.726 18.276 126.619 18.7525 126.406 19.1848C126.198 19.6119 125.895 19.9765 125.5 20.2786C125.109 20.5754 124.64 20.7968 124.093 20.9426L123.671 21.1067H120.132L120.117 19.8801H122.789C123.33 19.8801 123.781 19.7864 124.14 19.5989C124.5 19.4062 124.77 19.1484 124.953 18.8254C125.135 18.5025 125.226 18.1458 125.226 17.7551C125.226 17.3176 125.14 16.9348 124.968 16.6067C124.796 16.2786 124.526 16.026 124.156 15.8489C123.791 15.6666 123.32 15.5754 122.742 15.5754H120.484V25.7161H118.976V14.3411ZM125.625 25.7161L122.859 20.5598L124.429 20.552L127.234 25.6223V25.7161H125.625Z" fill="#26262E"/>
<rect x="178.226" y="43.7554" width="31.1584" height="39.1266" rx="3" fill="#FDFEFF"/>
<path d="M196.844 62.271V63.4976H190.688V62.271H196.844ZM190.922 57.3804V68.7554H189.414V57.3804H190.922ZM198.156 57.3804V68.7554H196.656V57.3804H198.156Z" fill="#26262E"/>
<rect x="213.835" y="43.7554" width="31.1584" height="39.1266" rx="3" fill="#FDFEFF"/>
<path d="M231.094 65.4351V57.3804H232.594V65.4351C232.594 66.1851 232.44 66.8179 232.133 67.3335C231.826 67.8491 231.401 68.2424 230.86 68.5132C230.323 68.7788 229.706 68.9116 229.008 68.9116C228.31 68.9116 227.69 68.7918 227.149 68.5522C226.607 68.3127 226.183 67.9481 225.875 67.4585C225.568 66.9689 225.414 66.3517 225.414 65.6069H226.922C226.922 66.0861 227.011 66.4793 227.188 66.7866C227.365 67.0939 227.61 67.3205 227.922 67.4663C228.24 67.6121 228.602 67.6851 229.008 67.6851C229.404 67.6851 229.758 67.6017 230.071 67.4351C230.388 67.2632 230.638 67.0106 230.821 66.6772C231.003 66.3387 231.094 65.9246 231.094 65.4351Z" fill="#26262E"/>
<rect x="142.616" y="0.716064" width="31.1584" height="39.1266" rx="3" fill="#FDFEFF"/>
<path d="M158.945 14.3411V25.7161H157.461V14.3411H158.945ZM162.601 14.3411V15.5754H153.812V14.3411H162.601Z" fill="#26262E"/>
<rect x="249.445" y="43.7554" width="31.1584" height="39.1266" rx="3" fill="#FDFEFF"/>
<path d="M262.829 57.3804V68.7554H261.321V57.3804H262.829ZM269.696 57.3804L264.969 62.6851L262.313 65.4429L262.063 63.8335L264.063 61.6304L267.883 57.3804H269.696ZM268.243 68.7554L264.032 63.2085L264.93 62.0132L270.04 68.7554H268.243Z" fill="#26262E"/>
<rect x="285.054" y="43.7554" width="31.1584" height="39.1266" rx="3" fill="#FDFEFF"/>
<path d="M304.54 67.5288V68.7554H298.852V67.5288H304.54ZM299.149 57.3804V68.7554H297.641V57.3804H299.149Z" fill="#26262E"/>
<rect x="178.226" y="0.716064" width="31.1584" height="39.1266" rx="3" fill="#FDFEFF"/>
<path d="M190.844 14.3411L193.797 20.052L196.758 14.3411H198.469L194.547 21.4661V25.7161H193.039V21.4661L189.117 14.3411H190.844Z" fill="#26262E"/>
<rect x="213.835" y="0.716064" width="31.1584" height="39.1266" rx="3" fill="#FDFEFF"/>
<path d="M232.055 14.3411H233.555V22.0364C233.555 22.8905 233.365 23.6015 232.985 24.1692C232.604 24.7369 232.099 25.164 231.469 25.4504C230.844 25.7317 230.164 25.8723 229.43 25.8723C228.659 25.8723 227.961 25.7317 227.336 25.4504C226.716 25.164 226.224 24.7369 225.86 24.1692C225.5 23.6015 225.321 22.8905 225.321 22.0364V14.3411H226.813V22.0364C226.813 22.6301 226.922 23.1197 227.141 23.5051C227.36 23.8905 227.664 24.177 228.055 24.3645C228.451 24.552 228.909 24.6458 229.43 24.6458C229.956 24.6458 230.414 24.552 230.805 24.3645C231.201 24.177 231.508 23.8905 231.727 23.5051C231.946 23.1197 232.055 22.6301 232.055 22.0364V14.3411Z" fill="#26262E"/>
<rect x="249.445" y="0.716064" width="31.1584" height="39.1266" rx="3" fill="#FDFEFF"/>
<path d="M265.782 14.3411V25.7161H264.274V14.3411H265.782Z" fill="#26262E"/>
<rect x="285.054" y="0.716064" width="31.1584" height="39.1266" rx="3" fill="#FDFEFF"/>
<path d="M305.204 19.6692V20.3879C305.204 21.2421 305.097 22.0077 304.883 22.6848C304.67 23.3619 304.363 23.9374 303.962 24.4114C303.56 24.8853 303.079 25.2473 302.516 25.4973C301.959 25.7473 301.334 25.8723 300.641 25.8723C299.969 25.8723 299.352 25.7473 298.79 25.4973C298.232 25.2473 297.748 24.8853 297.337 24.4114C296.93 23.9374 296.615 23.3619 296.391 22.6848C296.167 22.0077 296.055 21.2421 296.055 20.3879V19.6692C296.055 18.815 296.165 18.052 296.383 17.3801C296.607 16.703 296.922 16.1275 297.329 15.6536C297.735 15.1744 298.217 14.8098 298.774 14.5598C299.337 14.3098 299.954 14.1848 300.626 14.1848C301.318 14.1848 301.943 14.3098 302.501 14.5598C303.063 14.8098 303.545 15.1744 303.946 15.6536C304.352 16.1275 304.662 16.703 304.876 17.3801C305.094 18.052 305.204 18.815 305.204 19.6692ZM303.712 20.3879V19.6536C303.712 18.9765 303.641 18.3775 303.501 17.8567C303.365 17.3359 303.165 16.8984 302.899 16.5442C302.633 16.19 302.308 15.9218 301.922 15.7395C301.542 15.5572 301.11 15.4661 300.626 15.4661C300.157 15.4661 299.732 15.5572 299.352 15.7395C298.977 15.9218 298.654 16.19 298.383 16.5442C298.118 16.8984 297.912 17.3359 297.766 17.8567C297.62 18.3775 297.547 18.9765 297.547 19.6536V20.3879C297.547 21.0702 297.62 21.6744 297.766 22.2004C297.912 22.7213 298.12 23.1614 298.391 23.5208C298.667 23.8749 298.993 24.1431 299.368 24.3254C299.748 24.5077 300.172 24.5989 300.641 24.5989C301.131 24.5989 301.566 24.5077 301.946 24.3254C302.326 24.1431 302.646 23.8749 302.907 23.5208C303.172 23.1614 303.373 22.7213 303.508 22.2004C303.644 21.6744 303.712 21.0702 303.712 20.3879Z" fill="#26262E"/>
<rect x="53.3333" y="86.7947" width="31.1584" height="39.1266" rx="3" fill="#FDFEFF"/>
<path d="M73.0687 110.568V111.795H65.3656V110.568H73.0687ZM72.8187 101.513L65.7249 111.795H64.7952V110.67L71.8812 100.42H72.8187V101.513ZM72.1781 100.42V101.654H64.8968V100.42H72.1781Z" fill="#26262E"/>
<rect x="53.3333" y="129.834" width="31.1584" height="39.1266" rx="3" fill="#FDFEFF"/>
<path d="M69.7484 153.115V154.279C69.7484 154.753 69.6286 155.253 69.389 155.779C69.1494 156.311 68.8135 156.753 68.3812 157.107L67.5609 156.537C67.7275 156.308 67.8682 156.074 67.9827 155.834C68.0973 155.6 68.1833 155.355 68.2406 155.1C68.3031 154.85 68.3343 154.584 68.3343 154.303V153.115H69.7484Z" fill="#26262E"/>
<rect x="88.9429" y="86.7947" width="31.1584" height="39.1266" rx="3" fill="#FDFEFF"/>
<path d="M101.803 100.42L104.538 104.779L107.272 100.42H109.03L105.436 106.052L109.116 111.795H107.342L104.538 107.349L101.733 111.795H99.9596L103.639 106.052L100.045 100.42H101.803Z" fill="#26262E"/>
<rect x="124.552" y="86.7947" width="31.1584" height="39.1266" rx="3" fill="#FDFEFF"/>
<path d="M143.108 108.177H144.608C144.53 108.896 144.324 109.539 143.991 110.107C143.658 110.675 143.186 111.125 142.577 111.459C141.968 111.787 141.207 111.951 140.296 111.951C139.629 111.951 139.022 111.826 138.475 111.576C137.934 111.326 137.468 110.972 137.077 110.513C136.686 110.05 136.384 109.495 136.171 108.849C135.962 108.198 135.858 107.474 135.858 106.677V105.545C135.858 104.748 135.962 104.026 136.171 103.381C136.384 102.73 136.689 102.172 137.085 101.709C137.486 101.245 137.968 100.888 138.53 100.638C139.093 100.388 139.725 100.263 140.429 100.263C141.288 100.263 142.014 100.425 142.608 100.748C143.202 101.071 143.663 101.519 143.991 102.092C144.324 102.659 144.53 103.318 144.608 104.068H143.108C143.035 103.537 142.9 103.081 142.702 102.701C142.504 102.316 142.223 102.019 141.858 101.81C141.494 101.602 141.017 101.498 140.429 101.498C139.923 101.498 139.478 101.594 139.093 101.787C138.712 101.98 138.392 102.253 138.132 102.607C137.876 102.961 137.684 103.386 137.554 103.881C137.423 104.375 137.358 104.925 137.358 105.529V106.677C137.358 107.235 137.416 107.758 137.53 108.248C137.65 108.737 137.83 109.167 138.069 109.537C138.309 109.907 138.613 110.198 138.983 110.412C139.353 110.62 139.791 110.724 140.296 110.724C140.936 110.724 141.447 110.623 141.827 110.42C142.207 110.217 142.494 109.925 142.686 109.545C142.884 109.164 143.025 108.709 143.108 108.177Z" fill="#26262E"/>
<rect x="160.162" y="86.7947" width="31.1584" height="39.1266" rx="3" fill="#FDFEFF"/>
<path d="M175.64 110.068L178.991 100.42H180.624L176.413 111.795H175.249L175.64 110.068ZM172.507 100.42L175.827 110.068L176.241 111.795H175.077L170.874 100.42H172.507Z" fill="#26262E"/>
<rect x="195.771" y="86.7947" width="31.1584" height="39.1266" rx="3" fill="#FDFEFF"/>
<path d="M211.741 106.474H208.858L208.843 105.263H211.46C211.892 105.263 212.27 105.191 212.593 105.045C212.916 104.899 213.166 104.691 213.343 104.42C213.525 104.144 213.616 103.816 213.616 103.435C213.616 103.019 213.536 102.68 213.374 102.42C213.218 102.154 212.976 101.961 212.648 101.842C212.325 101.717 211.913 101.654 211.413 101.654H209.194V111.795H207.687V100.42H211.413C211.997 100.42 212.517 100.48 212.976 100.599C213.434 100.714 213.822 100.896 214.14 101.146C214.463 101.391 214.707 101.704 214.874 102.084C215.041 102.464 215.124 102.92 215.124 103.451C215.124 103.92 215.004 104.344 214.765 104.724C214.525 105.099 214.192 105.407 213.765 105.646C213.343 105.886 212.848 106.039 212.28 106.107L211.741 106.474ZM211.671 111.795H208.265L209.116 110.568H211.671C212.15 110.568 212.556 110.485 212.89 110.318C213.228 110.151 213.486 109.917 213.663 109.615C213.84 109.308 213.929 108.946 213.929 108.529C213.929 108.107 213.853 107.743 213.702 107.435C213.551 107.128 213.314 106.891 212.991 106.724C212.668 106.558 212.252 106.474 211.741 106.474H209.593L209.608 105.263H212.546L212.866 105.701C213.413 105.748 213.877 105.904 214.257 106.17C214.637 106.43 214.926 106.763 215.124 107.17C215.327 107.576 215.429 108.024 215.429 108.513C215.429 109.222 215.273 109.821 214.96 110.31C214.653 110.795 214.218 111.164 213.655 111.42C213.093 111.67 212.431 111.795 211.671 111.795Z" fill="#26262E"/>
<rect x="231.381" y="86.7947" width="31.1584" height="39.1266" rx="3" fill="#FDFEFF"/>
<path d="M251.32 100.42V111.795H249.804L244.077 103.021V111.795H242.57V100.42H244.077L249.827 109.217V100.42H251.32Z" fill="#26262E"/>
<rect x="89.1111" y="129.834" width="173.778" height="39.1266" rx="3" fill="#FDFEFF"/>
<path d="M179.586 154.834V156.021H172.422V154.834H179.586Z" fill="#26262E"/>
<rect x="266.991" y="86.7947" width="31.1584" height="39.1266" rx="3" fill="#FDFEFF"/>
<path d="M277.382 100.42H278.843L282.57 109.693L286.289 100.42H287.757L283.132 111.795H281.992L277.382 100.42ZM276.906 100.42H278.195L278.406 107.357V111.795H276.906V100.42ZM286.937 100.42H288.226V111.795H286.726V107.357L286.937 100.42Z" fill="#26262E"/>
<rect x="266.991" y="129.834" width="31.1584" height="39.1266" rx="3" fill="#FDFEFF"/>
<path d="M281.586 154.068C281.586 153.824 281.661 153.618 281.812 153.451C281.968 153.279 282.192 153.193 282.484 153.193C282.776 153.193 282.997 153.279 283.148 153.451C283.304 153.618 283.382 153.824 283.382 154.068C283.382 154.308 283.304 154.511 283.148 154.678C282.997 154.844 282.776 154.928 282.484 154.928C282.192 154.928 281.968 154.844 281.812 154.678C281.661 154.511 281.586 154.308 281.586 154.068Z" fill="#26262E"/>
<rect x="0.177734" y="129.834" width="49.0667" height="39.1266" rx="3" fill="#FDFEFF"/>
<path d="M17.0626 143.459L16.9611 151.623H15.6564L15.547 143.459H17.0626ZM15.5001 154.107C15.5001 153.873 15.5704 153.675 15.7111 153.514C15.8569 153.352 16.0704 153.271 16.3517 153.271C16.6277 153.271 16.8387 153.352 16.9845 153.514C17.1355 153.675 17.2111 153.873 17.2111 154.107C17.2111 154.331 17.1355 154.524 16.9845 154.686C16.8387 154.847 16.6277 154.928 16.3517 154.928C16.0704 154.928 15.8569 154.847 15.7111 154.686C15.5704 154.524 15.5001 154.331 15.5001 154.107ZM20.547 154.834L22.7579 143.459H23.8829L21.6642 154.834H20.547ZM23.7267 154.834L25.9454 143.459H27.0626L24.8439 154.834H23.7267ZM28.0158 147.795H19.8908V146.709H28.0158V147.795ZM27.4298 151.631H19.297V150.553H27.4298V151.631ZM33.2658 143.396V154.834H31.8204V145.201L28.9064 146.264V144.959L33.0392 143.396H33.2658Z" fill="#26262E"/>
<rect x="320.664" y="0.716064" width="31.1584" height="39.1266" rx="3" fill="#FDFEFF"/>
<path d="M336.712 21.2551H333.673V20.0286H336.712C337.3 20.0286 337.777 19.9348 338.141 19.7473C338.506 19.5598 338.772 19.2994 338.938 18.9661C339.11 18.6327 339.196 18.2525 339.196 17.8254C339.196 17.4348 339.11 17.0676 338.938 16.7239C338.772 16.3801 338.506 16.1041 338.141 15.8958C337.777 15.6822 337.3 15.5754 336.712 15.5754H334.024V25.7161H332.516V14.3411H336.712C337.571 14.3411 338.298 14.4895 338.891 14.7864C339.485 15.0833 339.936 15.4947 340.243 16.0208C340.55 16.5416 340.704 17.1379 340.704 17.8098C340.704 18.539 340.55 19.1614 340.243 19.677C339.936 20.1926 339.485 20.5859 338.891 20.8567C338.298 21.1223 337.571 21.2551 336.712 21.2551Z" fill="#26262E"/>
<rect x="320.664" y="43.7554" width="31.1584" height="39.1266" rx="3" fill="#FDFEFF"/>
<path d="M340.602 57.3804V68.7554H339.087L333.36 59.9819V68.7554H331.852V57.3804H333.36L339.11 66.1772V57.3804H340.602ZM338.001 54.4819L338.977 54.5679C338.977 54.9481 338.902 55.2814 338.751 55.5679C338.6 55.8543 338.397 56.0757 338.141 56.2319C337.891 56.3882 337.608 56.4663 337.29 56.4663C337.024 56.4663 336.806 56.4299 336.634 56.3569C336.462 56.2788 336.308 56.1929 336.173 56.0991C336.037 56.0002 335.894 55.9142 335.743 55.8413C335.597 55.7632 335.415 55.7241 335.196 55.7241C334.977 55.7241 334.792 55.8075 334.641 55.9741C334.496 56.1408 334.423 56.3465 334.423 56.5913L333.446 56.5444C333.446 56.1642 333.519 55.8309 333.665 55.5444C333.816 55.2528 334.019 55.0262 334.274 54.8647C334.529 54.6981 334.813 54.6147 335.126 54.6147C335.35 54.6147 335.545 54.6538 335.712 54.7319C335.884 54.8049 336.045 54.8908 336.196 54.9897C336.347 55.0835 336.503 55.1694 336.665 55.2476C336.826 55.3205 337.011 55.3569 337.22 55.3569C337.438 55.3569 337.623 55.2736 337.774 55.1069C337.925 54.9351 338.001 54.7267 338.001 54.4819Z" fill="#26262E"/>
<rect x="0.177734" y="86.7947" width="43.9556" height="39.1266" rx="3" fill="#FDFEFF"/>
<path d="M22.1554 99.5109L29.8221 105.217L25.5714 105.217L25.5628 114.183L18.748 114.183L18.748 105.217L14.4888 105.217L22.1554 99.5109Z" fill="#26262E"/>
<rect x="307.867" y="86.7947" width="43.9556" height="39.1266" rx="3" fill="#FDFEFF"/>
<path d="M338.329 98.5327H327.586C327.092 98.5327 326.382 98.7801 326.01 99.0829L318.368 105.317C318.281 105.384 318.211 105.468 318.162 105.563C318.114 105.659 318.089 105.763 318.089 105.868C318.089 105.974 318.114 106.078 318.162 106.174C318.211 106.269 318.281 106.353 318.368 106.42L326.01 112.653C326.382 112.956 327.092 113.205 327.586 113.205H338.329C339.566 113.205 340.578 112.262 340.578 111.109V100.629C340.578 99.4759 339.566 98.5327 338.329 98.5327ZM335.17 110.061L332.295 107.381L329.421 110.061L327.799 108.549L330.673 105.869L327.799 103.189L329.421 101.677L332.296 104.355L335.169 101.677L336.793 103.189L333.919 105.869L336.794 108.547L335.17 110.061Z" fill="#26262E"/>
<rect x="301.733" y="129.834" width="50.0889" height="39.1266" rx="3" fill="#FDFEFF"/>
<path d="M334.24 141.322H332.707C332.468 141.322 332.252 141.509 332.252 141.766V154.09H320.332V152.568C320.332 152.179 319.88 152.001 319.598 152.216C319.598 152.216 319.598 152.216 319.597 152.217L315.974 154.933C315.974 154.933 315.973 154.933 315.973 154.933C315.919 154.974 315.874 155.026 315.843 155.087L316.065 155.202L315.843 155.087C315.811 155.149 315.794 155.217 315.794 155.287C315.794 155.356 315.811 155.424 315.843 155.486C315.874 155.547 315.919 155.599 315.973 155.64C315.973 155.64 315.974 155.64 315.974 155.64L319.599 158.358C319.599 158.358 319.599 158.358 319.599 158.358C319.599 158.358 319.599 158.358 319.599 158.358C319.882 158.571 320.332 158.395 320.332 158.005V156.435H332.809C333.837 156.435 334.694 155.638 334.694 154.631V141.766C334.694 141.509 334.478 141.322 334.24 141.322Z" fill="#26262E" stroke="#26262E" stroke-width="0.5"/>
</svg>
